G04 #@! TF.GenerationSoftware,KiCad,Pcbnew,8.0.8*
G04 #@! TF.CreationDate,2025-02-21T01:15:50+03:00*
G04 #@! TF.ProjectId,SMHome_2RelayBoardRound_ESP1M_v7,534d486f-6d65-45f3-9252-656c6179426f,12*
G04 #@! TF.SameCoordinates,Original*
G04 #@! TF.FileFunction,Soldermask,Bot*
G04 #@! TF.FilePolarity,Negative*
%FSLAX46Y46*%
G04 Gerber Fmt 4.6, Leading zero omitted, Abs format (unit mm)*
G04 Created by KiCad (PCBNEW 8.0.8) date 2025-02-21 01:15:50*
%MOMM*%
%LPD*%
G01*
G04 APERTURE LIST*
G04 Aperture macros list*
%AMRoundRect*
0 Rectangle with rounded corners*
0 $1 Rounding radius*
0 $2 $3 $4 $5 $6 $7 $8 $9 X,Y pos of 4 corners*
0 Add a 4 corners polygon primitive as box body*
4,1,4,$2,$3,$4,$5,$6,$7,$8,$9,$2,$3,0*
0 Add four circle primitives for the rounded corners*
1,1,$1+$1,$2,$3*
1,1,$1+$1,$4,$5*
1,1,$1+$1,$6,$7*
1,1,$1+$1,$8,$9*
0 Add four rect primitives between the rounded corners*
20,1,$1+$1,$2,$3,$4,$5,0*
20,1,$1+$1,$4,$5,$6,$7,0*
20,1,$1+$1,$6,$7,$8,$9,0*
20,1,$1+$1,$8,$9,$2,$3,0*%
%AMHorizOval*
0 Thick line with rounded ends*
0 $1 width*
0 $2 $3 position (X,Y) of the first rounded end (center of the circle)*
0 $4 $5 position (X,Y) of the second rounded end (center of the circle)*
0 Add line between two ends*
20,1,$1,$2,$3,$4,$5,0*
0 Add two circle primitives to create the rounded ends*
1,1,$1,$2,$3*
1,1,$1,$4,$5*%
G04 Aperture macros list end*
%ADD10C,2.000000*%
%ADD11C,0.100000*%
%ADD12C,1.800000*%
%ADD13R,1.600000X1.600000*%
%ADD14C,1.600000*%
%ADD15C,2.500000*%
%ADD16R,1.700000X1.700000*%
%ADD17O,1.700000X1.700000*%
%ADD18R,0.800000X1.635000*%
%ADD19C,2.200000*%
%ADD20C,2.600000*%
%ADD21C,2.400000*%
%ADD22HorizOval,2.400000X0.000000X0.000000X0.000000X0.000000X0*%
%ADD23RoundRect,0.250000X0.475870X-0.248340X0.474124X0.251657X-0.475870X0.248340X-0.474124X-0.251657X0*%
%ADD24RoundRect,0.237500X0.250000X0.237500X-0.250000X0.237500X-0.250000X-0.237500X0.250000X-0.237500X0*%
%ADD25RoundRect,0.250000X0.250000X-0.250000X0.250000X0.250000X-0.250000X0.250000X-0.250000X-0.250000X0*%
%ADD26RoundRect,0.250000X-0.475000X0.250000X-0.475000X-0.250000X0.475000X-0.250000X0.475000X0.250000X0*%
%ADD27RoundRect,0.237500X-0.250000X-0.237500X0.250000X-0.237500X0.250000X0.237500X-0.250000X0.237500X0*%
%ADD28RoundRect,0.250000X0.475000X-0.250000X0.475000X0.250000X-0.475000X0.250000X-0.475000X-0.250000X0*%
%ADD29RoundRect,0.250000X-0.250000X0.250000X-0.250000X-0.250000X0.250000X-0.250000X0.250000X0.250000X0*%
%ADD30RoundRect,0.250000X-0.475000X0.337500X-0.475000X-0.337500X0.475000X-0.337500X0.475000X0.337500X0*%
%ADD31RoundRect,0.237500X0.237500X-0.250000X0.237500X0.250000X-0.237500X0.250000X-0.237500X-0.250000X0*%
%ADD32RoundRect,0.250000X-0.300000X-0.300000X0.300000X-0.300000X0.300000X0.300000X-0.300000X0.300000X0*%
%ADD33RoundRect,0.237500X-0.237500X0.250000X-0.237500X-0.250000X0.237500X-0.250000X0.237500X0.250000X0*%
%ADD34RoundRect,0.150000X-0.587500X-0.150000X0.587500X-0.150000X0.587500X0.150000X-0.587500X0.150000X0*%
%ADD35RoundRect,0.250000X0.300000X0.300000X-0.300000X0.300000X-0.300000X-0.300000X0.300000X-0.300000X0*%
%ADD36RoundRect,0.101600X-0.850000X0.550000X-0.850000X-0.550000X0.850000X-0.550000X0.850000X0.550000X0*%
%ADD37RoundRect,0.101600X0.850000X-0.550000X0.850000X0.550000X-0.850000X0.550000X-0.850000X-0.550000X0*%
%ADD38RoundRect,0.250000X0.250000X0.475000X-0.250000X0.475000X-0.250000X-0.475000X0.250000X-0.475000X0*%
%ADD39RoundRect,0.250000X0.250000X0.250000X-0.250000X0.250000X-0.250000X-0.250000X0.250000X-0.250000X0*%
%ADD40RoundRect,0.250000X-0.300000X0.300000X-0.300000X-0.300000X0.300000X-0.300000X0.300000X0.300000X0*%
%ADD41RoundRect,0.125000X0.125000X-0.375000X0.125000X0.375000X-0.125000X0.375000X-0.125000X-0.375000X0*%
%ADD42RoundRect,0.250000X-0.475000X-0.250000X0.475000X-0.250000X0.475000X0.250000X-0.475000X0.250000X0*%
%ADD43RoundRect,0.175000X0.175000X-0.325000X0.175000X0.325000X-0.175000X0.325000X-0.175000X-0.325000X0*%
%ADD44RoundRect,0.250000X-0.337500X-0.475000X0.337500X-0.475000X0.337500X0.475000X-0.337500X0.475000X0*%
%ADD45RoundRect,0.250000X-0.625000X0.400000X-0.625000X-0.400000X0.625000X-0.400000X0.625000X0.400000X0*%
%ADD46RoundRect,0.250000X-1.000000X-0.650000X1.000000X-0.650000X1.000000X0.650000X-1.000000X0.650000X0*%
G04 APERTURE END LIST*
D10*
X132663600Y-93519400D02*
X137523600Y-88849400D01*
X128653600Y-93569400D02*
X132663600Y-93519400D01*
X139776200Y-93040200D02*
X143154400Y-89585800D01*
D11*
X148453600Y-86629400D02*
X148363600Y-86669400D01*
D10*
X143154400Y-89636600D02*
X143470200Y-86915000D01*
X137603600Y-88779400D02*
X138443600Y-86809400D01*
D12*
X140743600Y-125099400D03*
X143283600Y-125099400D03*
X145823600Y-125099400D03*
X148363600Y-125099400D03*
X150903600Y-125099400D03*
X153443600Y-125099400D03*
X155983600Y-125099400D03*
D13*
X165000949Y-96029400D03*
D14*
X168800949Y-96029400D03*
D15*
X128590040Y-93606620D03*
X136187180Y-96146620D03*
X128590040Y-108844080D03*
X136187180Y-108844080D03*
D16*
X125349000Y-101076600D03*
D17*
X125349000Y-103616600D03*
X125349000Y-106156600D03*
X125349000Y-108696600D03*
D18*
X149943600Y-117656600D03*
X148343600Y-117656600D03*
X146743600Y-117656600D03*
X145143600Y-117656600D03*
X143543600Y-117656600D03*
X141943600Y-117656600D03*
X140343600Y-117656600D03*
X138743600Y-117656600D03*
X137143600Y-117656600D03*
X137143600Y-114956600D03*
X138743600Y-114956600D03*
X140343600Y-114956600D03*
X141943600Y-114956600D03*
X143543600Y-114956600D03*
X145143600Y-114956600D03*
X146743600Y-114956600D03*
X148343600Y-114956600D03*
X149943600Y-114956600D03*
D14*
X156083600Y-98429400D03*
X151083600Y-97229400D03*
D19*
X164503100Y-88760300D03*
X150478000Y-92083000D03*
X156015200Y-95283400D03*
X164503100Y-121338500D03*
D15*
X158488400Y-86842600D03*
X153488400Y-86842600D03*
X148488400Y-86842600D03*
X143488400Y-86842600D03*
X138488400Y-86842600D03*
D19*
X131978400Y-88760300D03*
D20*
X166776400Y-115443000D03*
X163240866Y-111907466D03*
D21*
X159907981Y-93652068D03*
D22*
X160350732Y-98712737D03*
D13*
X156718000Y-106451400D03*
D14*
X156718000Y-108951400D03*
D15*
X139689840Y-93606620D03*
X147286980Y-96146620D03*
X139689840Y-108844080D03*
X147286980Y-108844080D03*
D19*
X131978400Y-121338500D03*
D23*
X150345916Y-112709994D03*
X150339284Y-110810006D03*
D24*
X151585300Y-121691400D03*
X149760300Y-121691400D03*
D25*
X156540200Y-119385400D03*
X156540200Y-116885400D03*
D26*
X135890000Y-120817600D03*
X135890000Y-122717600D03*
D27*
X156796100Y-112725200D03*
X158621100Y-112725200D03*
D28*
X160604200Y-119288600D03*
X160604200Y-117388600D03*
D29*
X130810000Y-111221201D03*
X130810000Y-113721199D03*
D30*
X154076400Y-107090300D03*
X154076400Y-109165300D03*
D31*
X158419800Y-119301900D03*
X158419800Y-117476900D03*
D32*
X139265200Y-105181400D03*
X142065200Y-105181400D03*
X130400600Y-105181400D03*
X133200600Y-105181400D03*
D33*
X138455400Y-100408100D03*
X138455400Y-102233100D03*
D31*
X140343600Y-102231900D03*
X140343600Y-100406900D03*
D33*
X128498600Y-111761900D03*
X128498600Y-113586900D03*
D31*
X130573600Y-102071900D03*
X130573600Y-100246900D03*
X131953000Y-117981100D03*
X131953000Y-116156100D03*
D34*
X143029700Y-102270600D03*
X143029700Y-100370600D03*
X144904700Y-101320600D03*
D31*
X159359600Y-108405300D03*
X159359600Y-106580300D03*
D35*
X166042800Y-93345000D03*
X163242800Y-93345000D03*
D30*
X151638000Y-107090300D03*
X151638000Y-109165300D03*
D36*
X158258200Y-101224800D03*
X158258200Y-103764800D03*
D37*
X151758200Y-103764800D03*
X151758200Y-101224800D03*
D33*
X128703600Y-100246900D03*
X128703600Y-102071900D03*
D38*
X132877600Y-108940600D03*
X130977600Y-108940600D03*
D25*
X154381200Y-119410800D03*
X154381200Y-116910800D03*
D27*
X152249500Y-112725200D03*
X154074500Y-112725200D03*
D39*
X143261399Y-121716800D03*
X140761401Y-121716800D03*
D38*
X147787399Y-121793000D03*
X145887401Y-121793000D03*
D29*
X132994400Y-111170401D03*
X132994400Y-113670399D03*
D40*
X161239200Y-102054200D03*
X161239200Y-104854200D03*
D41*
X166473600Y-105176900D03*
X165573600Y-105176900D03*
X163773600Y-105176900D03*
D42*
X164313600Y-101176900D03*
D43*
X166373600Y-101176900D03*
D27*
X135587100Y-112496600D03*
X137412100Y-112496600D03*
X142902300Y-112141000D03*
X144727300Y-112141000D03*
D44*
X162136100Y-107349400D03*
X164211100Y-107349400D03*
D45*
X169164000Y-101650200D03*
X169164000Y-104750200D03*
D28*
X130124200Y-118018600D03*
X130124200Y-116118600D03*
D31*
X137947400Y-122578500D03*
X137947400Y-120753500D03*
D46*
X167083600Y-108009400D03*
X171083600Y-108009400D03*
D34*
X133580900Y-102169000D03*
X133580900Y-100269000D03*
X135455900Y-101219000D03*
M02*
