G04 #@! TF.GenerationSoftware,KiCad,Pcbnew,8.0.8*
G04 #@! TF.CreationDate,2025-02-21T01:15:50+03:00*
G04 #@! TF.ProjectId,SMHome_2RelayBoardRound_ESP1M_v7,534d486f-6d65-45f3-9252-656c6179426f,12*
G04 #@! TF.SameCoordinates,Original*
G04 #@! TF.FileFunction,Profile,NP*
%FSLAX46Y46*%
G04 Gerber Fmt 4.6, Leading zero omitted, Abs format (unit mm)*
G04 Created by KiCad (PCBNEW 8.0.8) date 2025-02-21 01:15:50*
%MOMM*%
%LPD*%
G01*
G04 APERTURE LIST*
G04 #@! TA.AperFunction,Profile*
%ADD10C,0.100000*%
G04 #@! TD*
G04 #@! TA.AperFunction,Profile*
%ADD11C,0.150000*%
G04 #@! TD*
G04 #@! TA.AperFunction,Profile*
%ADD12C,0.200000*%
G04 #@! TD*
G04 #@! TA.AperFunction,Profile*
%ADD13C,0.120000*%
G04 #@! TD*
G04 APERTURE END LIST*
D10*
X141757400Y-95067500D02*
G75*
G02*
X141761357Y-96092917I4200J-512700D01*
G01*
X150571200Y-95123000D02*
X147980400Y-97612200D01*
X137007600Y-93243400D02*
X138938000Y-95072200D01*
X156517521Y-88620600D02*
G75*
G02*
X155492062Y-88624557I-512721J-4200D01*
G01*
D11*
X160477200Y-83032600D02*
G75*
G02*
X156591000Y-128650999I-12032740J-21949670D01*
G01*
D10*
X136245600Y-93954600D02*
X138328400Y-95935800D01*
X151333200Y-95885000D02*
X148742400Y-98374200D01*
X133984770Y-96151720D02*
G75*
G02*
X133251180Y-95387926I-359170J389220D01*
G01*
X141503400Y-88599157D02*
X141503400Y-85644843D01*
X140444600Y-85623486D02*
G75*
G02*
X141503425Y-85644843I529200J-21214D01*
G01*
X155492121Y-85670243D02*
G75*
G02*
X156517521Y-85670243I512700J0D01*
G01*
X150567237Y-95125964D02*
G75*
G02*
X151333227Y-95885028I386063J-376436D01*
G01*
X146488680Y-88497522D02*
X146488680Y-85623400D01*
X146488680Y-88497522D02*
G75*
G02*
X145429946Y-88476168I-529580J122D01*
G01*
X140004800Y-90347800D02*
X137007600Y-93243400D01*
X150663400Y-85674200D02*
G75*
G02*
X151688800Y-85674200I512700J0D01*
G01*
X150663400Y-88628514D02*
X150663400Y-85674200D01*
X140444600Y-88577800D02*
X140444600Y-85623486D01*
X151688800Y-88624557D02*
X151688800Y-85674200D01*
X141761357Y-96092900D02*
X138807043Y-96088200D01*
X141503400Y-88599157D02*
G75*
G02*
X140444628Y-88577801I-529600J57D01*
G01*
X148742400Y-98374200D02*
G75*
G02*
X147980461Y-97610469I-366100J396700D01*
G01*
X141757400Y-95067500D02*
X138938000Y-95076900D01*
X155492121Y-88624557D02*
X155492121Y-85670243D01*
D11*
X140233400Y-128651000D02*
G75*
G02*
X136347197Y-83032595I8176210J23671260D01*
G01*
D10*
X139247393Y-89585800D02*
G75*
G02*
X140004866Y-90347869I384707J-375100D01*
G01*
X151688800Y-88624557D02*
G75*
G02*
X150663383Y-88628514I-512700J-4243D01*
G01*
X156517521Y-88620600D02*
X156517521Y-85670243D01*
X139242800Y-89585800D02*
X133251187Y-95387933D01*
D12*
X156591000Y-128651000D02*
X140233400Y-128651000D01*
D10*
X136245600Y-93954600D02*
X133984770Y-96151720D01*
X145429880Y-85602043D02*
G75*
G02*
X146488743Y-85623400I529220J-21157D01*
G01*
X138797566Y-96088200D02*
G75*
G02*
X138328410Y-95935784I46434J941200D01*
G01*
X145429880Y-88476165D02*
X145429880Y-85602043D01*
D11*
X136347200Y-83032600D02*
X160477200Y-83032600D01*
D13*
X150543600Y-115806600D02*
X136543600Y-115806600D01*
X150543600Y-116806600D02*
X136543600Y-116806600D01*
X136543600Y-116806600D02*
G75*
G02*
X136543600Y-115806600I0J500000D01*
G01*
X150543600Y-115806600D02*
G75*
G02*
X150543600Y-116806600I0J-500000D01*
G01*
M02*
