G04 #@! TF.GenerationSoftware,KiCad,Pcbnew,8.0.8*
G04 #@! TF.CreationDate,2025-02-21T01:15:50+03:00*
G04 #@! TF.ProjectId,SMHome_2RelayBoardRound_ESP1M_v7,534d486f-6d65-45f3-9252-656c6179426f,12*
G04 #@! TF.SameCoordinates,Original*
G04 #@! TF.FileFunction,Legend,Bot*
G04 #@! TF.FilePolarity,Positive*
%FSLAX46Y46*%
G04 Gerber Fmt 4.6, Leading zero omitted, Abs format (unit mm)*
G04 Created by KiCad (PCBNEW 8.0.8) date 2025-02-21 01:15:50*
%MOMM*%
%LPD*%
G01*
G04 APERTURE LIST*
%ADD10C,0.150000*%
%ADD11C,0.200000*%
%ADD12C,0.100000*%
%ADD13C,0.120000*%
%ADD14C,0.101600*%
G04 APERTURE END LIST*
D10*
X153045895Y-126692733D02*
X153617323Y-126692733D01*
X153617323Y-126692733D02*
X153731609Y-126654638D01*
X153731609Y-126654638D02*
X153807800Y-126578447D01*
X153807800Y-126578447D02*
X153845895Y-126464162D01*
X153845895Y-126464162D02*
X153845895Y-126387971D01*
X153845895Y-127073686D02*
X153045895Y-127073686D01*
X153045895Y-127073686D02*
X153045895Y-127378448D01*
X153045895Y-127378448D02*
X153083990Y-127454638D01*
X153083990Y-127454638D02*
X153122085Y-127492733D01*
X153122085Y-127492733D02*
X153198276Y-127530829D01*
X153198276Y-127530829D02*
X153312561Y-127530829D01*
X153312561Y-127530829D02*
X153388752Y-127492733D01*
X153388752Y-127492733D02*
X153426847Y-127454638D01*
X153426847Y-127454638D02*
X153464942Y-127378448D01*
X153464942Y-127378448D02*
X153464942Y-127073686D01*
X153122085Y-127835590D02*
X153083990Y-127873686D01*
X153083990Y-127873686D02*
X153045895Y-127949876D01*
X153045895Y-127949876D02*
X153045895Y-128140352D01*
X153045895Y-128140352D02*
X153083990Y-128216543D01*
X153083990Y-128216543D02*
X153122085Y-128254638D01*
X153122085Y-128254638D02*
X153198276Y-128292733D01*
X153198276Y-128292733D02*
X153274466Y-128292733D01*
X153274466Y-128292733D02*
X153388752Y-128254638D01*
X153388752Y-128254638D02*
X153845895Y-127797495D01*
X153845895Y-127797495D02*
X153845895Y-128292733D01*
D11*
X148144076Y-84661619D02*
X148620266Y-84661619D01*
X148620266Y-84661619D02*
X148620266Y-83661619D01*
X153719313Y-84661619D02*
X153719313Y-83661619D01*
X153719313Y-83661619D02*
X153147885Y-84661619D01*
X153147885Y-84661619D02*
X153147885Y-83661619D01*
X143954428Y-84754819D02*
X144287761Y-84278628D01*
X144525856Y-84754819D02*
X144525856Y-83754819D01*
X144525856Y-83754819D02*
X144144904Y-83754819D01*
X144144904Y-83754819D02*
X144049666Y-83802438D01*
X144049666Y-83802438D02*
X144002047Y-83850057D01*
X144002047Y-83850057D02*
X143954428Y-83945295D01*
X143954428Y-83945295D02*
X143954428Y-84088152D01*
X143954428Y-84088152D02*
X144002047Y-84183390D01*
X144002047Y-84183390D02*
X144049666Y-84231009D01*
X144049666Y-84231009D02*
X144144904Y-84278628D01*
X144144904Y-84278628D02*
X144525856Y-84278628D01*
X143049666Y-84754819D02*
X143525856Y-84754819D01*
X143525856Y-84754819D02*
X143525856Y-83754819D01*
X142763951Y-83850057D02*
X142716332Y-83802438D01*
X142716332Y-83802438D02*
X142621094Y-83754819D01*
X142621094Y-83754819D02*
X142382999Y-83754819D01*
X142382999Y-83754819D02*
X142287761Y-83802438D01*
X142287761Y-83802438D02*
X142240142Y-83850057D01*
X142240142Y-83850057D02*
X142192523Y-83945295D01*
X142192523Y-83945295D02*
X142192523Y-84040533D01*
X142192523Y-84040533D02*
X142240142Y-84183390D01*
X142240142Y-84183390D02*
X142811570Y-84754819D01*
X142811570Y-84754819D02*
X142192523Y-84754819D01*
D10*
X143557800Y-126402732D02*
X143595895Y-126517018D01*
X143595895Y-126517018D02*
X143595895Y-126707494D01*
X143595895Y-126707494D02*
X143557800Y-126783685D01*
X143557800Y-126783685D02*
X143519704Y-126821780D01*
X143519704Y-126821780D02*
X143443514Y-126859875D01*
X143443514Y-126859875D02*
X143367323Y-126859875D01*
X143367323Y-126859875D02*
X143291133Y-126821780D01*
X143291133Y-126821780D02*
X143253038Y-126783685D01*
X143253038Y-126783685D02*
X143214942Y-126707494D01*
X143214942Y-126707494D02*
X143176847Y-126555113D01*
X143176847Y-126555113D02*
X143138752Y-126478923D01*
X143138752Y-126478923D02*
X143100657Y-126440828D01*
X143100657Y-126440828D02*
X143024466Y-126402732D01*
X143024466Y-126402732D02*
X142948276Y-126402732D01*
X142948276Y-126402732D02*
X142872085Y-126440828D01*
X142872085Y-126440828D02*
X142833990Y-126478923D01*
X142833990Y-126478923D02*
X142795895Y-126555113D01*
X142795895Y-126555113D02*
X142795895Y-126745590D01*
X142795895Y-126745590D02*
X142833990Y-126859875D01*
X142795895Y-127126542D02*
X143595895Y-127317018D01*
X143595895Y-127317018D02*
X143024466Y-127469399D01*
X143024466Y-127469399D02*
X143595895Y-127621780D01*
X143595895Y-127621780D02*
X142795895Y-127812257D01*
X143595895Y-128536066D02*
X143595895Y-128078923D01*
X143595895Y-128307495D02*
X142795895Y-128307495D01*
X142795895Y-128307495D02*
X142910180Y-128231304D01*
X142910180Y-128231304D02*
X142986371Y-128155114D01*
X142986371Y-128155114D02*
X143024466Y-128078923D01*
X130381125Y-103424761D02*
X130076363Y-103424761D01*
X130266839Y-103158095D02*
X130266839Y-103843809D01*
X130266839Y-103843809D02*
X130228744Y-103920000D01*
X130228744Y-103920000D02*
X130152554Y-103958095D01*
X130152554Y-103958095D02*
X130076363Y-103958095D01*
X129695411Y-103958095D02*
X129771601Y-103920000D01*
X129771601Y-103920000D02*
X129809696Y-103881904D01*
X129809696Y-103881904D02*
X129847792Y-103805714D01*
X129847792Y-103805714D02*
X129847792Y-103577142D01*
X129847792Y-103577142D02*
X129809696Y-103500952D01*
X129809696Y-103500952D02*
X129771601Y-103462857D01*
X129771601Y-103462857D02*
X129695411Y-103424761D01*
X129695411Y-103424761D02*
X129581125Y-103424761D01*
X129581125Y-103424761D02*
X129504934Y-103462857D01*
X129504934Y-103462857D02*
X129466839Y-103500952D01*
X129466839Y-103500952D02*
X129428744Y-103577142D01*
X129428744Y-103577142D02*
X129428744Y-103805714D01*
X129428744Y-103805714D02*
X129466839Y-103881904D01*
X129466839Y-103881904D02*
X129504934Y-103920000D01*
X129504934Y-103920000D02*
X129581125Y-103958095D01*
X129581125Y-103958095D02*
X129695411Y-103958095D01*
X128590648Y-103158095D02*
X128133505Y-103158095D01*
X128362077Y-103958095D02*
X128362077Y-103158095D01*
X127943029Y-103158095D02*
X127409695Y-103958095D01*
X127409695Y-103158095D02*
X127943029Y-103958095D01*
X127104933Y-103958095D02*
X127104933Y-103158095D01*
X127104933Y-103158095D02*
X126914457Y-103158095D01*
X126914457Y-103158095D02*
X126800171Y-103196190D01*
X126800171Y-103196190D02*
X126723981Y-103272380D01*
X126723981Y-103272380D02*
X126685886Y-103348571D01*
X126685886Y-103348571D02*
X126647790Y-103500952D01*
X126647790Y-103500952D02*
X126647790Y-103615238D01*
X126647790Y-103615238D02*
X126685886Y-103767619D01*
X126685886Y-103767619D02*
X126723981Y-103843809D01*
X126723981Y-103843809D02*
X126800171Y-103920000D01*
X126800171Y-103920000D02*
X126914457Y-103958095D01*
X126914457Y-103958095D02*
X127104933Y-103958095D01*
X145947800Y-126382732D02*
X145985895Y-126497018D01*
X145985895Y-126497018D02*
X145985895Y-126687494D01*
X145985895Y-126687494D02*
X145947800Y-126763685D01*
X145947800Y-126763685D02*
X145909704Y-126801780D01*
X145909704Y-126801780D02*
X145833514Y-126839875D01*
X145833514Y-126839875D02*
X145757323Y-126839875D01*
X145757323Y-126839875D02*
X145681133Y-126801780D01*
X145681133Y-126801780D02*
X145643038Y-126763685D01*
X145643038Y-126763685D02*
X145604942Y-126687494D01*
X145604942Y-126687494D02*
X145566847Y-126535113D01*
X145566847Y-126535113D02*
X145528752Y-126458923D01*
X145528752Y-126458923D02*
X145490657Y-126420828D01*
X145490657Y-126420828D02*
X145414466Y-126382732D01*
X145414466Y-126382732D02*
X145338276Y-126382732D01*
X145338276Y-126382732D02*
X145262085Y-126420828D01*
X145262085Y-126420828D02*
X145223990Y-126458923D01*
X145223990Y-126458923D02*
X145185895Y-126535113D01*
X145185895Y-126535113D02*
X145185895Y-126725590D01*
X145185895Y-126725590D02*
X145223990Y-126839875D01*
X145185895Y-127106542D02*
X145985895Y-127297018D01*
X145985895Y-127297018D02*
X145414466Y-127449399D01*
X145414466Y-127449399D02*
X145985895Y-127601780D01*
X145985895Y-127601780D02*
X145185895Y-127792257D01*
X145262085Y-128058923D02*
X145223990Y-128097019D01*
X145223990Y-128097019D02*
X145185895Y-128173209D01*
X145185895Y-128173209D02*
X145185895Y-128363685D01*
X145185895Y-128363685D02*
X145223990Y-128439876D01*
X145223990Y-128439876D02*
X145262085Y-128477971D01*
X145262085Y-128477971D02*
X145338276Y-128516066D01*
X145338276Y-128516066D02*
X145414466Y-128516066D01*
X145414466Y-128516066D02*
X145528752Y-128477971D01*
X145528752Y-128477971D02*
X145985895Y-128020828D01*
X145985895Y-128020828D02*
X145985895Y-128516066D01*
X155763990Y-126869876D02*
X155725895Y-126793686D01*
X155725895Y-126793686D02*
X155725895Y-126679400D01*
X155725895Y-126679400D02*
X155763990Y-126565114D01*
X155763990Y-126565114D02*
X155840180Y-126488924D01*
X155840180Y-126488924D02*
X155916371Y-126450829D01*
X155916371Y-126450829D02*
X156068752Y-126412733D01*
X156068752Y-126412733D02*
X156183038Y-126412733D01*
X156183038Y-126412733D02*
X156335419Y-126450829D01*
X156335419Y-126450829D02*
X156411609Y-126488924D01*
X156411609Y-126488924D02*
X156487800Y-126565114D01*
X156487800Y-126565114D02*
X156525895Y-126679400D01*
X156525895Y-126679400D02*
X156525895Y-126755591D01*
X156525895Y-126755591D02*
X156487800Y-126869876D01*
X156487800Y-126869876D02*
X156449704Y-126907972D01*
X156449704Y-126907972D02*
X156183038Y-126907972D01*
X156183038Y-126907972D02*
X156183038Y-126755591D01*
X156525895Y-127250829D02*
X155725895Y-127250829D01*
X155725895Y-127250829D02*
X156525895Y-127707972D01*
X156525895Y-127707972D02*
X155725895Y-127707972D01*
X156525895Y-128088924D02*
X155725895Y-128088924D01*
X155725895Y-128088924D02*
X155725895Y-128279400D01*
X155725895Y-128279400D02*
X155763990Y-128393686D01*
X155763990Y-128393686D02*
X155840180Y-128469876D01*
X155840180Y-128469876D02*
X155916371Y-128507971D01*
X155916371Y-128507971D02*
X156068752Y-128546067D01*
X156068752Y-128546067D02*
X156183038Y-128546067D01*
X156183038Y-128546067D02*
X156335419Y-128507971D01*
X156335419Y-128507971D02*
X156411609Y-128469876D01*
X156411609Y-128469876D02*
X156487800Y-128393686D01*
X156487800Y-128393686D02*
X156525895Y-128279400D01*
X156525895Y-128279400D02*
X156525895Y-128088924D01*
X151197800Y-126370828D02*
X151235895Y-126485114D01*
X151235895Y-126485114D02*
X151235895Y-126675590D01*
X151235895Y-126675590D02*
X151197800Y-126751781D01*
X151197800Y-126751781D02*
X151159704Y-126789876D01*
X151159704Y-126789876D02*
X151083514Y-126827971D01*
X151083514Y-126827971D02*
X151007323Y-126827971D01*
X151007323Y-126827971D02*
X150931133Y-126789876D01*
X150931133Y-126789876D02*
X150893038Y-126751781D01*
X150893038Y-126751781D02*
X150854942Y-126675590D01*
X150854942Y-126675590D02*
X150816847Y-126523209D01*
X150816847Y-126523209D02*
X150778752Y-126447019D01*
X150778752Y-126447019D02*
X150740657Y-126408924D01*
X150740657Y-126408924D02*
X150664466Y-126370828D01*
X150664466Y-126370828D02*
X150588276Y-126370828D01*
X150588276Y-126370828D02*
X150512085Y-126408924D01*
X150512085Y-126408924D02*
X150473990Y-126447019D01*
X150473990Y-126447019D02*
X150435895Y-126523209D01*
X150435895Y-126523209D02*
X150435895Y-126713686D01*
X150435895Y-126713686D02*
X150473990Y-126827971D01*
X151235895Y-127170829D02*
X150435895Y-127170829D01*
X150435895Y-127170829D02*
X151235895Y-127627972D01*
X151235895Y-127627972D02*
X150435895Y-127627972D01*
X150512085Y-127970828D02*
X150473990Y-128008924D01*
X150473990Y-128008924D02*
X150435895Y-128085114D01*
X150435895Y-128085114D02*
X150435895Y-128275590D01*
X150435895Y-128275590D02*
X150473990Y-128351781D01*
X150473990Y-128351781D02*
X150512085Y-128389876D01*
X150512085Y-128389876D02*
X150588276Y-128427971D01*
X150588276Y-128427971D02*
X150664466Y-128427971D01*
X150664466Y-128427971D02*
X150778752Y-128389876D01*
X150778752Y-128389876D02*
X151235895Y-127932733D01*
X151235895Y-127932733D02*
X151235895Y-128427971D01*
D11*
X159285504Y-83669238D02*
X159380742Y-83621619D01*
X159380742Y-83621619D02*
X159523599Y-83621619D01*
X159523599Y-83621619D02*
X159666456Y-83669238D01*
X159666456Y-83669238D02*
X159761694Y-83764476D01*
X159761694Y-83764476D02*
X159809313Y-83859714D01*
X159809313Y-83859714D02*
X159856932Y-84050190D01*
X159856932Y-84050190D02*
X159856932Y-84193047D01*
X159856932Y-84193047D02*
X159809313Y-84383523D01*
X159809313Y-84383523D02*
X159761694Y-84478761D01*
X159761694Y-84478761D02*
X159666456Y-84574000D01*
X159666456Y-84574000D02*
X159523599Y-84621619D01*
X159523599Y-84621619D02*
X159428361Y-84621619D01*
X159428361Y-84621619D02*
X159285504Y-84574000D01*
X159285504Y-84574000D02*
X159237885Y-84526380D01*
X159237885Y-84526380D02*
X159237885Y-84193047D01*
X159237885Y-84193047D02*
X159428361Y-84193047D01*
X158809313Y-84621619D02*
X158809313Y-83621619D01*
X158809313Y-83621619D02*
X158237885Y-84621619D01*
X158237885Y-84621619D02*
X158237885Y-83621619D01*
X157761694Y-84621619D02*
X157761694Y-83621619D01*
X157761694Y-83621619D02*
X157523599Y-83621619D01*
X157523599Y-83621619D02*
X157380742Y-83669238D01*
X157380742Y-83669238D02*
X157285504Y-83764476D01*
X157285504Y-83764476D02*
X157237885Y-83859714D01*
X157237885Y-83859714D02*
X157190266Y-84050190D01*
X157190266Y-84050190D02*
X157190266Y-84193047D01*
X157190266Y-84193047D02*
X157237885Y-84383523D01*
X157237885Y-84383523D02*
X157285504Y-84478761D01*
X157285504Y-84478761D02*
X157380742Y-84574000D01*
X157380742Y-84574000D02*
X157523599Y-84621619D01*
X157523599Y-84621619D02*
X157761694Y-84621619D01*
D10*
X148587800Y-126370828D02*
X148625895Y-126485114D01*
X148625895Y-126485114D02*
X148625895Y-126675590D01*
X148625895Y-126675590D02*
X148587800Y-126751781D01*
X148587800Y-126751781D02*
X148549704Y-126789876D01*
X148549704Y-126789876D02*
X148473514Y-126827971D01*
X148473514Y-126827971D02*
X148397323Y-126827971D01*
X148397323Y-126827971D02*
X148321133Y-126789876D01*
X148321133Y-126789876D02*
X148283038Y-126751781D01*
X148283038Y-126751781D02*
X148244942Y-126675590D01*
X148244942Y-126675590D02*
X148206847Y-126523209D01*
X148206847Y-126523209D02*
X148168752Y-126447019D01*
X148168752Y-126447019D02*
X148130657Y-126408924D01*
X148130657Y-126408924D02*
X148054466Y-126370828D01*
X148054466Y-126370828D02*
X147978276Y-126370828D01*
X147978276Y-126370828D02*
X147902085Y-126408924D01*
X147902085Y-126408924D02*
X147863990Y-126447019D01*
X147863990Y-126447019D02*
X147825895Y-126523209D01*
X147825895Y-126523209D02*
X147825895Y-126713686D01*
X147825895Y-126713686D02*
X147863990Y-126827971D01*
X148625895Y-127170829D02*
X147825895Y-127170829D01*
X147825895Y-127170829D02*
X148625895Y-127627972D01*
X148625895Y-127627972D02*
X147825895Y-127627972D01*
X148625895Y-128427971D02*
X148625895Y-127970828D01*
X148625895Y-128199400D02*
X147825895Y-128199400D01*
X147825895Y-128199400D02*
X147940180Y-128123209D01*
X147940180Y-128123209D02*
X148016371Y-128047019D01*
X148016371Y-128047019D02*
X148054466Y-127970828D01*
D11*
X161823563Y-90368937D02*
X161636619Y-90431251D01*
X161636619Y-90431251D02*
X161325046Y-90431251D01*
X161325046Y-90431251D02*
X161200416Y-90368937D01*
X161200416Y-90368937D02*
X161138102Y-90306622D01*
X161138102Y-90306622D02*
X161075787Y-90181993D01*
X161075787Y-90181993D02*
X161075787Y-90057363D01*
X161075787Y-90057363D02*
X161138102Y-89932734D01*
X161138102Y-89932734D02*
X161200416Y-89870419D01*
X161200416Y-89870419D02*
X161325046Y-89808105D01*
X161325046Y-89808105D02*
X161574304Y-89745790D01*
X161574304Y-89745790D02*
X161698934Y-89683475D01*
X161698934Y-89683475D02*
X161761248Y-89621161D01*
X161761248Y-89621161D02*
X161823563Y-89496531D01*
X161823563Y-89496531D02*
X161823563Y-89371902D01*
X161823563Y-89371902D02*
X161761248Y-89247273D01*
X161761248Y-89247273D02*
X161698934Y-89184958D01*
X161698934Y-89184958D02*
X161574304Y-89122643D01*
X161574304Y-89122643D02*
X161262731Y-89122643D01*
X161262731Y-89122643D02*
X161075787Y-89184958D01*
X160514955Y-90431251D02*
X160514955Y-89122643D01*
X160514955Y-89745790D02*
X159767179Y-89745790D01*
X159767179Y-90431251D02*
X159767179Y-89122643D01*
X159144032Y-90306622D02*
X159081718Y-90368937D01*
X159081718Y-90368937D02*
X159144032Y-90431251D01*
X159144032Y-90431251D02*
X159206347Y-90368937D01*
X159206347Y-90368937D02*
X159144032Y-90306622D01*
X159144032Y-90306622D02*
X159144032Y-90431251D01*
X158520885Y-90431251D02*
X158520885Y-89122643D01*
X158520885Y-89122643D02*
X158084683Y-90057363D01*
X158084683Y-90057363D02*
X157648480Y-89122643D01*
X157648480Y-89122643D02*
X157648480Y-90431251D01*
X156589131Y-89745790D02*
X156402187Y-89808105D01*
X156402187Y-89808105D02*
X156339872Y-89870419D01*
X156339872Y-89870419D02*
X156277557Y-89995049D01*
X156277557Y-89995049D02*
X156277557Y-90181993D01*
X156277557Y-90181993D02*
X156339872Y-90306622D01*
X156339872Y-90306622D02*
X156402187Y-90368937D01*
X156402187Y-90368937D02*
X156526816Y-90431251D01*
X156526816Y-90431251D02*
X157025333Y-90431251D01*
X157025333Y-90431251D02*
X157025333Y-89122643D01*
X157025333Y-89122643D02*
X156589131Y-89122643D01*
X156589131Y-89122643D02*
X156464501Y-89184958D01*
X156464501Y-89184958D02*
X156402187Y-89247273D01*
X156402187Y-89247273D02*
X156339872Y-89371902D01*
X156339872Y-89371902D02*
X156339872Y-89496531D01*
X156339872Y-89496531D02*
X156402187Y-89621161D01*
X156402187Y-89621161D02*
X156464501Y-89683475D01*
X156464501Y-89683475D02*
X156589131Y-89745790D01*
X156589131Y-89745790D02*
X157025333Y-89745790D01*
X155716725Y-90306622D02*
X155654411Y-90368937D01*
X155654411Y-90368937D02*
X155716725Y-90431251D01*
X155716725Y-90431251D02*
X155779040Y-90368937D01*
X155779040Y-90368937D02*
X155716725Y-90306622D01*
X155716725Y-90306622D02*
X155716725Y-90431251D01*
X155155893Y-89247273D02*
X155093578Y-89184958D01*
X155093578Y-89184958D02*
X154968949Y-89122643D01*
X154968949Y-89122643D02*
X154657376Y-89122643D01*
X154657376Y-89122643D02*
X154532746Y-89184958D01*
X154532746Y-89184958D02*
X154470432Y-89247273D01*
X154470432Y-89247273D02*
X154408117Y-89371902D01*
X154408117Y-89371902D02*
X154408117Y-89496531D01*
X154408117Y-89496531D02*
X154470432Y-89683475D01*
X154470432Y-89683475D02*
X155218208Y-90431251D01*
X155218208Y-90431251D02*
X154408117Y-90431251D01*
X153099509Y-90431251D02*
X153535712Y-89808105D01*
X153847285Y-90431251D02*
X153847285Y-89122643D01*
X153847285Y-89122643D02*
X153348768Y-89122643D01*
X153348768Y-89122643D02*
X153224139Y-89184958D01*
X153224139Y-89184958D02*
X153161824Y-89247273D01*
X153161824Y-89247273D02*
X153099509Y-89371902D01*
X153099509Y-89371902D02*
X153099509Y-89558846D01*
X153099509Y-89558846D02*
X153161824Y-89683475D01*
X153161824Y-89683475D02*
X153224139Y-89745790D01*
X153224139Y-89745790D02*
X153348768Y-89808105D01*
X153348768Y-89808105D02*
X153847285Y-89808105D01*
X151915531Y-90431251D02*
X152538677Y-90431251D01*
X152538677Y-90431251D02*
X152538677Y-89122643D01*
X150482293Y-89745790D02*
X150046091Y-89745790D01*
X149859147Y-90431251D02*
X150482293Y-90431251D01*
X150482293Y-90431251D02*
X150482293Y-89122643D01*
X150482293Y-89122643D02*
X149859147Y-89122643D01*
X149360629Y-90368937D02*
X149173685Y-90431251D01*
X149173685Y-90431251D02*
X148862112Y-90431251D01*
X148862112Y-90431251D02*
X148737482Y-90368937D01*
X148737482Y-90368937D02*
X148675168Y-90306622D01*
X148675168Y-90306622D02*
X148612853Y-90181993D01*
X148612853Y-90181993D02*
X148612853Y-90057363D01*
X148612853Y-90057363D02*
X148675168Y-89932734D01*
X148675168Y-89932734D02*
X148737482Y-89870419D01*
X148737482Y-89870419D02*
X148862112Y-89808105D01*
X148862112Y-89808105D02*
X149111370Y-89745790D01*
X149111370Y-89745790D02*
X149236000Y-89683475D01*
X149236000Y-89683475D02*
X149298314Y-89621161D01*
X149298314Y-89621161D02*
X149360629Y-89496531D01*
X149360629Y-89496531D02*
X149360629Y-89371902D01*
X149360629Y-89371902D02*
X149298314Y-89247273D01*
X149298314Y-89247273D02*
X149236000Y-89184958D01*
X149236000Y-89184958D02*
X149111370Y-89122643D01*
X149111370Y-89122643D02*
X148799797Y-89122643D01*
X148799797Y-89122643D02*
X148612853Y-89184958D01*
X148052021Y-90431251D02*
X148052021Y-89122643D01*
X148052021Y-89122643D02*
X147553504Y-89122643D01*
X147553504Y-89122643D02*
X147428875Y-89184958D01*
X147428875Y-89184958D02*
X147366560Y-89247273D01*
X147366560Y-89247273D02*
X147304245Y-89371902D01*
X147304245Y-89371902D02*
X147304245Y-89558846D01*
X147304245Y-89558846D02*
X147366560Y-89683475D01*
X147366560Y-89683475D02*
X147428875Y-89745790D01*
X147428875Y-89745790D02*
X147553504Y-89808105D01*
X147553504Y-89808105D02*
X148052021Y-89808105D01*
X146057952Y-90431251D02*
X146805728Y-90431251D01*
X146431840Y-90431251D02*
X146431840Y-89122643D01*
X146431840Y-89122643D02*
X146556469Y-89309587D01*
X146556469Y-89309587D02*
X146681099Y-89434217D01*
X146681099Y-89434217D02*
X146805728Y-89496531D01*
X145497120Y-90431251D02*
X145497120Y-89122643D01*
X145497120Y-89122643D02*
X145060918Y-90057363D01*
X145060918Y-90057363D02*
X144624715Y-89122643D01*
X144624715Y-89122643D02*
X144624715Y-90431251D01*
X143129163Y-89558846D02*
X142817589Y-90431251D01*
X142817589Y-90431251D02*
X142506016Y-89558846D01*
X142007498Y-90306622D02*
X141945184Y-90368937D01*
X141945184Y-90368937D02*
X142007498Y-90431251D01*
X142007498Y-90431251D02*
X142069813Y-90368937D01*
X142069813Y-90368937D02*
X142007498Y-90306622D01*
X142007498Y-90306622D02*
X142007498Y-90431251D01*
X141508981Y-89122643D02*
X140636575Y-89122643D01*
X140636575Y-89122643D02*
X141197407Y-90431251D01*
X161892990Y-122447443D02*
X161768360Y-122447443D01*
X161768360Y-122447443D02*
X161643731Y-122509758D01*
X161643731Y-122509758D02*
X161581416Y-122572073D01*
X161581416Y-122572073D02*
X161519102Y-122696702D01*
X161519102Y-122696702D02*
X161456787Y-122945961D01*
X161456787Y-122945961D02*
X161456787Y-123257534D01*
X161456787Y-123257534D02*
X161519102Y-123506793D01*
X161519102Y-123506793D02*
X161581416Y-123631422D01*
X161581416Y-123631422D02*
X161643731Y-123693737D01*
X161643731Y-123693737D02*
X161768360Y-123756051D01*
X161768360Y-123756051D02*
X161892990Y-123756051D01*
X161892990Y-123756051D02*
X162017619Y-123693737D01*
X162017619Y-123693737D02*
X162079934Y-123631422D01*
X162079934Y-123631422D02*
X162142248Y-123506793D01*
X162142248Y-123506793D02*
X162204563Y-123257534D01*
X162204563Y-123257534D02*
X162204563Y-122945961D01*
X162204563Y-122945961D02*
X162142248Y-122696702D01*
X162142248Y-122696702D02*
X162079934Y-122572073D01*
X162079934Y-122572073D02*
X162017619Y-122509758D01*
X162017619Y-122509758D02*
X161892990Y-122447443D01*
X160958270Y-122572073D02*
X160895955Y-122509758D01*
X160895955Y-122509758D02*
X160771326Y-122447443D01*
X160771326Y-122447443D02*
X160459753Y-122447443D01*
X160459753Y-122447443D02*
X160335123Y-122509758D01*
X160335123Y-122509758D02*
X160272809Y-122572073D01*
X160272809Y-122572073D02*
X160210494Y-122696702D01*
X160210494Y-122696702D02*
X160210494Y-122821331D01*
X160210494Y-122821331D02*
X160272809Y-123008275D01*
X160272809Y-123008275D02*
X161020585Y-123756051D01*
X161020585Y-123756051D02*
X160210494Y-123756051D01*
X159649662Y-123631422D02*
X159587348Y-123693737D01*
X159587348Y-123693737D02*
X159649662Y-123756051D01*
X159649662Y-123756051D02*
X159711977Y-123693737D01*
X159711977Y-123693737D02*
X159649662Y-123631422D01*
X159649662Y-123631422D02*
X159649662Y-123756051D01*
X159088830Y-122572073D02*
X159026515Y-122509758D01*
X159026515Y-122509758D02*
X158901886Y-122447443D01*
X158901886Y-122447443D02*
X158590313Y-122447443D01*
X158590313Y-122447443D02*
X158465683Y-122509758D01*
X158465683Y-122509758D02*
X158403369Y-122572073D01*
X158403369Y-122572073D02*
X158341054Y-122696702D01*
X158341054Y-122696702D02*
X158341054Y-122821331D01*
X158341054Y-122821331D02*
X158403369Y-123008275D01*
X158403369Y-123008275D02*
X159151145Y-123756051D01*
X159151145Y-123756051D02*
X158341054Y-123756051D01*
X157530964Y-122447443D02*
X157406334Y-122447443D01*
X157406334Y-122447443D02*
X157281705Y-122509758D01*
X157281705Y-122509758D02*
X157219390Y-122572073D01*
X157219390Y-122572073D02*
X157157076Y-122696702D01*
X157157076Y-122696702D02*
X157094761Y-122945961D01*
X157094761Y-122945961D02*
X157094761Y-123257534D01*
X157094761Y-123257534D02*
X157157076Y-123506793D01*
X157157076Y-123506793D02*
X157219390Y-123631422D01*
X157219390Y-123631422D02*
X157281705Y-123693737D01*
X157281705Y-123693737D02*
X157406334Y-123756051D01*
X157406334Y-123756051D02*
X157530964Y-123756051D01*
X157530964Y-123756051D02*
X157655593Y-123693737D01*
X157655593Y-123693737D02*
X157717908Y-123631422D01*
X157717908Y-123631422D02*
X157780222Y-123506793D01*
X157780222Y-123506793D02*
X157842537Y-123257534D01*
X157842537Y-123257534D02*
X157842537Y-122945961D01*
X157842537Y-122945961D02*
X157780222Y-122696702D01*
X157780222Y-122696702D02*
X157717908Y-122572073D01*
X157717908Y-122572073D02*
X157655593Y-122509758D01*
X157655593Y-122509758D02*
X157530964Y-122447443D01*
X156596244Y-122572073D02*
X156533929Y-122509758D01*
X156533929Y-122509758D02*
X156409300Y-122447443D01*
X156409300Y-122447443D02*
X156097727Y-122447443D01*
X156097727Y-122447443D02*
X155973097Y-122509758D01*
X155973097Y-122509758D02*
X155910783Y-122572073D01*
X155910783Y-122572073D02*
X155848468Y-122696702D01*
X155848468Y-122696702D02*
X155848468Y-122821331D01*
X155848468Y-122821331D02*
X155910783Y-123008275D01*
X155910783Y-123008275D02*
X156658559Y-123756051D01*
X156658559Y-123756051D02*
X155848468Y-123756051D01*
X154664490Y-122447443D02*
X155287636Y-122447443D01*
X155287636Y-122447443D02*
X155349951Y-123070590D01*
X155349951Y-123070590D02*
X155287636Y-123008275D01*
X155287636Y-123008275D02*
X155163007Y-122945961D01*
X155163007Y-122945961D02*
X154851434Y-122945961D01*
X154851434Y-122945961D02*
X154726804Y-123008275D01*
X154726804Y-123008275D02*
X154664490Y-123070590D01*
X154664490Y-123070590D02*
X154602175Y-123195219D01*
X154602175Y-123195219D02*
X154602175Y-123506793D01*
X154602175Y-123506793D02*
X154664490Y-123631422D01*
X154664490Y-123631422D02*
X154726804Y-123693737D01*
X154726804Y-123693737D02*
X154851434Y-123756051D01*
X154851434Y-123756051D02*
X155163007Y-123756051D01*
X155163007Y-123756051D02*
X155287636Y-123693737D01*
X155287636Y-123693737D02*
X155349951Y-123631422D01*
X161950563Y-121400963D02*
X161327416Y-121400963D01*
X162075192Y-121774851D02*
X161638990Y-120466243D01*
X161638990Y-120466243D02*
X161202787Y-121774851D01*
X160330382Y-121089390D02*
X160143438Y-121151705D01*
X160143438Y-121151705D02*
X160081123Y-121214019D01*
X160081123Y-121214019D02*
X160018808Y-121338649D01*
X160018808Y-121338649D02*
X160018808Y-121525593D01*
X160018808Y-121525593D02*
X160081123Y-121650222D01*
X160081123Y-121650222D02*
X160143438Y-121712537D01*
X160143438Y-121712537D02*
X160268067Y-121774851D01*
X160268067Y-121774851D02*
X160766584Y-121774851D01*
X160766584Y-121774851D02*
X160766584Y-120466243D01*
X160766584Y-120466243D02*
X160330382Y-120466243D01*
X160330382Y-120466243D02*
X160205752Y-120528558D01*
X160205752Y-120528558D02*
X160143438Y-120590873D01*
X160143438Y-120590873D02*
X160081123Y-120715502D01*
X160081123Y-120715502D02*
X160081123Y-120840131D01*
X160081123Y-120840131D02*
X160143438Y-120964761D01*
X160143438Y-120964761D02*
X160205752Y-121027075D01*
X160205752Y-121027075D02*
X160330382Y-121089390D01*
X160330382Y-121089390D02*
X160766584Y-121089390D01*
X159457976Y-121089390D02*
X159021774Y-121089390D01*
X158834830Y-121774851D02*
X159457976Y-121774851D01*
X159457976Y-121774851D02*
X159457976Y-120466243D01*
X159457976Y-120466243D02*
X158834830Y-120466243D01*
X157650851Y-121774851D02*
X158273997Y-121774851D01*
X158273997Y-121774851D02*
X158273997Y-120466243D01*
D10*
X141007800Y-126352732D02*
X141045895Y-126467018D01*
X141045895Y-126467018D02*
X141045895Y-126657494D01*
X141045895Y-126657494D02*
X141007800Y-126733685D01*
X141007800Y-126733685D02*
X140969704Y-126771780D01*
X140969704Y-126771780D02*
X140893514Y-126809875D01*
X140893514Y-126809875D02*
X140817323Y-126809875D01*
X140817323Y-126809875D02*
X140741133Y-126771780D01*
X140741133Y-126771780D02*
X140703038Y-126733685D01*
X140703038Y-126733685D02*
X140664942Y-126657494D01*
X140664942Y-126657494D02*
X140626847Y-126505113D01*
X140626847Y-126505113D02*
X140588752Y-126428923D01*
X140588752Y-126428923D02*
X140550657Y-126390828D01*
X140550657Y-126390828D02*
X140474466Y-126352732D01*
X140474466Y-126352732D02*
X140398276Y-126352732D01*
X140398276Y-126352732D02*
X140322085Y-126390828D01*
X140322085Y-126390828D02*
X140283990Y-126428923D01*
X140283990Y-126428923D02*
X140245895Y-126505113D01*
X140245895Y-126505113D02*
X140245895Y-126695590D01*
X140245895Y-126695590D02*
X140283990Y-126809875D01*
X140245895Y-127076542D02*
X141045895Y-127267018D01*
X141045895Y-127267018D02*
X140474466Y-127419399D01*
X140474466Y-127419399D02*
X141045895Y-127571780D01*
X141045895Y-127571780D02*
X140245895Y-127762257D01*
X140245895Y-127990828D02*
X140245895Y-128486066D01*
X140245895Y-128486066D02*
X140550657Y-128219400D01*
X140550657Y-128219400D02*
X140550657Y-128333685D01*
X140550657Y-128333685D02*
X140588752Y-128409876D01*
X140588752Y-128409876D02*
X140626847Y-128447971D01*
X140626847Y-128447971D02*
X140703038Y-128486066D01*
X140703038Y-128486066D02*
X140893514Y-128486066D01*
X140893514Y-128486066D02*
X140969704Y-128447971D01*
X140969704Y-128447971D02*
X141007800Y-128409876D01*
X141007800Y-128409876D02*
X141045895Y-128333685D01*
X141045895Y-128333685D02*
X141045895Y-128105114D01*
X141045895Y-128105114D02*
X141007800Y-128028923D01*
X141007800Y-128028923D02*
X140969704Y-127990828D01*
D11*
X139077628Y-84754819D02*
X139410961Y-84278628D01*
X139649056Y-84754819D02*
X139649056Y-83754819D01*
X139649056Y-83754819D02*
X139268104Y-83754819D01*
X139268104Y-83754819D02*
X139172866Y-83802438D01*
X139172866Y-83802438D02*
X139125247Y-83850057D01*
X139125247Y-83850057D02*
X139077628Y-83945295D01*
X139077628Y-83945295D02*
X139077628Y-84088152D01*
X139077628Y-84088152D02*
X139125247Y-84183390D01*
X139125247Y-84183390D02*
X139172866Y-84231009D01*
X139172866Y-84231009D02*
X139268104Y-84278628D01*
X139268104Y-84278628D02*
X139649056Y-84278628D01*
X138172866Y-84754819D02*
X138649056Y-84754819D01*
X138649056Y-84754819D02*
X138649056Y-83754819D01*
X137315723Y-84754819D02*
X137887151Y-84754819D01*
X137601437Y-84754819D02*
X137601437Y-83754819D01*
X137601437Y-83754819D02*
X137696675Y-83897676D01*
X137696675Y-83897676D02*
X137791913Y-83992914D01*
X137791913Y-83992914D02*
X137887151Y-84040533D01*
D12*
X148327162Y-111792739D02*
X148289200Y-111830967D01*
X148289200Y-111830967D02*
X148251504Y-111945385D01*
X148251504Y-111945385D02*
X148251770Y-112021575D01*
X148251770Y-112021575D02*
X148290264Y-112135727D01*
X148290264Y-112135727D02*
X148366720Y-112211651D01*
X148366720Y-112211651D02*
X148443043Y-112249481D01*
X148443043Y-112249481D02*
X148595556Y-112287044D01*
X148595556Y-112287044D02*
X148709841Y-112286645D01*
X148709841Y-112286645D02*
X148862088Y-112248018D01*
X148862088Y-112248018D02*
X148938145Y-112209657D01*
X148938145Y-112209657D02*
X149014069Y-112133201D01*
X149014069Y-112133201D02*
X149051765Y-112018783D01*
X149051765Y-112018783D02*
X149051499Y-111942593D01*
X149051499Y-111942593D02*
X149013005Y-111828441D01*
X149013005Y-111828441D02*
X148974777Y-111790479D01*
X148781908Y-111105434D02*
X148248578Y-111107295D01*
X149087333Y-111294845D02*
X148516573Y-111487314D01*
X148516573Y-111487314D02*
X148514844Y-110992079D01*
X150679085Y-120684695D02*
X150945752Y-120303742D01*
X151136228Y-120684695D02*
X151136228Y-119884695D01*
X151136228Y-119884695D02*
X150831466Y-119884695D01*
X150831466Y-119884695D02*
X150755276Y-119922790D01*
X150755276Y-119922790D02*
X150717181Y-119960885D01*
X150717181Y-119960885D02*
X150679085Y-120037076D01*
X150679085Y-120037076D02*
X150679085Y-120151361D01*
X150679085Y-120151361D02*
X150717181Y-120227552D01*
X150717181Y-120227552D02*
X150755276Y-120265647D01*
X150755276Y-120265647D02*
X150831466Y-120303742D01*
X150831466Y-120303742D02*
X151136228Y-120303742D01*
X149917181Y-120684695D02*
X150374324Y-120684695D01*
X150145752Y-120684695D02*
X150145752Y-119884695D01*
X150145752Y-119884695D02*
X150221943Y-119998980D01*
X150221943Y-119998980D02*
X150298133Y-120075171D01*
X150298133Y-120075171D02*
X150374324Y-120113266D01*
X149650514Y-119884695D02*
X149155276Y-119884695D01*
X149155276Y-119884695D02*
X149421942Y-120189457D01*
X149421942Y-120189457D02*
X149307657Y-120189457D01*
X149307657Y-120189457D02*
X149231466Y-120227552D01*
X149231466Y-120227552D02*
X149193371Y-120265647D01*
X149193371Y-120265647D02*
X149155276Y-120341838D01*
X149155276Y-120341838D02*
X149155276Y-120532314D01*
X149155276Y-120532314D02*
X149193371Y-120608504D01*
X149193371Y-120608504D02*
X149231466Y-120646600D01*
X149231466Y-120646600D02*
X149307657Y-120684695D01*
X149307657Y-120684695D02*
X149536228Y-120684695D01*
X149536228Y-120684695D02*
X149612419Y-120646600D01*
X149612419Y-120646600D02*
X149650514Y-120608504D01*
X156854295Y-113988971D02*
X156054295Y-113988971D01*
X156054295Y-113988971D02*
X156054295Y-114179447D01*
X156054295Y-114179447D02*
X156092390Y-114293733D01*
X156092390Y-114293733D02*
X156168580Y-114369923D01*
X156168580Y-114369923D02*
X156244771Y-114408018D01*
X156244771Y-114408018D02*
X156397152Y-114446114D01*
X156397152Y-114446114D02*
X156511438Y-114446114D01*
X156511438Y-114446114D02*
X156663819Y-114408018D01*
X156663819Y-114408018D02*
X156740009Y-114369923D01*
X156740009Y-114369923D02*
X156816200Y-114293733D01*
X156816200Y-114293733D02*
X156854295Y-114179447D01*
X156854295Y-114179447D02*
X156854295Y-113988971D01*
X156854295Y-115208018D02*
X156854295Y-114750875D01*
X156854295Y-114979447D02*
X156054295Y-114979447D01*
X156054295Y-114979447D02*
X156168580Y-114903256D01*
X156168580Y-114903256D02*
X156244771Y-114827066D01*
X156244771Y-114827066D02*
X156282866Y-114750875D01*
X156054295Y-115474685D02*
X156054295Y-115969923D01*
X156054295Y-115969923D02*
X156359057Y-115703257D01*
X156359057Y-115703257D02*
X156359057Y-115817542D01*
X156359057Y-115817542D02*
X156397152Y-115893733D01*
X156397152Y-115893733D02*
X156435247Y-115931828D01*
X156435247Y-115931828D02*
X156511438Y-115969923D01*
X156511438Y-115969923D02*
X156701914Y-115969923D01*
X156701914Y-115969923D02*
X156778104Y-115931828D01*
X156778104Y-115931828D02*
X156816200Y-115893733D01*
X156816200Y-115893733D02*
X156854295Y-115817542D01*
X156854295Y-115817542D02*
X156854295Y-115588971D01*
X156854295Y-115588971D02*
X156816200Y-115512780D01*
X156816200Y-115512780D02*
X156778104Y-115474685D01*
X135515285Y-124342304D02*
X135553381Y-124380400D01*
X135553381Y-124380400D02*
X135667666Y-124418495D01*
X135667666Y-124418495D02*
X135743857Y-124418495D01*
X135743857Y-124418495D02*
X135858143Y-124380400D01*
X135858143Y-124380400D02*
X135934333Y-124304209D01*
X135934333Y-124304209D02*
X135972428Y-124228019D01*
X135972428Y-124228019D02*
X136010524Y-124075638D01*
X136010524Y-124075638D02*
X136010524Y-123961352D01*
X136010524Y-123961352D02*
X135972428Y-123808971D01*
X135972428Y-123808971D02*
X135934333Y-123732780D01*
X135934333Y-123732780D02*
X135858143Y-123656590D01*
X135858143Y-123656590D02*
X135743857Y-123618495D01*
X135743857Y-123618495D02*
X135667666Y-123618495D01*
X135667666Y-123618495D02*
X135553381Y-123656590D01*
X135553381Y-123656590D02*
X135515285Y-123694685D01*
X134753381Y-124418495D02*
X135210524Y-124418495D01*
X134981952Y-124418495D02*
X134981952Y-123618495D01*
X134981952Y-123618495D02*
X135058143Y-123732780D01*
X135058143Y-123732780D02*
X135134333Y-123808971D01*
X135134333Y-123808971D02*
X135210524Y-123847066D01*
X134067666Y-123885161D02*
X134067666Y-124418495D01*
X134258142Y-123580400D02*
X134448619Y-124151828D01*
X134448619Y-124151828D02*
X133953380Y-124151828D01*
X158045085Y-111820095D02*
X158311752Y-111439142D01*
X158502228Y-111820095D02*
X158502228Y-111020095D01*
X158502228Y-111020095D02*
X158197466Y-111020095D01*
X158197466Y-111020095D02*
X158121276Y-111058190D01*
X158121276Y-111058190D02*
X158083181Y-111096285D01*
X158083181Y-111096285D02*
X158045085Y-111172476D01*
X158045085Y-111172476D02*
X158045085Y-111286761D01*
X158045085Y-111286761D02*
X158083181Y-111362952D01*
X158083181Y-111362952D02*
X158121276Y-111401047D01*
X158121276Y-111401047D02*
X158197466Y-111439142D01*
X158197466Y-111439142D02*
X158502228Y-111439142D01*
X157283181Y-111820095D02*
X157740324Y-111820095D01*
X157511752Y-111820095D02*
X157511752Y-111020095D01*
X157511752Y-111020095D02*
X157587943Y-111134380D01*
X157587943Y-111134380D02*
X157664133Y-111210571D01*
X157664133Y-111210571D02*
X157740324Y-111248666D01*
X156787942Y-111020095D02*
X156711752Y-111020095D01*
X156711752Y-111020095D02*
X156635561Y-111058190D01*
X156635561Y-111058190D02*
X156597466Y-111096285D01*
X156597466Y-111096285D02*
X156559371Y-111172476D01*
X156559371Y-111172476D02*
X156521276Y-111324857D01*
X156521276Y-111324857D02*
X156521276Y-111515333D01*
X156521276Y-111515333D02*
X156559371Y-111667714D01*
X156559371Y-111667714D02*
X156597466Y-111743904D01*
X156597466Y-111743904D02*
X156635561Y-111782000D01*
X156635561Y-111782000D02*
X156711752Y-111820095D01*
X156711752Y-111820095D02*
X156787942Y-111820095D01*
X156787942Y-111820095D02*
X156864133Y-111782000D01*
X156864133Y-111782000D02*
X156902228Y-111743904D01*
X156902228Y-111743904D02*
X156940323Y-111667714D01*
X156940323Y-111667714D02*
X156978419Y-111515333D01*
X156978419Y-111515333D02*
X156978419Y-111324857D01*
X156978419Y-111324857D02*
X156940323Y-111172476D01*
X156940323Y-111172476D02*
X156902228Y-111096285D01*
X156902228Y-111096285D02*
X156864133Y-111058190D01*
X156864133Y-111058190D02*
X156787942Y-111020095D01*
X160791304Y-114623914D02*
X160829400Y-114585818D01*
X160829400Y-114585818D02*
X160867495Y-114471533D01*
X160867495Y-114471533D02*
X160867495Y-114395342D01*
X160867495Y-114395342D02*
X160829400Y-114281056D01*
X160829400Y-114281056D02*
X160753209Y-114204866D01*
X160753209Y-114204866D02*
X160677019Y-114166771D01*
X160677019Y-114166771D02*
X160524638Y-114128675D01*
X160524638Y-114128675D02*
X160410352Y-114128675D01*
X160410352Y-114128675D02*
X160257971Y-114166771D01*
X160257971Y-114166771D02*
X160181780Y-114204866D01*
X160181780Y-114204866D02*
X160105590Y-114281056D01*
X160105590Y-114281056D02*
X160067495Y-114395342D01*
X160067495Y-114395342D02*
X160067495Y-114471533D01*
X160067495Y-114471533D02*
X160105590Y-114585818D01*
X160105590Y-114585818D02*
X160143685Y-114623914D01*
X160867495Y-115385818D02*
X160867495Y-114928675D01*
X160867495Y-115157247D02*
X160067495Y-115157247D01*
X160067495Y-115157247D02*
X160181780Y-115081056D01*
X160181780Y-115081056D02*
X160257971Y-115004866D01*
X160257971Y-115004866D02*
X160296066Y-114928675D01*
X160067495Y-116071533D02*
X160067495Y-115919152D01*
X160067495Y-115919152D02*
X160105590Y-115842961D01*
X160105590Y-115842961D02*
X160143685Y-115804866D01*
X160143685Y-115804866D02*
X160257971Y-115728676D01*
X160257971Y-115728676D02*
X160410352Y-115690580D01*
X160410352Y-115690580D02*
X160715114Y-115690580D01*
X160715114Y-115690580D02*
X160791304Y-115728676D01*
X160791304Y-115728676D02*
X160829400Y-115766771D01*
X160829400Y-115766771D02*
X160867495Y-115842961D01*
X160867495Y-115842961D02*
X160867495Y-115995342D01*
X160867495Y-115995342D02*
X160829400Y-116071533D01*
X160829400Y-116071533D02*
X160791304Y-116109628D01*
X160791304Y-116109628D02*
X160715114Y-116147723D01*
X160715114Y-116147723D02*
X160524638Y-116147723D01*
X160524638Y-116147723D02*
X160448447Y-116109628D01*
X160448447Y-116109628D02*
X160410352Y-116071533D01*
X160410352Y-116071533D02*
X160372257Y-115995342D01*
X160372257Y-115995342D02*
X160372257Y-115842961D01*
X160372257Y-115842961D02*
X160410352Y-115766771D01*
X160410352Y-115766771D02*
X160448447Y-115728676D01*
X160448447Y-115728676D02*
X160524638Y-115690580D01*
X131349675Y-115452295D02*
X131349675Y-114652295D01*
X131349675Y-114652295D02*
X131159199Y-114652295D01*
X131159199Y-114652295D02*
X131044913Y-114690390D01*
X131044913Y-114690390D02*
X130968723Y-114766580D01*
X130968723Y-114766580D02*
X130930628Y-114842771D01*
X130930628Y-114842771D02*
X130892532Y-114995152D01*
X130892532Y-114995152D02*
X130892532Y-115109438D01*
X130892532Y-115109438D02*
X130930628Y-115261819D01*
X130930628Y-115261819D02*
X130968723Y-115338009D01*
X130968723Y-115338009D02*
X131044913Y-115414200D01*
X131044913Y-115414200D02*
X131159199Y-115452295D01*
X131159199Y-115452295D02*
X131349675Y-115452295D01*
X130511580Y-115452295D02*
X130359199Y-115452295D01*
X130359199Y-115452295D02*
X130283009Y-115414200D01*
X130283009Y-115414200D02*
X130244913Y-115376104D01*
X130244913Y-115376104D02*
X130168723Y-115261819D01*
X130168723Y-115261819D02*
X130130628Y-115109438D01*
X130130628Y-115109438D02*
X130130628Y-114804676D01*
X130130628Y-114804676D02*
X130168723Y-114728485D01*
X130168723Y-114728485D02*
X130206818Y-114690390D01*
X130206818Y-114690390D02*
X130283009Y-114652295D01*
X130283009Y-114652295D02*
X130435390Y-114652295D01*
X130435390Y-114652295D02*
X130511580Y-114690390D01*
X130511580Y-114690390D02*
X130549675Y-114728485D01*
X130549675Y-114728485D02*
X130587771Y-114804676D01*
X130587771Y-114804676D02*
X130587771Y-114995152D01*
X130587771Y-114995152D02*
X130549675Y-115071342D01*
X130549675Y-115071342D02*
X130511580Y-115109438D01*
X130511580Y-115109438D02*
X130435390Y-115147533D01*
X130435390Y-115147533D02*
X130283009Y-115147533D01*
X130283009Y-115147533D02*
X130206818Y-115109438D01*
X130206818Y-115109438D02*
X130168723Y-115071342D01*
X130168723Y-115071342D02*
X130130628Y-114995152D01*
X154057332Y-105876504D02*
X154095428Y-105914600D01*
X154095428Y-105914600D02*
X154209713Y-105952695D01*
X154209713Y-105952695D02*
X154285904Y-105952695D01*
X154285904Y-105952695D02*
X154400190Y-105914600D01*
X154400190Y-105914600D02*
X154476380Y-105838409D01*
X154476380Y-105838409D02*
X154514475Y-105762219D01*
X154514475Y-105762219D02*
X154552571Y-105609838D01*
X154552571Y-105609838D02*
X154552571Y-105495552D01*
X154552571Y-105495552D02*
X154514475Y-105343171D01*
X154514475Y-105343171D02*
X154476380Y-105266980D01*
X154476380Y-105266980D02*
X154400190Y-105190790D01*
X154400190Y-105190790D02*
X154285904Y-105152695D01*
X154285904Y-105152695D02*
X154209713Y-105152695D01*
X154209713Y-105152695D02*
X154095428Y-105190790D01*
X154095428Y-105190790D02*
X154057332Y-105228885D01*
X153790666Y-105152695D02*
X153257332Y-105152695D01*
X153257332Y-105152695D02*
X153600190Y-105952695D01*
X158886295Y-114776314D02*
X158505342Y-114509647D01*
X158886295Y-114319171D02*
X158086295Y-114319171D01*
X158086295Y-114319171D02*
X158086295Y-114623933D01*
X158086295Y-114623933D02*
X158124390Y-114700123D01*
X158124390Y-114700123D02*
X158162485Y-114738218D01*
X158162485Y-114738218D02*
X158238676Y-114776314D01*
X158238676Y-114776314D02*
X158352961Y-114776314D01*
X158352961Y-114776314D02*
X158429152Y-114738218D01*
X158429152Y-114738218D02*
X158467247Y-114700123D01*
X158467247Y-114700123D02*
X158505342Y-114623933D01*
X158505342Y-114623933D02*
X158505342Y-114319171D01*
X158886295Y-115538218D02*
X158886295Y-115081075D01*
X158886295Y-115309647D02*
X158086295Y-115309647D01*
X158086295Y-115309647D02*
X158200580Y-115233456D01*
X158200580Y-115233456D02*
X158276771Y-115157266D01*
X158276771Y-115157266D02*
X158314866Y-115081075D01*
X158086295Y-116262028D02*
X158086295Y-115881076D01*
X158086295Y-115881076D02*
X158467247Y-115842980D01*
X158467247Y-115842980D02*
X158429152Y-115881076D01*
X158429152Y-115881076D02*
X158391057Y-115957266D01*
X158391057Y-115957266D02*
X158391057Y-116147742D01*
X158391057Y-116147742D02*
X158429152Y-116223933D01*
X158429152Y-116223933D02*
X158467247Y-116262028D01*
X158467247Y-116262028D02*
X158543438Y-116300123D01*
X158543438Y-116300123D02*
X158733914Y-116300123D01*
X158733914Y-116300123D02*
X158810104Y-116262028D01*
X158810104Y-116262028D02*
X158848200Y-116223933D01*
X158848200Y-116223933D02*
X158886295Y-116147742D01*
X158886295Y-116147742D02*
X158886295Y-115957266D01*
X158886295Y-115957266D02*
X158848200Y-115881076D01*
X158848200Y-115881076D02*
X158810104Y-115842980D01*
X144506875Y-105520895D02*
X144506875Y-104720895D01*
X144506875Y-104720895D02*
X144316399Y-104720895D01*
X144316399Y-104720895D02*
X144202113Y-104758990D01*
X144202113Y-104758990D02*
X144125923Y-104835180D01*
X144125923Y-104835180D02*
X144087828Y-104911371D01*
X144087828Y-104911371D02*
X144049732Y-105063752D01*
X144049732Y-105063752D02*
X144049732Y-105178038D01*
X144049732Y-105178038D02*
X144087828Y-105330419D01*
X144087828Y-105330419D02*
X144125923Y-105406609D01*
X144125923Y-105406609D02*
X144202113Y-105482800D01*
X144202113Y-105482800D02*
X144316399Y-105520895D01*
X144316399Y-105520895D02*
X144506875Y-105520895D01*
X143744971Y-104797085D02*
X143706875Y-104758990D01*
X143706875Y-104758990D02*
X143630685Y-104720895D01*
X143630685Y-104720895D02*
X143440209Y-104720895D01*
X143440209Y-104720895D02*
X143364018Y-104758990D01*
X143364018Y-104758990D02*
X143325923Y-104797085D01*
X143325923Y-104797085D02*
X143287828Y-104873276D01*
X143287828Y-104873276D02*
X143287828Y-104949466D01*
X143287828Y-104949466D02*
X143325923Y-105063752D01*
X143325923Y-105063752D02*
X143783066Y-105520895D01*
X143783066Y-105520895D02*
X143287828Y-105520895D01*
X135515275Y-105393895D02*
X135515275Y-104593895D01*
X135515275Y-104593895D02*
X135324799Y-104593895D01*
X135324799Y-104593895D02*
X135210513Y-104631990D01*
X135210513Y-104631990D02*
X135134323Y-104708180D01*
X135134323Y-104708180D02*
X135096228Y-104784371D01*
X135096228Y-104784371D02*
X135058132Y-104936752D01*
X135058132Y-104936752D02*
X135058132Y-105051038D01*
X135058132Y-105051038D02*
X135096228Y-105203419D01*
X135096228Y-105203419D02*
X135134323Y-105279609D01*
X135134323Y-105279609D02*
X135210513Y-105355800D01*
X135210513Y-105355800D02*
X135324799Y-105393895D01*
X135324799Y-105393895D02*
X135515275Y-105393895D01*
X134296228Y-105393895D02*
X134753371Y-105393895D01*
X134524799Y-105393895D02*
X134524799Y-104593895D01*
X134524799Y-104593895D02*
X134600990Y-104708180D01*
X134600990Y-104708180D02*
X134677180Y-104784371D01*
X134677180Y-104784371D02*
X134753371Y-104822466D01*
X138461732Y-99450295D02*
X138728399Y-99069342D01*
X138918875Y-99450295D02*
X138918875Y-98650295D01*
X138918875Y-98650295D02*
X138614113Y-98650295D01*
X138614113Y-98650295D02*
X138537923Y-98688390D01*
X138537923Y-98688390D02*
X138499828Y-98726485D01*
X138499828Y-98726485D02*
X138461732Y-98802676D01*
X138461732Y-98802676D02*
X138461732Y-98916961D01*
X138461732Y-98916961D02*
X138499828Y-98993152D01*
X138499828Y-98993152D02*
X138537923Y-99031247D01*
X138537923Y-99031247D02*
X138614113Y-99069342D01*
X138614113Y-99069342D02*
X138918875Y-99069342D01*
X137776018Y-98650295D02*
X137928399Y-98650295D01*
X137928399Y-98650295D02*
X138004590Y-98688390D01*
X138004590Y-98688390D02*
X138042685Y-98726485D01*
X138042685Y-98726485D02*
X138118875Y-98840771D01*
X138118875Y-98840771D02*
X138156971Y-98993152D01*
X138156971Y-98993152D02*
X138156971Y-99297914D01*
X138156971Y-99297914D02*
X138118875Y-99374104D01*
X138118875Y-99374104D02*
X138080780Y-99412200D01*
X138080780Y-99412200D02*
X138004590Y-99450295D01*
X138004590Y-99450295D02*
X137852209Y-99450295D01*
X137852209Y-99450295D02*
X137776018Y-99412200D01*
X137776018Y-99412200D02*
X137737923Y-99374104D01*
X137737923Y-99374104D02*
X137699828Y-99297914D01*
X137699828Y-99297914D02*
X137699828Y-99107438D01*
X137699828Y-99107438D02*
X137737923Y-99031247D01*
X137737923Y-99031247D02*
X137776018Y-98993152D01*
X137776018Y-98993152D02*
X137852209Y-98955057D01*
X137852209Y-98955057D02*
X138004590Y-98955057D01*
X138004590Y-98955057D02*
X138080780Y-98993152D01*
X138080780Y-98993152D02*
X138118875Y-99031247D01*
X138118875Y-99031247D02*
X138156971Y-99107438D01*
X140442932Y-99450295D02*
X140709599Y-99069342D01*
X140900075Y-99450295D02*
X140900075Y-98650295D01*
X140900075Y-98650295D02*
X140595313Y-98650295D01*
X140595313Y-98650295D02*
X140519123Y-98688390D01*
X140519123Y-98688390D02*
X140481028Y-98726485D01*
X140481028Y-98726485D02*
X140442932Y-98802676D01*
X140442932Y-98802676D02*
X140442932Y-98916961D01*
X140442932Y-98916961D02*
X140481028Y-98993152D01*
X140481028Y-98993152D02*
X140519123Y-99031247D01*
X140519123Y-99031247D02*
X140595313Y-99069342D01*
X140595313Y-99069342D02*
X140900075Y-99069342D01*
X140176266Y-98650295D02*
X139642932Y-98650295D01*
X139642932Y-98650295D02*
X139985790Y-99450295D01*
X128860485Y-115426895D02*
X129127152Y-115045942D01*
X129317628Y-115426895D02*
X129317628Y-114626895D01*
X129317628Y-114626895D02*
X129012866Y-114626895D01*
X129012866Y-114626895D02*
X128936676Y-114664990D01*
X128936676Y-114664990D02*
X128898581Y-114703085D01*
X128898581Y-114703085D02*
X128860485Y-114779276D01*
X128860485Y-114779276D02*
X128860485Y-114893561D01*
X128860485Y-114893561D02*
X128898581Y-114969752D01*
X128898581Y-114969752D02*
X128936676Y-115007847D01*
X128936676Y-115007847D02*
X129012866Y-115045942D01*
X129012866Y-115045942D02*
X129317628Y-115045942D01*
X128555724Y-114703085D02*
X128517628Y-114664990D01*
X128517628Y-114664990D02*
X128441438Y-114626895D01*
X128441438Y-114626895D02*
X128250962Y-114626895D01*
X128250962Y-114626895D02*
X128174771Y-114664990D01*
X128174771Y-114664990D02*
X128136676Y-114703085D01*
X128136676Y-114703085D02*
X128098581Y-114779276D01*
X128098581Y-114779276D02*
X128098581Y-114855466D01*
X128098581Y-114855466D02*
X128136676Y-114969752D01*
X128136676Y-114969752D02*
X128593819Y-115426895D01*
X128593819Y-115426895D02*
X128098581Y-115426895D01*
X127412866Y-114626895D02*
X127565247Y-114626895D01*
X127565247Y-114626895D02*
X127641438Y-114664990D01*
X127641438Y-114664990D02*
X127679533Y-114703085D01*
X127679533Y-114703085D02*
X127755723Y-114817371D01*
X127755723Y-114817371D02*
X127793819Y-114969752D01*
X127793819Y-114969752D02*
X127793819Y-115274514D01*
X127793819Y-115274514D02*
X127755723Y-115350704D01*
X127755723Y-115350704D02*
X127717628Y-115388800D01*
X127717628Y-115388800D02*
X127641438Y-115426895D01*
X127641438Y-115426895D02*
X127489057Y-115426895D01*
X127489057Y-115426895D02*
X127412866Y-115388800D01*
X127412866Y-115388800D02*
X127374771Y-115350704D01*
X127374771Y-115350704D02*
X127336676Y-115274514D01*
X127336676Y-115274514D02*
X127336676Y-115084038D01*
X127336676Y-115084038D02*
X127374771Y-115007847D01*
X127374771Y-115007847D02*
X127412866Y-114969752D01*
X127412866Y-114969752D02*
X127489057Y-114931657D01*
X127489057Y-114931657D02*
X127641438Y-114931657D01*
X127641438Y-114931657D02*
X127717628Y-114969752D01*
X127717628Y-114969752D02*
X127755723Y-115007847D01*
X127755723Y-115007847D02*
X127793819Y-115084038D01*
X130971695Y-98291667D02*
X130590742Y-98025000D01*
X130971695Y-97834524D02*
X130171695Y-97834524D01*
X130171695Y-97834524D02*
X130171695Y-98139286D01*
X130171695Y-98139286D02*
X130209790Y-98215476D01*
X130209790Y-98215476D02*
X130247885Y-98253571D01*
X130247885Y-98253571D02*
X130324076Y-98291667D01*
X130324076Y-98291667D02*
X130438361Y-98291667D01*
X130438361Y-98291667D02*
X130514552Y-98253571D01*
X130514552Y-98253571D02*
X130552647Y-98215476D01*
X130552647Y-98215476D02*
X130590742Y-98139286D01*
X130590742Y-98139286D02*
X130590742Y-97834524D01*
X130171695Y-98558333D02*
X130171695Y-99053571D01*
X130171695Y-99053571D02*
X130476457Y-98786905D01*
X130476457Y-98786905D02*
X130476457Y-98901190D01*
X130476457Y-98901190D02*
X130514552Y-98977381D01*
X130514552Y-98977381D02*
X130552647Y-99015476D01*
X130552647Y-99015476D02*
X130628838Y-99053571D01*
X130628838Y-99053571D02*
X130819314Y-99053571D01*
X130819314Y-99053571D02*
X130895504Y-99015476D01*
X130895504Y-99015476D02*
X130933600Y-98977381D01*
X130933600Y-98977381D02*
X130971695Y-98901190D01*
X130971695Y-98901190D02*
X130971695Y-98672619D01*
X130971695Y-98672619D02*
X130933600Y-98596428D01*
X130933600Y-98596428D02*
X130895504Y-98558333D01*
X132543532Y-119719495D02*
X132810199Y-119338542D01*
X133000675Y-119719495D02*
X133000675Y-118919495D01*
X133000675Y-118919495D02*
X132695913Y-118919495D01*
X132695913Y-118919495D02*
X132619723Y-118957590D01*
X132619723Y-118957590D02*
X132581628Y-118995685D01*
X132581628Y-118995685D02*
X132543532Y-119071876D01*
X132543532Y-119071876D02*
X132543532Y-119186161D01*
X132543532Y-119186161D02*
X132581628Y-119262352D01*
X132581628Y-119262352D02*
X132619723Y-119300447D01*
X132619723Y-119300447D02*
X132695913Y-119338542D01*
X132695913Y-119338542D02*
X133000675Y-119338542D01*
X132238771Y-118995685D02*
X132200675Y-118957590D01*
X132200675Y-118957590D02*
X132124485Y-118919495D01*
X132124485Y-118919495D02*
X131934009Y-118919495D01*
X131934009Y-118919495D02*
X131857818Y-118957590D01*
X131857818Y-118957590D02*
X131819723Y-118995685D01*
X131819723Y-118995685D02*
X131781628Y-119071876D01*
X131781628Y-119071876D02*
X131781628Y-119148066D01*
X131781628Y-119148066D02*
X131819723Y-119262352D01*
X131819723Y-119262352D02*
X132276866Y-119719495D01*
X132276866Y-119719495D02*
X131781628Y-119719495D01*
X144170390Y-99450285D02*
X144246580Y-99412190D01*
X144246580Y-99412190D02*
X144322771Y-99336000D01*
X144322771Y-99336000D02*
X144437057Y-99221714D01*
X144437057Y-99221714D02*
X144513247Y-99183619D01*
X144513247Y-99183619D02*
X144589438Y-99183619D01*
X144551342Y-99374095D02*
X144627533Y-99336000D01*
X144627533Y-99336000D02*
X144703723Y-99259809D01*
X144703723Y-99259809D02*
X144741819Y-99107428D01*
X144741819Y-99107428D02*
X144741819Y-98840761D01*
X144741819Y-98840761D02*
X144703723Y-98688380D01*
X144703723Y-98688380D02*
X144627533Y-98612190D01*
X144627533Y-98612190D02*
X144551342Y-98574095D01*
X144551342Y-98574095D02*
X144398961Y-98574095D01*
X144398961Y-98574095D02*
X144322771Y-98612190D01*
X144322771Y-98612190D02*
X144246580Y-98688380D01*
X144246580Y-98688380D02*
X144208485Y-98840761D01*
X144208485Y-98840761D02*
X144208485Y-99107428D01*
X144208485Y-99107428D02*
X144246580Y-99259809D01*
X144246580Y-99259809D02*
X144322771Y-99336000D01*
X144322771Y-99336000D02*
X144398961Y-99374095D01*
X144398961Y-99374095D02*
X144551342Y-99374095D01*
X143903724Y-98650285D02*
X143865628Y-98612190D01*
X143865628Y-98612190D02*
X143789438Y-98574095D01*
X143789438Y-98574095D02*
X143598962Y-98574095D01*
X143598962Y-98574095D02*
X143522771Y-98612190D01*
X143522771Y-98612190D02*
X143484676Y-98650285D01*
X143484676Y-98650285D02*
X143446581Y-98726476D01*
X143446581Y-98726476D02*
X143446581Y-98802666D01*
X143446581Y-98802666D02*
X143484676Y-98916952D01*
X143484676Y-98916952D02*
X143941819Y-99374095D01*
X143941819Y-99374095D02*
X143446581Y-99374095D01*
X161154495Y-106978514D02*
X160773542Y-106711847D01*
X161154495Y-106521371D02*
X160354495Y-106521371D01*
X160354495Y-106521371D02*
X160354495Y-106826133D01*
X160354495Y-106826133D02*
X160392590Y-106902323D01*
X160392590Y-106902323D02*
X160430685Y-106940418D01*
X160430685Y-106940418D02*
X160506876Y-106978514D01*
X160506876Y-106978514D02*
X160621161Y-106978514D01*
X160621161Y-106978514D02*
X160697352Y-106940418D01*
X160697352Y-106940418D02*
X160735447Y-106902323D01*
X160735447Y-106902323D02*
X160773542Y-106826133D01*
X160773542Y-106826133D02*
X160773542Y-106521371D01*
X161154495Y-107740418D02*
X161154495Y-107283275D01*
X161154495Y-107511847D02*
X160354495Y-107511847D01*
X160354495Y-107511847D02*
X160468780Y-107435656D01*
X160468780Y-107435656D02*
X160544971Y-107359466D01*
X160544971Y-107359466D02*
X160583066Y-107283275D01*
X161154495Y-108121371D02*
X161154495Y-108273752D01*
X161154495Y-108273752D02*
X161116400Y-108349942D01*
X161116400Y-108349942D02*
X161078304Y-108388038D01*
X161078304Y-108388038D02*
X160964019Y-108464228D01*
X160964019Y-108464228D02*
X160811638Y-108502323D01*
X160811638Y-108502323D02*
X160506876Y-108502323D01*
X160506876Y-108502323D02*
X160430685Y-108464228D01*
X160430685Y-108464228D02*
X160392590Y-108426133D01*
X160392590Y-108426133D02*
X160354495Y-108349942D01*
X160354495Y-108349942D02*
X160354495Y-108197561D01*
X160354495Y-108197561D02*
X160392590Y-108121371D01*
X160392590Y-108121371D02*
X160430685Y-108083276D01*
X160430685Y-108083276D02*
X160506876Y-108045180D01*
X160506876Y-108045180D02*
X160697352Y-108045180D01*
X160697352Y-108045180D02*
X160773542Y-108083276D01*
X160773542Y-108083276D02*
X160811638Y-108121371D01*
X160811638Y-108121371D02*
X160849733Y-108197561D01*
X160849733Y-108197561D02*
X160849733Y-108349942D01*
X160849733Y-108349942D02*
X160811638Y-108426133D01*
X160811638Y-108426133D02*
X160773542Y-108464228D01*
X160773542Y-108464228D02*
X160697352Y-108502323D01*
X168288495Y-92841724D02*
X167488495Y-92841724D01*
X167488495Y-92841724D02*
X167488495Y-93032200D01*
X167488495Y-93032200D02*
X167526590Y-93146486D01*
X167526590Y-93146486D02*
X167602780Y-93222676D01*
X167602780Y-93222676D02*
X167678971Y-93260771D01*
X167678971Y-93260771D02*
X167831352Y-93298867D01*
X167831352Y-93298867D02*
X167945638Y-93298867D01*
X167945638Y-93298867D02*
X168098019Y-93260771D01*
X168098019Y-93260771D02*
X168174209Y-93222676D01*
X168174209Y-93222676D02*
X168250400Y-93146486D01*
X168250400Y-93146486D02*
X168288495Y-93032200D01*
X168288495Y-93032200D02*
X168288495Y-92841724D01*
X167488495Y-93984581D02*
X167488495Y-93832200D01*
X167488495Y-93832200D02*
X167526590Y-93756009D01*
X167526590Y-93756009D02*
X167564685Y-93717914D01*
X167564685Y-93717914D02*
X167678971Y-93641724D01*
X167678971Y-93641724D02*
X167831352Y-93603628D01*
X167831352Y-93603628D02*
X168136114Y-93603628D01*
X168136114Y-93603628D02*
X168212304Y-93641724D01*
X168212304Y-93641724D02*
X168250400Y-93679819D01*
X168250400Y-93679819D02*
X168288495Y-93756009D01*
X168288495Y-93756009D02*
X168288495Y-93908390D01*
X168288495Y-93908390D02*
X168250400Y-93984581D01*
X168250400Y-93984581D02*
X168212304Y-94022676D01*
X168212304Y-94022676D02*
X168136114Y-94060771D01*
X168136114Y-94060771D02*
X167945638Y-94060771D01*
X167945638Y-94060771D02*
X167869447Y-94022676D01*
X167869447Y-94022676D02*
X167831352Y-93984581D01*
X167831352Y-93984581D02*
X167793257Y-93908390D01*
X167793257Y-93908390D02*
X167793257Y-93756009D01*
X167793257Y-93756009D02*
X167831352Y-93679819D01*
X167831352Y-93679819D02*
X167869447Y-93641724D01*
X167869447Y-93641724D02*
X167945638Y-93603628D01*
X151822132Y-105876504D02*
X151860228Y-105914600D01*
X151860228Y-105914600D02*
X151974513Y-105952695D01*
X151974513Y-105952695D02*
X152050704Y-105952695D01*
X152050704Y-105952695D02*
X152164990Y-105914600D01*
X152164990Y-105914600D02*
X152241180Y-105838409D01*
X152241180Y-105838409D02*
X152279275Y-105762219D01*
X152279275Y-105762219D02*
X152317371Y-105609838D01*
X152317371Y-105609838D02*
X152317371Y-105495552D01*
X152317371Y-105495552D02*
X152279275Y-105343171D01*
X152279275Y-105343171D02*
X152241180Y-105266980D01*
X152241180Y-105266980D02*
X152164990Y-105190790D01*
X152164990Y-105190790D02*
X152050704Y-105152695D01*
X152050704Y-105152695D02*
X151974513Y-105152695D01*
X151974513Y-105152695D02*
X151860228Y-105190790D01*
X151860228Y-105190790D02*
X151822132Y-105228885D01*
X151441180Y-105952695D02*
X151288799Y-105952695D01*
X151288799Y-105952695D02*
X151212609Y-105914600D01*
X151212609Y-105914600D02*
X151174513Y-105876504D01*
X151174513Y-105876504D02*
X151098323Y-105762219D01*
X151098323Y-105762219D02*
X151060228Y-105609838D01*
X151060228Y-105609838D02*
X151060228Y-105305076D01*
X151060228Y-105305076D02*
X151098323Y-105228885D01*
X151098323Y-105228885D02*
X151136418Y-105190790D01*
X151136418Y-105190790D02*
X151212609Y-105152695D01*
X151212609Y-105152695D02*
X151364990Y-105152695D01*
X151364990Y-105152695D02*
X151441180Y-105190790D01*
X151441180Y-105190790D02*
X151479275Y-105228885D01*
X151479275Y-105228885D02*
X151517371Y-105305076D01*
X151517371Y-105305076D02*
X151517371Y-105495552D01*
X151517371Y-105495552D02*
X151479275Y-105571742D01*
X151479275Y-105571742D02*
X151441180Y-105609838D01*
X151441180Y-105609838D02*
X151364990Y-105647933D01*
X151364990Y-105647933D02*
X151212609Y-105647933D01*
X151212609Y-105647933D02*
X151136418Y-105609838D01*
X151136418Y-105609838D02*
X151098323Y-105571742D01*
X151098323Y-105571742D02*
X151060228Y-105495552D01*
X156008817Y-102741495D02*
X156008817Y-101941495D01*
X156008817Y-101941495D02*
X155818341Y-101941495D01*
X155818341Y-101941495D02*
X155704055Y-101979590D01*
X155704055Y-101979590D02*
X155627865Y-102055780D01*
X155627865Y-102055780D02*
X155589770Y-102131971D01*
X155589770Y-102131971D02*
X155551674Y-102284352D01*
X155551674Y-102284352D02*
X155551674Y-102398638D01*
X155551674Y-102398638D02*
X155589770Y-102551019D01*
X155589770Y-102551019D02*
X155627865Y-102627209D01*
X155627865Y-102627209D02*
X155704055Y-102703400D01*
X155704055Y-102703400D02*
X155818341Y-102741495D01*
X155818341Y-102741495D02*
X156008817Y-102741495D01*
X154942151Y-102322447D02*
X154827865Y-102360542D01*
X154827865Y-102360542D02*
X154789770Y-102398638D01*
X154789770Y-102398638D02*
X154751674Y-102474828D01*
X154751674Y-102474828D02*
X154751674Y-102589114D01*
X154751674Y-102589114D02*
X154789770Y-102665304D01*
X154789770Y-102665304D02*
X154827865Y-102703400D01*
X154827865Y-102703400D02*
X154904055Y-102741495D01*
X154904055Y-102741495D02*
X155208817Y-102741495D01*
X155208817Y-102741495D02*
X155208817Y-101941495D01*
X155208817Y-101941495D02*
X154942151Y-101941495D01*
X154942151Y-101941495D02*
X154865960Y-101979590D01*
X154865960Y-101979590D02*
X154827865Y-102017685D01*
X154827865Y-102017685D02*
X154789770Y-102093876D01*
X154789770Y-102093876D02*
X154789770Y-102170066D01*
X154789770Y-102170066D02*
X154827865Y-102246257D01*
X154827865Y-102246257D02*
X154865960Y-102284352D01*
X154865960Y-102284352D02*
X154942151Y-102322447D01*
X154942151Y-102322447D02*
X155208817Y-102322447D01*
X153989770Y-102741495D02*
X154446913Y-102741495D01*
X154218341Y-102741495D02*
X154218341Y-101941495D01*
X154218341Y-101941495D02*
X154294532Y-102055780D01*
X154294532Y-102055780D02*
X154370722Y-102131971D01*
X154370722Y-102131971D02*
X154446913Y-102170066D01*
X129092095Y-98444067D02*
X128711142Y-98177400D01*
X129092095Y-97986924D02*
X128292095Y-97986924D01*
X128292095Y-97986924D02*
X128292095Y-98291686D01*
X128292095Y-98291686D02*
X128330190Y-98367876D01*
X128330190Y-98367876D02*
X128368285Y-98405971D01*
X128368285Y-98405971D02*
X128444476Y-98444067D01*
X128444476Y-98444067D02*
X128558761Y-98444067D01*
X128558761Y-98444067D02*
X128634952Y-98405971D01*
X128634952Y-98405971D02*
X128673047Y-98367876D01*
X128673047Y-98367876D02*
X128711142Y-98291686D01*
X128711142Y-98291686D02*
X128711142Y-97986924D01*
X129092095Y-99205971D02*
X129092095Y-98748828D01*
X129092095Y-98977400D02*
X128292095Y-98977400D01*
X128292095Y-98977400D02*
X128406380Y-98901209D01*
X128406380Y-98901209D02*
X128482571Y-98825019D01*
X128482571Y-98825019D02*
X128520666Y-98748828D01*
X132441885Y-107549304D02*
X132479981Y-107587400D01*
X132479981Y-107587400D02*
X132594266Y-107625495D01*
X132594266Y-107625495D02*
X132670457Y-107625495D01*
X132670457Y-107625495D02*
X132784743Y-107587400D01*
X132784743Y-107587400D02*
X132860933Y-107511209D01*
X132860933Y-107511209D02*
X132899028Y-107435019D01*
X132899028Y-107435019D02*
X132937124Y-107282638D01*
X132937124Y-107282638D02*
X132937124Y-107168352D01*
X132937124Y-107168352D02*
X132899028Y-107015971D01*
X132899028Y-107015971D02*
X132860933Y-106939780D01*
X132860933Y-106939780D02*
X132784743Y-106863590D01*
X132784743Y-106863590D02*
X132670457Y-106825495D01*
X132670457Y-106825495D02*
X132594266Y-106825495D01*
X132594266Y-106825495D02*
X132479981Y-106863590D01*
X132479981Y-106863590D02*
X132441885Y-106901685D01*
X131679981Y-107625495D02*
X132137124Y-107625495D01*
X131908552Y-107625495D02*
X131908552Y-106825495D01*
X131908552Y-106825495D02*
X131984743Y-106939780D01*
X131984743Y-106939780D02*
X132060933Y-107015971D01*
X132060933Y-107015971D02*
X132137124Y-107054066D01*
X130918076Y-107625495D02*
X131375219Y-107625495D01*
X131146647Y-107625495D02*
X131146647Y-106825495D01*
X131146647Y-106825495D02*
X131222838Y-106939780D01*
X131222838Y-106939780D02*
X131299028Y-107015971D01*
X131299028Y-107015971D02*
X131375219Y-107054066D01*
X154822295Y-113938171D02*
X154022295Y-113938171D01*
X154022295Y-113938171D02*
X154022295Y-114128647D01*
X154022295Y-114128647D02*
X154060390Y-114242933D01*
X154060390Y-114242933D02*
X154136580Y-114319123D01*
X154136580Y-114319123D02*
X154212771Y-114357218D01*
X154212771Y-114357218D02*
X154365152Y-114395314D01*
X154365152Y-114395314D02*
X154479438Y-114395314D01*
X154479438Y-114395314D02*
X154631819Y-114357218D01*
X154631819Y-114357218D02*
X154708009Y-114319123D01*
X154708009Y-114319123D02*
X154784200Y-114242933D01*
X154784200Y-114242933D02*
X154822295Y-114128647D01*
X154822295Y-114128647D02*
X154822295Y-113938171D01*
X154822295Y-115157218D02*
X154822295Y-114700075D01*
X154822295Y-114928647D02*
X154022295Y-114928647D01*
X154022295Y-114928647D02*
X154136580Y-114852456D01*
X154136580Y-114852456D02*
X154212771Y-114776266D01*
X154212771Y-114776266D02*
X154250866Y-114700075D01*
X154098485Y-115461980D02*
X154060390Y-115500076D01*
X154060390Y-115500076D02*
X154022295Y-115576266D01*
X154022295Y-115576266D02*
X154022295Y-115766742D01*
X154022295Y-115766742D02*
X154060390Y-115842933D01*
X154060390Y-115842933D02*
X154098485Y-115881028D01*
X154098485Y-115881028D02*
X154174676Y-115919123D01*
X154174676Y-115919123D02*
X154250866Y-115919123D01*
X154250866Y-115919123D02*
X154365152Y-115881028D01*
X154365152Y-115881028D02*
X154822295Y-115423885D01*
X154822295Y-115423885D02*
X154822295Y-115919123D01*
X153396932Y-111693095D02*
X153663599Y-111312142D01*
X153854075Y-111693095D02*
X153854075Y-110893095D01*
X153854075Y-110893095D02*
X153549313Y-110893095D01*
X153549313Y-110893095D02*
X153473123Y-110931190D01*
X153473123Y-110931190D02*
X153435028Y-110969285D01*
X153435028Y-110969285D02*
X153396932Y-111045476D01*
X153396932Y-111045476D02*
X153396932Y-111159761D01*
X153396932Y-111159761D02*
X153435028Y-111235952D01*
X153435028Y-111235952D02*
X153473123Y-111274047D01*
X153473123Y-111274047D02*
X153549313Y-111312142D01*
X153549313Y-111312142D02*
X153854075Y-111312142D01*
X153015980Y-111693095D02*
X152863599Y-111693095D01*
X152863599Y-111693095D02*
X152787409Y-111655000D01*
X152787409Y-111655000D02*
X152749313Y-111616904D01*
X152749313Y-111616904D02*
X152673123Y-111502619D01*
X152673123Y-111502619D02*
X152635028Y-111350238D01*
X152635028Y-111350238D02*
X152635028Y-111045476D01*
X152635028Y-111045476D02*
X152673123Y-110969285D01*
X152673123Y-110969285D02*
X152711218Y-110931190D01*
X152711218Y-110931190D02*
X152787409Y-110893095D01*
X152787409Y-110893095D02*
X152939790Y-110893095D01*
X152939790Y-110893095D02*
X153015980Y-110931190D01*
X153015980Y-110931190D02*
X153054075Y-110969285D01*
X153054075Y-110969285D02*
X153092171Y-111045476D01*
X153092171Y-111045476D02*
X153092171Y-111235952D01*
X153092171Y-111235952D02*
X153054075Y-111312142D01*
X153054075Y-111312142D02*
X153015980Y-111350238D01*
X153015980Y-111350238D02*
X152939790Y-111388333D01*
X152939790Y-111388333D02*
X152787409Y-111388333D01*
X152787409Y-111388333D02*
X152711218Y-111350238D01*
X152711218Y-111350238D02*
X152673123Y-111312142D01*
X152673123Y-111312142D02*
X152635028Y-111235952D01*
X139887095Y-120694571D02*
X139087095Y-120694571D01*
X139087095Y-120694571D02*
X139087095Y-120885047D01*
X139087095Y-120885047D02*
X139125190Y-120999333D01*
X139125190Y-120999333D02*
X139201380Y-121075523D01*
X139201380Y-121075523D02*
X139277571Y-121113618D01*
X139277571Y-121113618D02*
X139429952Y-121151714D01*
X139429952Y-121151714D02*
X139544238Y-121151714D01*
X139544238Y-121151714D02*
X139696619Y-121113618D01*
X139696619Y-121113618D02*
X139772809Y-121075523D01*
X139772809Y-121075523D02*
X139849000Y-120999333D01*
X139849000Y-120999333D02*
X139887095Y-120885047D01*
X139887095Y-120885047D02*
X139887095Y-120694571D01*
X139887095Y-121913618D02*
X139887095Y-121456475D01*
X139887095Y-121685047D02*
X139087095Y-121685047D01*
X139087095Y-121685047D02*
X139201380Y-121608856D01*
X139201380Y-121608856D02*
X139277571Y-121532666D01*
X139277571Y-121532666D02*
X139315666Y-121456475D01*
X139887095Y-122675523D02*
X139887095Y-122218380D01*
X139887095Y-122446952D02*
X139087095Y-122446952D01*
X139087095Y-122446952D02*
X139201380Y-122370761D01*
X139201380Y-122370761D02*
X139277571Y-122294571D01*
X139277571Y-122294571D02*
X139315666Y-122218380D01*
X147478685Y-120583104D02*
X147516781Y-120621200D01*
X147516781Y-120621200D02*
X147631066Y-120659295D01*
X147631066Y-120659295D02*
X147707257Y-120659295D01*
X147707257Y-120659295D02*
X147821543Y-120621200D01*
X147821543Y-120621200D02*
X147897733Y-120545009D01*
X147897733Y-120545009D02*
X147935828Y-120468819D01*
X147935828Y-120468819D02*
X147973924Y-120316438D01*
X147973924Y-120316438D02*
X147973924Y-120202152D01*
X147973924Y-120202152D02*
X147935828Y-120049771D01*
X147935828Y-120049771D02*
X147897733Y-119973580D01*
X147897733Y-119973580D02*
X147821543Y-119897390D01*
X147821543Y-119897390D02*
X147707257Y-119859295D01*
X147707257Y-119859295D02*
X147631066Y-119859295D01*
X147631066Y-119859295D02*
X147516781Y-119897390D01*
X147516781Y-119897390D02*
X147478685Y-119935485D01*
X146716781Y-120659295D02*
X147173924Y-120659295D01*
X146945352Y-120659295D02*
X146945352Y-119859295D01*
X146945352Y-119859295D02*
X147021543Y-119973580D01*
X147021543Y-119973580D02*
X147097733Y-120049771D01*
X147097733Y-120049771D02*
X147173924Y-120087866D01*
X145992971Y-119859295D02*
X146373923Y-119859295D01*
X146373923Y-119859295D02*
X146412019Y-120240247D01*
X146412019Y-120240247D02*
X146373923Y-120202152D01*
X146373923Y-120202152D02*
X146297733Y-120164057D01*
X146297733Y-120164057D02*
X146107257Y-120164057D01*
X146107257Y-120164057D02*
X146031066Y-120202152D01*
X146031066Y-120202152D02*
X145992971Y-120240247D01*
X145992971Y-120240247D02*
X145954876Y-120316438D01*
X145954876Y-120316438D02*
X145954876Y-120506914D01*
X145954876Y-120506914D02*
X145992971Y-120583104D01*
X145992971Y-120583104D02*
X146031066Y-120621200D01*
X146031066Y-120621200D02*
X146107257Y-120659295D01*
X146107257Y-120659295D02*
X146297733Y-120659295D01*
X146297733Y-120659295D02*
X146373923Y-120621200D01*
X146373923Y-120621200D02*
X146412019Y-120583104D01*
X133965828Y-115426895D02*
X133965828Y-114626895D01*
X133965828Y-114626895D02*
X133775352Y-114626895D01*
X133775352Y-114626895D02*
X133661066Y-114664990D01*
X133661066Y-114664990D02*
X133584876Y-114741180D01*
X133584876Y-114741180D02*
X133546781Y-114817371D01*
X133546781Y-114817371D02*
X133508685Y-114969752D01*
X133508685Y-114969752D02*
X133508685Y-115084038D01*
X133508685Y-115084038D02*
X133546781Y-115236419D01*
X133546781Y-115236419D02*
X133584876Y-115312609D01*
X133584876Y-115312609D02*
X133661066Y-115388800D01*
X133661066Y-115388800D02*
X133775352Y-115426895D01*
X133775352Y-115426895D02*
X133965828Y-115426895D01*
X132746781Y-115426895D02*
X133203924Y-115426895D01*
X132975352Y-115426895D02*
X132975352Y-114626895D01*
X132975352Y-114626895D02*
X133051543Y-114741180D01*
X133051543Y-114741180D02*
X133127733Y-114817371D01*
X133127733Y-114817371D02*
X133203924Y-114855466D01*
X132251542Y-114626895D02*
X132175352Y-114626895D01*
X132175352Y-114626895D02*
X132099161Y-114664990D01*
X132099161Y-114664990D02*
X132061066Y-114703085D01*
X132061066Y-114703085D02*
X132022971Y-114779276D01*
X132022971Y-114779276D02*
X131984876Y-114931657D01*
X131984876Y-114931657D02*
X131984876Y-115122133D01*
X131984876Y-115122133D02*
X132022971Y-115274514D01*
X132022971Y-115274514D02*
X132061066Y-115350704D01*
X132061066Y-115350704D02*
X132099161Y-115388800D01*
X132099161Y-115388800D02*
X132175352Y-115426895D01*
X132175352Y-115426895D02*
X132251542Y-115426895D01*
X132251542Y-115426895D02*
X132327733Y-115388800D01*
X132327733Y-115388800D02*
X132365828Y-115350704D01*
X132365828Y-115350704D02*
X132403923Y-115274514D01*
X132403923Y-115274514D02*
X132442019Y-115122133D01*
X132442019Y-115122133D02*
X132442019Y-114931657D01*
X132442019Y-114931657D02*
X132403923Y-114779276D01*
X132403923Y-114779276D02*
X132365828Y-114703085D01*
X132365828Y-114703085D02*
X132327733Y-114664990D01*
X132327733Y-114664990D02*
X132251542Y-114626895D01*
X161969675Y-100779095D02*
X161969675Y-99979095D01*
X161969675Y-99979095D02*
X161779199Y-99979095D01*
X161779199Y-99979095D02*
X161664913Y-100017190D01*
X161664913Y-100017190D02*
X161588723Y-100093380D01*
X161588723Y-100093380D02*
X161550628Y-100169571D01*
X161550628Y-100169571D02*
X161512532Y-100321952D01*
X161512532Y-100321952D02*
X161512532Y-100436238D01*
X161512532Y-100436238D02*
X161550628Y-100588619D01*
X161550628Y-100588619D02*
X161588723Y-100664809D01*
X161588723Y-100664809D02*
X161664913Y-100741000D01*
X161664913Y-100741000D02*
X161779199Y-100779095D01*
X161779199Y-100779095D02*
X161969675Y-100779095D01*
X161055390Y-100321952D02*
X161131580Y-100283857D01*
X161131580Y-100283857D02*
X161169675Y-100245761D01*
X161169675Y-100245761D02*
X161207771Y-100169571D01*
X161207771Y-100169571D02*
X161207771Y-100131476D01*
X161207771Y-100131476D02*
X161169675Y-100055285D01*
X161169675Y-100055285D02*
X161131580Y-100017190D01*
X161131580Y-100017190D02*
X161055390Y-99979095D01*
X161055390Y-99979095D02*
X160903009Y-99979095D01*
X160903009Y-99979095D02*
X160826818Y-100017190D01*
X160826818Y-100017190D02*
X160788723Y-100055285D01*
X160788723Y-100055285D02*
X160750628Y-100131476D01*
X160750628Y-100131476D02*
X160750628Y-100169571D01*
X160750628Y-100169571D02*
X160788723Y-100245761D01*
X160788723Y-100245761D02*
X160826818Y-100283857D01*
X160826818Y-100283857D02*
X160903009Y-100321952D01*
X160903009Y-100321952D02*
X161055390Y-100321952D01*
X161055390Y-100321952D02*
X161131580Y-100360047D01*
X161131580Y-100360047D02*
X161169675Y-100398142D01*
X161169675Y-100398142D02*
X161207771Y-100474333D01*
X161207771Y-100474333D02*
X161207771Y-100626714D01*
X161207771Y-100626714D02*
X161169675Y-100702904D01*
X161169675Y-100702904D02*
X161131580Y-100741000D01*
X161131580Y-100741000D02*
X161055390Y-100779095D01*
X161055390Y-100779095D02*
X160903009Y-100779095D01*
X160903009Y-100779095D02*
X160826818Y-100741000D01*
X160826818Y-100741000D02*
X160788723Y-100702904D01*
X160788723Y-100702904D02*
X160750628Y-100626714D01*
X160750628Y-100626714D02*
X160750628Y-100474333D01*
X160750628Y-100474333D02*
X160788723Y-100398142D01*
X160788723Y-100398142D02*
X160826818Y-100360047D01*
X160826818Y-100360047D02*
X160903009Y-100321952D01*
X165963523Y-102714295D02*
X165963523Y-103361914D01*
X165963523Y-103361914D02*
X165925428Y-103438104D01*
X165925428Y-103438104D02*
X165887333Y-103476200D01*
X165887333Y-103476200D02*
X165811142Y-103514295D01*
X165811142Y-103514295D02*
X165658761Y-103514295D01*
X165658761Y-103514295D02*
X165582571Y-103476200D01*
X165582571Y-103476200D02*
X165544476Y-103438104D01*
X165544476Y-103438104D02*
X165506380Y-103361914D01*
X165506380Y-103361914D02*
X165506380Y-102714295D01*
X165163524Y-102790485D02*
X165125428Y-102752390D01*
X165125428Y-102752390D02*
X165049238Y-102714295D01*
X165049238Y-102714295D02*
X164858762Y-102714295D01*
X164858762Y-102714295D02*
X164782571Y-102752390D01*
X164782571Y-102752390D02*
X164744476Y-102790485D01*
X164744476Y-102790485D02*
X164706381Y-102866676D01*
X164706381Y-102866676D02*
X164706381Y-102942866D01*
X164706381Y-102942866D02*
X164744476Y-103057152D01*
X164744476Y-103057152D02*
X165201619Y-103514295D01*
X165201619Y-103514295D02*
X164706381Y-103514295D01*
X139909485Y-112861495D02*
X140176152Y-112480542D01*
X140366628Y-112861495D02*
X140366628Y-112061495D01*
X140366628Y-112061495D02*
X140061866Y-112061495D01*
X140061866Y-112061495D02*
X139985676Y-112099590D01*
X139985676Y-112099590D02*
X139947581Y-112137685D01*
X139947581Y-112137685D02*
X139909485Y-112213876D01*
X139909485Y-112213876D02*
X139909485Y-112328161D01*
X139909485Y-112328161D02*
X139947581Y-112404352D01*
X139947581Y-112404352D02*
X139985676Y-112442447D01*
X139985676Y-112442447D02*
X140061866Y-112480542D01*
X140061866Y-112480542D02*
X140366628Y-112480542D01*
X139147581Y-112861495D02*
X139604724Y-112861495D01*
X139376152Y-112861495D02*
X139376152Y-112061495D01*
X139376152Y-112061495D02*
X139452343Y-112175780D01*
X139452343Y-112175780D02*
X139528533Y-112251971D01*
X139528533Y-112251971D02*
X139604724Y-112290066D01*
X138385676Y-112861495D02*
X138842819Y-112861495D01*
X138614247Y-112861495D02*
X138614247Y-112061495D01*
X138614247Y-112061495D02*
X138690438Y-112175780D01*
X138690438Y-112175780D02*
X138766628Y-112251971D01*
X138766628Y-112251971D02*
X138842819Y-112290066D01*
X146414895Y-111626714D02*
X146033942Y-111360047D01*
X146414895Y-111169571D02*
X145614895Y-111169571D01*
X145614895Y-111169571D02*
X145614895Y-111474333D01*
X145614895Y-111474333D02*
X145652990Y-111550523D01*
X145652990Y-111550523D02*
X145691085Y-111588618D01*
X145691085Y-111588618D02*
X145767276Y-111626714D01*
X145767276Y-111626714D02*
X145881561Y-111626714D01*
X145881561Y-111626714D02*
X145957752Y-111588618D01*
X145957752Y-111588618D02*
X145995847Y-111550523D01*
X145995847Y-111550523D02*
X146033942Y-111474333D01*
X146033942Y-111474333D02*
X146033942Y-111169571D01*
X145691085Y-111931475D02*
X145652990Y-111969571D01*
X145652990Y-111969571D02*
X145614895Y-112045761D01*
X145614895Y-112045761D02*
X145614895Y-112236237D01*
X145614895Y-112236237D02*
X145652990Y-112312428D01*
X145652990Y-112312428D02*
X145691085Y-112350523D01*
X145691085Y-112350523D02*
X145767276Y-112388618D01*
X145767276Y-112388618D02*
X145843466Y-112388618D01*
X145843466Y-112388618D02*
X145957752Y-112350523D01*
X145957752Y-112350523D02*
X146414895Y-111893380D01*
X146414895Y-111893380D02*
X146414895Y-112388618D01*
X145614895Y-112655285D02*
X145614895Y-113188619D01*
X145614895Y-113188619D02*
X146414895Y-112845761D01*
X163201332Y-109483304D02*
X163239428Y-109521400D01*
X163239428Y-109521400D02*
X163353713Y-109559495D01*
X163353713Y-109559495D02*
X163429904Y-109559495D01*
X163429904Y-109559495D02*
X163544190Y-109521400D01*
X163544190Y-109521400D02*
X163620380Y-109445209D01*
X163620380Y-109445209D02*
X163658475Y-109369019D01*
X163658475Y-109369019D02*
X163696571Y-109216638D01*
X163696571Y-109216638D02*
X163696571Y-109102352D01*
X163696571Y-109102352D02*
X163658475Y-108949971D01*
X163658475Y-108949971D02*
X163620380Y-108873780D01*
X163620380Y-108873780D02*
X163544190Y-108797590D01*
X163544190Y-108797590D02*
X163429904Y-108759495D01*
X163429904Y-108759495D02*
X163353713Y-108759495D01*
X163353713Y-108759495D02*
X163239428Y-108797590D01*
X163239428Y-108797590D02*
X163201332Y-108835685D01*
X162934666Y-108759495D02*
X162439428Y-108759495D01*
X162439428Y-108759495D02*
X162706094Y-109064257D01*
X162706094Y-109064257D02*
X162591809Y-109064257D01*
X162591809Y-109064257D02*
X162515618Y-109102352D01*
X162515618Y-109102352D02*
X162477523Y-109140447D01*
X162477523Y-109140447D02*
X162439428Y-109216638D01*
X162439428Y-109216638D02*
X162439428Y-109407114D01*
X162439428Y-109407114D02*
X162477523Y-109483304D01*
X162477523Y-109483304D02*
X162515618Y-109521400D01*
X162515618Y-109521400D02*
X162591809Y-109559495D01*
X162591809Y-109559495D02*
X162820380Y-109559495D01*
X162820380Y-109559495D02*
X162896571Y-109521400D01*
X162896571Y-109521400D02*
X162934666Y-109483304D01*
X171418895Y-102318414D02*
X171037942Y-102051747D01*
X171418895Y-101861271D02*
X170618895Y-101861271D01*
X170618895Y-101861271D02*
X170618895Y-102166033D01*
X170618895Y-102166033D02*
X170656990Y-102242223D01*
X170656990Y-102242223D02*
X170695085Y-102280318D01*
X170695085Y-102280318D02*
X170771276Y-102318414D01*
X170771276Y-102318414D02*
X170885561Y-102318414D01*
X170885561Y-102318414D02*
X170961752Y-102280318D01*
X170961752Y-102280318D02*
X170999847Y-102242223D01*
X170999847Y-102242223D02*
X171037942Y-102166033D01*
X171037942Y-102166033D02*
X171037942Y-101861271D01*
X171418895Y-103080318D02*
X171418895Y-102623175D01*
X171418895Y-102851747D02*
X170618895Y-102851747D01*
X170618895Y-102851747D02*
X170733180Y-102775556D01*
X170733180Y-102775556D02*
X170809371Y-102699366D01*
X170809371Y-102699366D02*
X170847466Y-102623175D01*
X170885561Y-103766033D02*
X171418895Y-103766033D01*
X170580800Y-103575557D02*
X171152228Y-103385080D01*
X171152228Y-103385080D02*
X171152228Y-103880319D01*
X130689285Y-119694104D02*
X130727381Y-119732200D01*
X130727381Y-119732200D02*
X130841666Y-119770295D01*
X130841666Y-119770295D02*
X130917857Y-119770295D01*
X130917857Y-119770295D02*
X131032143Y-119732200D01*
X131032143Y-119732200D02*
X131108333Y-119656009D01*
X131108333Y-119656009D02*
X131146428Y-119579819D01*
X131146428Y-119579819D02*
X131184524Y-119427438D01*
X131184524Y-119427438D02*
X131184524Y-119313152D01*
X131184524Y-119313152D02*
X131146428Y-119160771D01*
X131146428Y-119160771D02*
X131108333Y-119084580D01*
X131108333Y-119084580D02*
X131032143Y-119008390D01*
X131032143Y-119008390D02*
X130917857Y-118970295D01*
X130917857Y-118970295D02*
X130841666Y-118970295D01*
X130841666Y-118970295D02*
X130727381Y-119008390D01*
X130727381Y-119008390D02*
X130689285Y-119046485D01*
X129927381Y-119770295D02*
X130384524Y-119770295D01*
X130155952Y-119770295D02*
X130155952Y-118970295D01*
X130155952Y-118970295D02*
X130232143Y-119084580D01*
X130232143Y-119084580D02*
X130308333Y-119160771D01*
X130308333Y-119160771D02*
X130384524Y-119198866D01*
X129432142Y-118970295D02*
X129355952Y-118970295D01*
X129355952Y-118970295D02*
X129279761Y-119008390D01*
X129279761Y-119008390D02*
X129241666Y-119046485D01*
X129241666Y-119046485D02*
X129203571Y-119122676D01*
X129203571Y-119122676D02*
X129165476Y-119275057D01*
X129165476Y-119275057D02*
X129165476Y-119465533D01*
X129165476Y-119465533D02*
X129203571Y-119617914D01*
X129203571Y-119617914D02*
X129241666Y-119694104D01*
X129241666Y-119694104D02*
X129279761Y-119732200D01*
X129279761Y-119732200D02*
X129355952Y-119770295D01*
X129355952Y-119770295D02*
X129432142Y-119770295D01*
X129432142Y-119770295D02*
X129508333Y-119732200D01*
X129508333Y-119732200D02*
X129546428Y-119694104D01*
X129546428Y-119694104D02*
X129584523Y-119617914D01*
X129584523Y-119617914D02*
X129622619Y-119465533D01*
X129622619Y-119465533D02*
X129622619Y-119275057D01*
X129622619Y-119275057D02*
X129584523Y-119122676D01*
X129584523Y-119122676D02*
X129546428Y-119046485D01*
X129546428Y-119046485D02*
X129508333Y-119008390D01*
X129508333Y-119008390D02*
X129432142Y-118970295D01*
X138664885Y-124418495D02*
X138931552Y-124037542D01*
X139122028Y-124418495D02*
X139122028Y-123618495D01*
X139122028Y-123618495D02*
X138817266Y-123618495D01*
X138817266Y-123618495D02*
X138741076Y-123656590D01*
X138741076Y-123656590D02*
X138702981Y-123694685D01*
X138702981Y-123694685D02*
X138664885Y-123770876D01*
X138664885Y-123770876D02*
X138664885Y-123885161D01*
X138664885Y-123885161D02*
X138702981Y-123961352D01*
X138702981Y-123961352D02*
X138741076Y-123999447D01*
X138741076Y-123999447D02*
X138817266Y-124037542D01*
X138817266Y-124037542D02*
X139122028Y-124037542D01*
X137902981Y-124418495D02*
X138360124Y-124418495D01*
X138131552Y-124418495D02*
X138131552Y-123618495D01*
X138131552Y-123618495D02*
X138207743Y-123732780D01*
X138207743Y-123732780D02*
X138283933Y-123808971D01*
X138283933Y-123808971D02*
X138360124Y-123847066D01*
X137598219Y-123694685D02*
X137560123Y-123656590D01*
X137560123Y-123656590D02*
X137483933Y-123618495D01*
X137483933Y-123618495D02*
X137293457Y-123618495D01*
X137293457Y-123618495D02*
X137217266Y-123656590D01*
X137217266Y-123656590D02*
X137179171Y-123694685D01*
X137179171Y-123694685D02*
X137141076Y-123770876D01*
X137141076Y-123770876D02*
X137141076Y-123847066D01*
X137141076Y-123847066D02*
X137179171Y-123961352D01*
X137179171Y-123961352D02*
X137636314Y-124418495D01*
X137636314Y-124418495D02*
X137141076Y-124418495D01*
X169724875Y-110914295D02*
X169724875Y-110114295D01*
X169724875Y-110114295D02*
X169534399Y-110114295D01*
X169534399Y-110114295D02*
X169420113Y-110152390D01*
X169420113Y-110152390D02*
X169343923Y-110228580D01*
X169343923Y-110228580D02*
X169305828Y-110304771D01*
X169305828Y-110304771D02*
X169267732Y-110457152D01*
X169267732Y-110457152D02*
X169267732Y-110571438D01*
X169267732Y-110571438D02*
X169305828Y-110723819D01*
X169305828Y-110723819D02*
X169343923Y-110800009D01*
X169343923Y-110800009D02*
X169420113Y-110876200D01*
X169420113Y-110876200D02*
X169534399Y-110914295D01*
X169534399Y-110914295D02*
X169724875Y-110914295D01*
X169001066Y-110114295D02*
X168467732Y-110114295D01*
X168467732Y-110114295D02*
X168810590Y-110914295D01*
X134467590Y-99196285D02*
X134543780Y-99158190D01*
X134543780Y-99158190D02*
X134619971Y-99082000D01*
X134619971Y-99082000D02*
X134734257Y-98967714D01*
X134734257Y-98967714D02*
X134810447Y-98929619D01*
X134810447Y-98929619D02*
X134886638Y-98929619D01*
X134848542Y-99120095D02*
X134924733Y-99082000D01*
X134924733Y-99082000D02*
X135000923Y-99005809D01*
X135000923Y-99005809D02*
X135039019Y-98853428D01*
X135039019Y-98853428D02*
X135039019Y-98586761D01*
X135039019Y-98586761D02*
X135000923Y-98434380D01*
X135000923Y-98434380D02*
X134924733Y-98358190D01*
X134924733Y-98358190D02*
X134848542Y-98320095D01*
X134848542Y-98320095D02*
X134696161Y-98320095D01*
X134696161Y-98320095D02*
X134619971Y-98358190D01*
X134619971Y-98358190D02*
X134543780Y-98434380D01*
X134543780Y-98434380D02*
X134505685Y-98586761D01*
X134505685Y-98586761D02*
X134505685Y-98853428D01*
X134505685Y-98853428D02*
X134543780Y-99005809D01*
X134543780Y-99005809D02*
X134619971Y-99082000D01*
X134619971Y-99082000D02*
X134696161Y-99120095D01*
X134696161Y-99120095D02*
X134848542Y-99120095D01*
X133743781Y-99120095D02*
X134200924Y-99120095D01*
X133972352Y-99120095D02*
X133972352Y-98320095D01*
X133972352Y-98320095D02*
X134048543Y-98434380D01*
X134048543Y-98434380D02*
X134124733Y-98510571D01*
X134124733Y-98510571D02*
X134200924Y-98548666D01*
D13*
X149606693Y-111501315D02*
X149608516Y-112023816D01*
X151076684Y-111496184D02*
X151078507Y-112018685D01*
X150418076Y-121168900D02*
X150927524Y-121168900D01*
X150418076Y-122213900D02*
X150927524Y-122213900D01*
X155690200Y-116885400D02*
X155690200Y-120145400D01*
X155690200Y-120145400D02*
X157390200Y-120145400D01*
X157390200Y-116885400D02*
X157390200Y-120145400D01*
X135155000Y-122028852D02*
X135155000Y-121506348D01*
X136625000Y-122028852D02*
X136625000Y-121506348D01*
X157963324Y-112202700D02*
X157453876Y-112202700D01*
X157963324Y-113247700D02*
X157453876Y-113247700D01*
X159869200Y-118077348D02*
X159869200Y-118599852D01*
X161339200Y-118077348D02*
X161339200Y-118599852D01*
X129960000Y-113721200D02*
X129960000Y-110461200D01*
X131660000Y-110461200D02*
X129960000Y-110461200D01*
X131660000Y-113721200D02*
X131660000Y-110461200D01*
X153341400Y-108389052D02*
X153341400Y-107866548D01*
X154811400Y-108389052D02*
X154811400Y-107866548D01*
X157897300Y-118134676D02*
X157897300Y-118644124D01*
X158942300Y-118134676D02*
X158942300Y-118644124D01*
X138455200Y-104181400D02*
X138455200Y-106181400D01*
X142315200Y-104181400D02*
X138455200Y-104181400D01*
X142315200Y-106181400D02*
X138455200Y-106181400D01*
X129590600Y-104181400D02*
X129590600Y-106181400D01*
X133450600Y-104181400D02*
X129590600Y-104181400D01*
X133450600Y-106181400D02*
X129590600Y-106181400D01*
X137932900Y-101575324D02*
X137932900Y-101065876D01*
X138977900Y-101575324D02*
X138977900Y-101065876D01*
X139821100Y-101064676D02*
X139821100Y-101574124D01*
X140866100Y-101064676D02*
X140866100Y-101574124D01*
X127976100Y-112929124D02*
X127976100Y-112419676D01*
X129021100Y-112929124D02*
X129021100Y-112419676D01*
X130051100Y-100904676D02*
X130051100Y-101414124D01*
X131096100Y-100904676D02*
X131096100Y-101414124D01*
X131430500Y-116813876D02*
X131430500Y-117323324D01*
X132475500Y-116813876D02*
X132475500Y-117323324D01*
X143317200Y-99760600D02*
X143967200Y-99760600D01*
X143317200Y-102880600D02*
X143967200Y-102880600D01*
X144617200Y-99760600D02*
X143967200Y-99760600D01*
X144617200Y-102880600D02*
X143967200Y-102880600D01*
X143044700Y-103160600D02*
X142564700Y-103160600D01*
X142804700Y-102830600D01*
X143044700Y-103160600D01*
G36*
X143044700Y-103160600D02*
G01*
X142564700Y-103160600D01*
X142804700Y-102830600D01*
X143044700Y-103160600D01*
G37*
X158837100Y-107238076D02*
X158837100Y-107747524D01*
X159882100Y-107238076D02*
X159882100Y-107747524D01*
X162992800Y-92345000D02*
X166852800Y-92345000D01*
X162992800Y-94345000D02*
X166852800Y-94345000D01*
X166852800Y-94345000D02*
X166852800Y-92345000D01*
X150903000Y-108389052D02*
X150903000Y-107866548D01*
X152373000Y-108389052D02*
X152373000Y-107866548D01*
D12*
X153033200Y-100169800D02*
X156983200Y-100169800D01*
X153033200Y-104819800D02*
X153033200Y-100169800D01*
D14*
X155908200Y-101219800D02*
X156433200Y-101219800D01*
X156183200Y-101494800D02*
X156183200Y-100944800D01*
X156183200Y-104034800D02*
X156183200Y-103484800D01*
D12*
X156983200Y-100169800D02*
X156983200Y-104819800D01*
X156983200Y-104819800D02*
X153033200Y-104819800D01*
D14*
X153758200Y-101244800D02*
G75*
G02*
X153758200Y-101619800I-12500J-187500D01*
G01*
X153758200Y-101244800D02*
G75*
G02*
X153758202Y-100869800I12501J187500D01*
G01*
X153758200Y-103744800D02*
G75*
G02*
X153758200Y-104119800I-12500J-187500D01*
G01*
X153758202Y-103744800D02*
G75*
G02*
X153758200Y-103369800I12498J187500D01*
G01*
D13*
X128181100Y-101414124D02*
X128181100Y-100904676D01*
X129226100Y-101414124D02*
X129226100Y-100904676D01*
X131666348Y-108205600D02*
X132188852Y-108205600D01*
X131666348Y-109675600D02*
X132188852Y-109675600D01*
X153531200Y-116910800D02*
X153531200Y-120170800D01*
X153531200Y-120170800D02*
X155231200Y-120170800D01*
X155231200Y-116910800D02*
X155231200Y-120170800D01*
X153416724Y-112202700D02*
X152907276Y-112202700D01*
X153416724Y-113247700D02*
X152907276Y-113247700D01*
X140761400Y-120866800D02*
X144021400Y-120866800D01*
X140761400Y-122566800D02*
X144021400Y-122566800D01*
X144021400Y-122566800D02*
X144021400Y-120866800D01*
X146576147Y-121058000D02*
X147098653Y-121058000D01*
X146576147Y-122528000D02*
X147098653Y-122528000D01*
X132144400Y-113670400D02*
X132144400Y-110410400D01*
X133844400Y-110410400D02*
X132144400Y-110410400D01*
X133844400Y-113670400D02*
X133844400Y-110410400D01*
X160239200Y-105104200D02*
X160239200Y-101244200D01*
X162239200Y-101244200D02*
X160239200Y-101244200D01*
X162239200Y-105104200D02*
X162239200Y-101244200D01*
X163773600Y-101876900D02*
X166373600Y-101876900D01*
X163773600Y-104476900D02*
X167073600Y-104476900D01*
X167073600Y-103776900D02*
X167073600Y-104276900D01*
X167073600Y-104276900D02*
X166473600Y-104276900D01*
X136754324Y-111974100D02*
X136244876Y-111974100D01*
X136754324Y-113019100D02*
X136244876Y-113019100D01*
X144069524Y-111618500D02*
X143560076Y-111618500D01*
X144069524Y-112663500D02*
X143560076Y-112663500D01*
X163434852Y-106614400D02*
X162912348Y-106614400D01*
X163434852Y-108084400D02*
X162912348Y-108084400D01*
X168254000Y-103927264D02*
X168254000Y-102473136D01*
X170074000Y-103927264D02*
X170074000Y-102473136D01*
X129389200Y-116807348D02*
X129389200Y-117329852D01*
X130859200Y-116807348D02*
X130859200Y-117329852D01*
X137424900Y-121411276D02*
X137424900Y-121920724D01*
X138469900Y-121411276D02*
X138469900Y-121920724D01*
X165573600Y-106359400D02*
X165573600Y-109659400D01*
X171083600Y-106359400D02*
X165573600Y-106359400D01*
X171083600Y-109659400D02*
X165573600Y-109659400D01*
X133868400Y-99659000D02*
X134518400Y-99659000D01*
X133868400Y-102779000D02*
X134518400Y-102779000D01*
X135168400Y-99659000D02*
X134518400Y-99659000D01*
X135168400Y-102779000D02*
X134518400Y-102779000D01*
X133595900Y-103059000D02*
X133115900Y-103059000D01*
X133355900Y-102729000D01*
X133595900Y-103059000D01*
G36*
X133595900Y-103059000D02*
G01*
X133115900Y-103059000D01*
X133355900Y-102729000D01*
X133595900Y-103059000D01*
G37*
M02*
