G04 #@! TF.GenerationSoftware,KiCad,Pcbnew,8.0.8*
G04 #@! TF.CreationDate,2025-02-21T01:15:49+03:00*
G04 #@! TF.ProjectId,SMHome_2RelayBoardRound_ESP1M_v7,534d486f-6d65-45f3-9252-656c6179426f,12*
G04 #@! TF.SameCoordinates,Original*
G04 #@! TF.FileFunction,Legend,Top*
G04 #@! TF.FilePolarity,Positive*
%FSLAX46Y46*%
G04 Gerber Fmt 4.6, Leading zero omitted, Abs format (unit mm)*
G04 Created by KiCad (PCBNEW 8.0.8) date 2025-02-21 01:15:49*
%MOMM*%
%LPD*%
G01*
G04 APERTURE LIST*
%ADD10C,0.200000*%
%ADD11C,0.150000*%
%ADD12C,0.100000*%
%ADD13C,0.120000*%
%ADD14C,0.127000*%
G04 APERTURE END LIST*
D10*
X155662380Y-120518019D02*
X155329047Y-120041828D01*
X155090952Y-120518019D02*
X155090952Y-119518019D01*
X155090952Y-119518019D02*
X155471904Y-119518019D01*
X155471904Y-119518019D02*
X155567142Y-119565638D01*
X155567142Y-119565638D02*
X155614761Y-119613257D01*
X155614761Y-119613257D02*
X155662380Y-119708495D01*
X155662380Y-119708495D02*
X155662380Y-119851352D01*
X155662380Y-119851352D02*
X155614761Y-119946590D01*
X155614761Y-119946590D02*
X155567142Y-119994209D01*
X155567142Y-119994209D02*
X155471904Y-120041828D01*
X155471904Y-120041828D02*
X155090952Y-120041828D01*
X156043333Y-120470400D02*
X156186190Y-120518019D01*
X156186190Y-120518019D02*
X156424285Y-120518019D01*
X156424285Y-120518019D02*
X156519523Y-120470400D01*
X156519523Y-120470400D02*
X156567142Y-120422780D01*
X156567142Y-120422780D02*
X156614761Y-120327542D01*
X156614761Y-120327542D02*
X156614761Y-120232304D01*
X156614761Y-120232304D02*
X156567142Y-120137066D01*
X156567142Y-120137066D02*
X156519523Y-120089447D01*
X156519523Y-120089447D02*
X156424285Y-120041828D01*
X156424285Y-120041828D02*
X156233809Y-119994209D01*
X156233809Y-119994209D02*
X156138571Y-119946590D01*
X156138571Y-119946590D02*
X156090952Y-119898971D01*
X156090952Y-119898971D02*
X156043333Y-119803733D01*
X156043333Y-119803733D02*
X156043333Y-119708495D01*
X156043333Y-119708495D02*
X156090952Y-119613257D01*
X156090952Y-119613257D02*
X156138571Y-119565638D01*
X156138571Y-119565638D02*
X156233809Y-119518019D01*
X156233809Y-119518019D02*
X156471904Y-119518019D01*
X156471904Y-119518019D02*
X156614761Y-119565638D01*
X156900476Y-119518019D02*
X157471904Y-119518019D01*
X157186190Y-120518019D02*
X157186190Y-119518019D01*
X148747123Y-91917619D02*
X148270933Y-91917619D01*
X148270933Y-91917619D02*
X148270933Y-90917619D01*
X157962695Y-90965238D02*
X157867457Y-90917619D01*
X157867457Y-90917619D02*
X157724600Y-90917619D01*
X157724600Y-90917619D02*
X157581743Y-90965238D01*
X157581743Y-90965238D02*
X157486505Y-91060476D01*
X157486505Y-91060476D02*
X157438886Y-91155714D01*
X157438886Y-91155714D02*
X157391267Y-91346190D01*
X157391267Y-91346190D02*
X157391267Y-91489047D01*
X157391267Y-91489047D02*
X157438886Y-91679523D01*
X157438886Y-91679523D02*
X157486505Y-91774761D01*
X157486505Y-91774761D02*
X157581743Y-91870000D01*
X157581743Y-91870000D02*
X157724600Y-91917619D01*
X157724600Y-91917619D02*
X157819838Y-91917619D01*
X157819838Y-91917619D02*
X157962695Y-91870000D01*
X157962695Y-91870000D02*
X158010314Y-91822380D01*
X158010314Y-91822380D02*
X158010314Y-91489047D01*
X158010314Y-91489047D02*
X157819838Y-91489047D01*
X158438886Y-91917619D02*
X158438886Y-90917619D01*
X158438886Y-90917619D02*
X159010314Y-91917619D01*
X159010314Y-91917619D02*
X159010314Y-90917619D01*
X159486505Y-91917619D02*
X159486505Y-90917619D01*
X159486505Y-90917619D02*
X159724600Y-90917619D01*
X159724600Y-90917619D02*
X159867457Y-90965238D01*
X159867457Y-90965238D02*
X159962695Y-91060476D01*
X159962695Y-91060476D02*
X160010314Y-91155714D01*
X160010314Y-91155714D02*
X160057933Y-91346190D01*
X160057933Y-91346190D02*
X160057933Y-91489047D01*
X160057933Y-91489047D02*
X160010314Y-91679523D01*
X160010314Y-91679523D02*
X159962695Y-91774761D01*
X159962695Y-91774761D02*
X159867457Y-91870000D01*
X159867457Y-91870000D02*
X159724600Y-91917619D01*
X159724600Y-91917619D02*
X159486505Y-91917619D01*
D11*
X128038474Y-105761561D02*
X128343236Y-105761561D01*
X128152760Y-105494895D02*
X128152760Y-106180609D01*
X128152760Y-106180609D02*
X128190855Y-106256800D01*
X128190855Y-106256800D02*
X128267045Y-106294895D01*
X128267045Y-106294895D02*
X128343236Y-106294895D01*
X128724188Y-106294895D02*
X128647998Y-106256800D01*
X128647998Y-106256800D02*
X128609903Y-106218704D01*
X128609903Y-106218704D02*
X128571807Y-106142514D01*
X128571807Y-106142514D02*
X128571807Y-105913942D01*
X128571807Y-105913942D02*
X128609903Y-105837752D01*
X128609903Y-105837752D02*
X128647998Y-105799657D01*
X128647998Y-105799657D02*
X128724188Y-105761561D01*
X128724188Y-105761561D02*
X128838474Y-105761561D01*
X128838474Y-105761561D02*
X128914665Y-105799657D01*
X128914665Y-105799657D02*
X128952760Y-105837752D01*
X128952760Y-105837752D02*
X128990855Y-105913942D01*
X128990855Y-105913942D02*
X128990855Y-106142514D01*
X128990855Y-106142514D02*
X128952760Y-106218704D01*
X128952760Y-106218704D02*
X128914665Y-106256800D01*
X128914665Y-106256800D02*
X128838474Y-106294895D01*
X128838474Y-106294895D02*
X128724188Y-106294895D01*
X130400380Y-106294895D02*
X130133713Y-105913942D01*
X129943237Y-106294895D02*
X129943237Y-105494895D01*
X129943237Y-105494895D02*
X130247999Y-105494895D01*
X130247999Y-105494895D02*
X130324189Y-105532990D01*
X130324189Y-105532990D02*
X130362284Y-105571085D01*
X130362284Y-105571085D02*
X130400380Y-105647276D01*
X130400380Y-105647276D02*
X130400380Y-105761561D01*
X130400380Y-105761561D02*
X130362284Y-105837752D01*
X130362284Y-105837752D02*
X130324189Y-105875847D01*
X130324189Y-105875847D02*
X130247999Y-105913942D01*
X130247999Y-105913942D02*
X129943237Y-105913942D01*
X130667046Y-105494895D02*
X131200380Y-106294895D01*
X131200380Y-105494895D02*
X130667046Y-106294895D01*
X131505142Y-106294895D02*
X131505142Y-105494895D01*
X131505142Y-105494895D02*
X131695618Y-105494895D01*
X131695618Y-105494895D02*
X131809904Y-105532990D01*
X131809904Y-105532990D02*
X131886094Y-105609180D01*
X131886094Y-105609180D02*
X131924189Y-105685371D01*
X131924189Y-105685371D02*
X131962285Y-105837752D01*
X131962285Y-105837752D02*
X131962285Y-105952038D01*
X131962285Y-105952038D02*
X131924189Y-106104419D01*
X131924189Y-106104419D02*
X131886094Y-106180609D01*
X131886094Y-106180609D02*
X131809904Y-106256800D01*
X131809904Y-106256800D02*
X131695618Y-106294895D01*
X131695618Y-106294895D02*
X131505142Y-106294895D01*
X124944076Y-98469790D02*
X124867886Y-98431695D01*
X124867886Y-98431695D02*
X124753600Y-98431695D01*
X124753600Y-98431695D02*
X124639314Y-98469790D01*
X124639314Y-98469790D02*
X124563124Y-98545980D01*
X124563124Y-98545980D02*
X124525029Y-98622171D01*
X124525029Y-98622171D02*
X124486933Y-98774552D01*
X124486933Y-98774552D02*
X124486933Y-98888838D01*
X124486933Y-98888838D02*
X124525029Y-99041219D01*
X124525029Y-99041219D02*
X124563124Y-99117409D01*
X124563124Y-99117409D02*
X124639314Y-99193600D01*
X124639314Y-99193600D02*
X124753600Y-99231695D01*
X124753600Y-99231695D02*
X124829791Y-99231695D01*
X124829791Y-99231695D02*
X124944076Y-99193600D01*
X124944076Y-99193600D02*
X124982172Y-99155504D01*
X124982172Y-99155504D02*
X124982172Y-98888838D01*
X124982172Y-98888838D02*
X124829791Y-98888838D01*
X125325029Y-99231695D02*
X125325029Y-98431695D01*
X125325029Y-98431695D02*
X125782172Y-99231695D01*
X125782172Y-99231695D02*
X125782172Y-98431695D01*
X126163124Y-99231695D02*
X126163124Y-98431695D01*
X126163124Y-98431695D02*
X126353600Y-98431695D01*
X126353600Y-98431695D02*
X126467886Y-98469790D01*
X126467886Y-98469790D02*
X126544076Y-98545980D01*
X126544076Y-98545980D02*
X126582171Y-98622171D01*
X126582171Y-98622171D02*
X126620267Y-98774552D01*
X126620267Y-98774552D02*
X126620267Y-98888838D01*
X126620267Y-98888838D02*
X126582171Y-99041219D01*
X126582171Y-99041219D02*
X126544076Y-99117409D01*
X126544076Y-99117409D02*
X126467886Y-99193600D01*
X126467886Y-99193600D02*
X126353600Y-99231695D01*
X126353600Y-99231695D02*
X126163124Y-99231695D01*
D12*
X140055885Y-115033247D02*
X140322551Y-115033247D01*
X140436837Y-115452295D02*
X140055885Y-115452295D01*
X140055885Y-115452295D02*
X140055885Y-114652295D01*
X140055885Y-114652295D02*
X140436837Y-114652295D01*
X140741599Y-115414200D02*
X140855885Y-115452295D01*
X140855885Y-115452295D02*
X141046361Y-115452295D01*
X141046361Y-115452295D02*
X141122552Y-115414200D01*
X141122552Y-115414200D02*
X141160647Y-115376104D01*
X141160647Y-115376104D02*
X141198742Y-115299914D01*
X141198742Y-115299914D02*
X141198742Y-115223723D01*
X141198742Y-115223723D02*
X141160647Y-115147533D01*
X141160647Y-115147533D02*
X141122552Y-115109438D01*
X141122552Y-115109438D02*
X141046361Y-115071342D01*
X141046361Y-115071342D02*
X140893980Y-115033247D01*
X140893980Y-115033247D02*
X140817790Y-114995152D01*
X140817790Y-114995152D02*
X140779695Y-114957057D01*
X140779695Y-114957057D02*
X140741599Y-114880866D01*
X140741599Y-114880866D02*
X140741599Y-114804676D01*
X140741599Y-114804676D02*
X140779695Y-114728485D01*
X140779695Y-114728485D02*
X140817790Y-114690390D01*
X140817790Y-114690390D02*
X140893980Y-114652295D01*
X140893980Y-114652295D02*
X141084457Y-114652295D01*
X141084457Y-114652295D02*
X141198742Y-114690390D01*
X141541600Y-115452295D02*
X141541600Y-114652295D01*
X141541600Y-114652295D02*
X141846362Y-114652295D01*
X141846362Y-114652295D02*
X141922552Y-114690390D01*
X141922552Y-114690390D02*
X141960647Y-114728485D01*
X141960647Y-114728485D02*
X141998743Y-114804676D01*
X141998743Y-114804676D02*
X141998743Y-114918961D01*
X141998743Y-114918961D02*
X141960647Y-114995152D01*
X141960647Y-114995152D02*
X141922552Y-115033247D01*
X141922552Y-115033247D02*
X141846362Y-115071342D01*
X141846362Y-115071342D02*
X141541600Y-115071342D01*
X142341600Y-115147533D02*
X142951124Y-115147533D01*
X143751123Y-115452295D02*
X143293980Y-115452295D01*
X143522552Y-115452295D02*
X143522552Y-114652295D01*
X143522552Y-114652295D02*
X143446361Y-114766580D01*
X143446361Y-114766580D02*
X143370171Y-114842771D01*
X143370171Y-114842771D02*
X143293980Y-114880866D01*
X144093981Y-115452295D02*
X144093981Y-114652295D01*
X144093981Y-114652295D02*
X144360647Y-115223723D01*
X144360647Y-115223723D02*
X144627314Y-114652295D01*
X144627314Y-114652295D02*
X144627314Y-115452295D01*
D11*
X127987674Y-103424761D02*
X128292436Y-103424761D01*
X128101960Y-103158095D02*
X128101960Y-103843809D01*
X128101960Y-103843809D02*
X128140055Y-103920000D01*
X128140055Y-103920000D02*
X128216245Y-103958095D01*
X128216245Y-103958095D02*
X128292436Y-103958095D01*
X128673388Y-103958095D02*
X128597198Y-103920000D01*
X128597198Y-103920000D02*
X128559103Y-103881904D01*
X128559103Y-103881904D02*
X128521007Y-103805714D01*
X128521007Y-103805714D02*
X128521007Y-103577142D01*
X128521007Y-103577142D02*
X128559103Y-103500952D01*
X128559103Y-103500952D02*
X128597198Y-103462857D01*
X128597198Y-103462857D02*
X128673388Y-103424761D01*
X128673388Y-103424761D02*
X128787674Y-103424761D01*
X128787674Y-103424761D02*
X128863865Y-103462857D01*
X128863865Y-103462857D02*
X128901960Y-103500952D01*
X128901960Y-103500952D02*
X128940055Y-103577142D01*
X128940055Y-103577142D02*
X128940055Y-103805714D01*
X128940055Y-103805714D02*
X128901960Y-103881904D01*
X128901960Y-103881904D02*
X128863865Y-103920000D01*
X128863865Y-103920000D02*
X128787674Y-103958095D01*
X128787674Y-103958095D02*
X128673388Y-103958095D01*
X129778151Y-103158095D02*
X130235294Y-103158095D01*
X130006722Y-103958095D02*
X130006722Y-103158095D01*
X130425770Y-103158095D02*
X130959104Y-103958095D01*
X130959104Y-103158095D02*
X130425770Y-103958095D01*
X131263866Y-103958095D02*
X131263866Y-103158095D01*
X131263866Y-103158095D02*
X131454342Y-103158095D01*
X131454342Y-103158095D02*
X131568628Y-103196190D01*
X131568628Y-103196190D02*
X131644818Y-103272380D01*
X131644818Y-103272380D02*
X131682913Y-103348571D01*
X131682913Y-103348571D02*
X131721009Y-103500952D01*
X131721009Y-103500952D02*
X131721009Y-103615238D01*
X131721009Y-103615238D02*
X131682913Y-103767619D01*
X131682913Y-103767619D02*
X131644818Y-103843809D01*
X131644818Y-103843809D02*
X131568628Y-103920000D01*
X131568628Y-103920000D02*
X131454342Y-103958095D01*
X131454342Y-103958095D02*
X131263866Y-103958095D01*
D10*
X137452171Y-91917619D02*
X137118838Y-91441428D01*
X136880743Y-91917619D02*
X136880743Y-90917619D01*
X136880743Y-90917619D02*
X137261695Y-90917619D01*
X137261695Y-90917619D02*
X137356933Y-90965238D01*
X137356933Y-90965238D02*
X137404552Y-91012857D01*
X137404552Y-91012857D02*
X137452171Y-91108095D01*
X137452171Y-91108095D02*
X137452171Y-91250952D01*
X137452171Y-91250952D02*
X137404552Y-91346190D01*
X137404552Y-91346190D02*
X137356933Y-91393809D01*
X137356933Y-91393809D02*
X137261695Y-91441428D01*
X137261695Y-91441428D02*
X136880743Y-91441428D01*
X138356933Y-91917619D02*
X137880743Y-91917619D01*
X137880743Y-91917619D02*
X137880743Y-90917619D01*
X139214076Y-91917619D02*
X138642648Y-91917619D01*
X138928362Y-91917619D02*
X138928362Y-90917619D01*
X138928362Y-90917619D02*
X138833124Y-91060476D01*
X138833124Y-91060476D02*
X138737886Y-91155714D01*
X138737886Y-91155714D02*
X138642648Y-91203333D01*
D11*
X123662561Y-106585590D02*
X123662561Y-106280828D01*
X123395895Y-106471304D02*
X124081609Y-106471304D01*
X124081609Y-106471304D02*
X124157800Y-106433209D01*
X124157800Y-106433209D02*
X124195895Y-106357019D01*
X124195895Y-106357019D02*
X124195895Y-106280828D01*
X124195895Y-106090352D02*
X123662561Y-105671304D01*
X123662561Y-106090352D02*
X124195895Y-105671304D01*
X124441218Y-110461695D02*
X124936456Y-110461695D01*
X124936456Y-110461695D02*
X124669790Y-110766457D01*
X124669790Y-110766457D02*
X124784075Y-110766457D01*
X124784075Y-110766457D02*
X124860266Y-110804552D01*
X124860266Y-110804552D02*
X124898361Y-110842647D01*
X124898361Y-110842647D02*
X124936456Y-110918838D01*
X124936456Y-110918838D02*
X124936456Y-111109314D01*
X124936456Y-111109314D02*
X124898361Y-111185504D01*
X124898361Y-111185504D02*
X124860266Y-111223600D01*
X124860266Y-111223600D02*
X124784075Y-111261695D01*
X124784075Y-111261695D02*
X124555504Y-111261695D01*
X124555504Y-111261695D02*
X124479313Y-111223600D01*
X124479313Y-111223600D02*
X124441218Y-111185504D01*
X125203123Y-110728361D02*
X125393599Y-111261695D01*
X125393599Y-111261695D02*
X125584076Y-110728361D01*
X125812647Y-110461695D02*
X126307885Y-110461695D01*
X126307885Y-110461695D02*
X126041219Y-110766457D01*
X126041219Y-110766457D02*
X126155504Y-110766457D01*
X126155504Y-110766457D02*
X126231695Y-110804552D01*
X126231695Y-110804552D02*
X126269790Y-110842647D01*
X126269790Y-110842647D02*
X126307885Y-110918838D01*
X126307885Y-110918838D02*
X126307885Y-111109314D01*
X126307885Y-111109314D02*
X126269790Y-111185504D01*
X126269790Y-111185504D02*
X126231695Y-111223600D01*
X126231695Y-111223600D02*
X126155504Y-111261695D01*
X126155504Y-111261695D02*
X125926933Y-111261695D01*
X125926933Y-111261695D02*
X125850742Y-111223600D01*
X125850742Y-111223600D02*
X125812647Y-111185504D01*
D10*
X142786171Y-91917619D02*
X142452838Y-91441428D01*
X142214743Y-91917619D02*
X142214743Y-90917619D01*
X142214743Y-90917619D02*
X142595695Y-90917619D01*
X142595695Y-90917619D02*
X142690933Y-90965238D01*
X142690933Y-90965238D02*
X142738552Y-91012857D01*
X142738552Y-91012857D02*
X142786171Y-91108095D01*
X142786171Y-91108095D02*
X142786171Y-91250952D01*
X142786171Y-91250952D02*
X142738552Y-91346190D01*
X142738552Y-91346190D02*
X142690933Y-91393809D01*
X142690933Y-91393809D02*
X142595695Y-91441428D01*
X142595695Y-91441428D02*
X142214743Y-91441428D01*
X143690933Y-91917619D02*
X143214743Y-91917619D01*
X143214743Y-91917619D02*
X143214743Y-90917619D01*
X143976648Y-91012857D02*
X144024267Y-90965238D01*
X144024267Y-90965238D02*
X144119505Y-90917619D01*
X144119505Y-90917619D02*
X144357600Y-90917619D01*
X144357600Y-90917619D02*
X144452838Y-90965238D01*
X144452838Y-90965238D02*
X144500457Y-91012857D01*
X144500457Y-91012857D02*
X144548076Y-91108095D01*
X144548076Y-91108095D02*
X144548076Y-91203333D01*
X144548076Y-91203333D02*
X144500457Y-91346190D01*
X144500457Y-91346190D02*
X143929029Y-91917619D01*
X143929029Y-91917619D02*
X144548076Y-91917619D01*
X152850886Y-91917619D02*
X152850886Y-90917619D01*
X152850886Y-90917619D02*
X153422314Y-91917619D01*
X153422314Y-91917619D02*
X153422314Y-90917619D01*
D11*
X124105895Y-103890351D02*
X123572561Y-103890351D01*
X123724942Y-103890351D02*
X123648752Y-103852256D01*
X123648752Y-103852256D02*
X123610657Y-103814161D01*
X123610657Y-103814161D02*
X123572561Y-103737970D01*
X123572561Y-103737970D02*
X123572561Y-103661780D01*
X124105895Y-103471304D02*
X123572561Y-103052256D01*
X123572561Y-103471304D02*
X124105895Y-103052256D01*
X167690895Y-99183119D02*
X167690895Y-99992642D01*
X167690895Y-99992642D02*
X167738514Y-100087880D01*
X167738514Y-100087880D02*
X167786133Y-100135500D01*
X167786133Y-100135500D02*
X167881371Y-100183119D01*
X167881371Y-100183119D02*
X168071847Y-100183119D01*
X168071847Y-100183119D02*
X168167085Y-100135500D01*
X168167085Y-100135500D02*
X168214704Y-100087880D01*
X168214704Y-100087880D02*
X168262323Y-99992642D01*
X168262323Y-99992642D02*
X168262323Y-99183119D01*
X169167085Y-99516452D02*
X169167085Y-100183119D01*
X168928990Y-99135500D02*
X168690895Y-99849785D01*
X168690895Y-99849785D02*
X169309942Y-99849785D01*
D12*
X152774667Y-103285704D02*
X152736571Y-103323800D01*
X152736571Y-103323800D02*
X152622286Y-103361895D01*
X152622286Y-103361895D02*
X152546095Y-103361895D01*
X152546095Y-103361895D02*
X152431809Y-103323800D01*
X152431809Y-103323800D02*
X152355619Y-103247609D01*
X152355619Y-103247609D02*
X152317524Y-103171419D01*
X152317524Y-103171419D02*
X152279428Y-103019038D01*
X152279428Y-103019038D02*
X152279428Y-102904752D01*
X152279428Y-102904752D02*
X152317524Y-102752371D01*
X152317524Y-102752371D02*
X152355619Y-102676180D01*
X152355619Y-102676180D02*
X152431809Y-102599990D01*
X152431809Y-102599990D02*
X152546095Y-102561895D01*
X152546095Y-102561895D02*
X152622286Y-102561895D01*
X152622286Y-102561895D02*
X152736571Y-102599990D01*
X152736571Y-102599990D02*
X152774667Y-102638085D01*
X153536571Y-103361895D02*
X153079428Y-103361895D01*
X153308000Y-103361895D02*
X153308000Y-102561895D01*
X153308000Y-102561895D02*
X153231809Y-102676180D01*
X153231809Y-102676180D02*
X153155619Y-102752371D01*
X153155619Y-102752371D02*
X153079428Y-102790466D01*
X139846933Y-122224295D02*
X139846933Y-122795723D01*
X139846933Y-122795723D02*
X139808838Y-122910009D01*
X139808838Y-122910009D02*
X139732647Y-122986200D01*
X139732647Y-122986200D02*
X139618362Y-123024295D01*
X139618362Y-123024295D02*
X139542171Y-123024295D01*
X140189790Y-122300485D02*
X140227886Y-122262390D01*
X140227886Y-122262390D02*
X140304076Y-122224295D01*
X140304076Y-122224295D02*
X140494552Y-122224295D01*
X140494552Y-122224295D02*
X140570743Y-122262390D01*
X140570743Y-122262390D02*
X140608838Y-122300485D01*
X140608838Y-122300485D02*
X140646933Y-122376676D01*
X140646933Y-122376676D02*
X140646933Y-122452866D01*
X140646933Y-122452866D02*
X140608838Y-122567152D01*
X140608838Y-122567152D02*
X140151695Y-123024295D01*
X140151695Y-123024295D02*
X140646933Y-123024295D01*
X166767616Y-91068104D02*
X166729520Y-91106200D01*
X166729520Y-91106200D02*
X166615235Y-91144295D01*
X166615235Y-91144295D02*
X166539044Y-91144295D01*
X166539044Y-91144295D02*
X166424758Y-91106200D01*
X166424758Y-91106200D02*
X166348568Y-91030009D01*
X166348568Y-91030009D02*
X166310473Y-90953819D01*
X166310473Y-90953819D02*
X166272377Y-90801438D01*
X166272377Y-90801438D02*
X166272377Y-90687152D01*
X166272377Y-90687152D02*
X166310473Y-90534771D01*
X166310473Y-90534771D02*
X166348568Y-90458580D01*
X166348568Y-90458580D02*
X166424758Y-90382390D01*
X166424758Y-90382390D02*
X166539044Y-90344295D01*
X166539044Y-90344295D02*
X166615235Y-90344295D01*
X166615235Y-90344295D02*
X166729520Y-90382390D01*
X166729520Y-90382390D02*
X166767616Y-90420485D01*
X167072377Y-90420485D02*
X167110473Y-90382390D01*
X167110473Y-90382390D02*
X167186663Y-90344295D01*
X167186663Y-90344295D02*
X167377139Y-90344295D01*
X167377139Y-90344295D02*
X167453330Y-90382390D01*
X167453330Y-90382390D02*
X167491425Y-90420485D01*
X167491425Y-90420485D02*
X167529520Y-90496676D01*
X167529520Y-90496676D02*
X167529520Y-90572866D01*
X167529520Y-90572866D02*
X167491425Y-90687152D01*
X167491425Y-90687152D02*
X167034282Y-91144295D01*
X167034282Y-91144295D02*
X167529520Y-91144295D01*
X125317314Y-112683704D02*
X125279218Y-112721800D01*
X125279218Y-112721800D02*
X125164933Y-112759895D01*
X125164933Y-112759895D02*
X125088742Y-112759895D01*
X125088742Y-112759895D02*
X124974456Y-112721800D01*
X124974456Y-112721800D02*
X124898266Y-112645609D01*
X124898266Y-112645609D02*
X124860171Y-112569419D01*
X124860171Y-112569419D02*
X124822075Y-112417038D01*
X124822075Y-112417038D02*
X124822075Y-112302752D01*
X124822075Y-112302752D02*
X124860171Y-112150371D01*
X124860171Y-112150371D02*
X124898266Y-112074180D01*
X124898266Y-112074180D02*
X124974456Y-111997990D01*
X124974456Y-111997990D02*
X125088742Y-111959895D01*
X125088742Y-111959895D02*
X125164933Y-111959895D01*
X125164933Y-111959895D02*
X125279218Y-111997990D01*
X125279218Y-111997990D02*
X125317314Y-112036085D01*
X126079218Y-112759895D02*
X125622075Y-112759895D01*
X125850647Y-112759895D02*
X125850647Y-111959895D01*
X125850647Y-111959895D02*
X125774456Y-112074180D01*
X125774456Y-112074180D02*
X125698266Y-112150371D01*
X125698266Y-112150371D02*
X125622075Y-112188466D01*
X126345885Y-111959895D02*
X126879219Y-111959895D01*
X126879219Y-111959895D02*
X126536361Y-112759895D01*
X160587067Y-100834904D02*
X160548971Y-100873000D01*
X160548971Y-100873000D02*
X160434686Y-100911095D01*
X160434686Y-100911095D02*
X160358495Y-100911095D01*
X160358495Y-100911095D02*
X160244209Y-100873000D01*
X160244209Y-100873000D02*
X160168019Y-100796809D01*
X160168019Y-100796809D02*
X160129924Y-100720619D01*
X160129924Y-100720619D02*
X160091828Y-100568238D01*
X160091828Y-100568238D02*
X160091828Y-100453952D01*
X160091828Y-100453952D02*
X160129924Y-100301571D01*
X160129924Y-100301571D02*
X160168019Y-100225380D01*
X160168019Y-100225380D02*
X160244209Y-100149190D01*
X160244209Y-100149190D02*
X160358495Y-100111095D01*
X160358495Y-100111095D02*
X160434686Y-100111095D01*
X160434686Y-100111095D02*
X160548971Y-100149190D01*
X160548971Y-100149190D02*
X160587067Y-100187285D01*
X161044209Y-100453952D02*
X160968019Y-100415857D01*
X160968019Y-100415857D02*
X160929924Y-100377761D01*
X160929924Y-100377761D02*
X160891828Y-100301571D01*
X160891828Y-100301571D02*
X160891828Y-100263476D01*
X160891828Y-100263476D02*
X160929924Y-100187285D01*
X160929924Y-100187285D02*
X160968019Y-100149190D01*
X160968019Y-100149190D02*
X161044209Y-100111095D01*
X161044209Y-100111095D02*
X161196590Y-100111095D01*
X161196590Y-100111095D02*
X161272781Y-100149190D01*
X161272781Y-100149190D02*
X161310876Y-100187285D01*
X161310876Y-100187285D02*
X161348971Y-100263476D01*
X161348971Y-100263476D02*
X161348971Y-100301571D01*
X161348971Y-100301571D02*
X161310876Y-100377761D01*
X161310876Y-100377761D02*
X161272781Y-100415857D01*
X161272781Y-100415857D02*
X161196590Y-100453952D01*
X161196590Y-100453952D02*
X161044209Y-100453952D01*
X161044209Y-100453952D02*
X160968019Y-100492047D01*
X160968019Y-100492047D02*
X160929924Y-100530142D01*
X160929924Y-100530142D02*
X160891828Y-100606333D01*
X160891828Y-100606333D02*
X160891828Y-100758714D01*
X160891828Y-100758714D02*
X160929924Y-100834904D01*
X160929924Y-100834904D02*
X160968019Y-100873000D01*
X160968019Y-100873000D02*
X161044209Y-100911095D01*
X161044209Y-100911095D02*
X161196590Y-100911095D01*
X161196590Y-100911095D02*
X161272781Y-100873000D01*
X161272781Y-100873000D02*
X161310876Y-100834904D01*
X161310876Y-100834904D02*
X161348971Y-100758714D01*
X161348971Y-100758714D02*
X161348971Y-100606333D01*
X161348971Y-100606333D02*
X161310876Y-100530142D01*
X161310876Y-100530142D02*
X161272781Y-100492047D01*
X161272781Y-100492047D02*
X161196590Y-100453952D01*
X150514067Y-103285704D02*
X150475971Y-103323800D01*
X150475971Y-103323800D02*
X150361686Y-103361895D01*
X150361686Y-103361895D02*
X150285495Y-103361895D01*
X150285495Y-103361895D02*
X150171209Y-103323800D01*
X150171209Y-103323800D02*
X150095019Y-103247609D01*
X150095019Y-103247609D02*
X150056924Y-103171419D01*
X150056924Y-103171419D02*
X150018828Y-103019038D01*
X150018828Y-103019038D02*
X150018828Y-102904752D01*
X150018828Y-102904752D02*
X150056924Y-102752371D01*
X150056924Y-102752371D02*
X150095019Y-102676180D01*
X150095019Y-102676180D02*
X150171209Y-102599990D01*
X150171209Y-102599990D02*
X150285495Y-102561895D01*
X150285495Y-102561895D02*
X150361686Y-102561895D01*
X150361686Y-102561895D02*
X150475971Y-102599990D01*
X150475971Y-102599990D02*
X150514067Y-102638085D01*
X151199781Y-102561895D02*
X151047400Y-102561895D01*
X151047400Y-102561895D02*
X150971209Y-102599990D01*
X150971209Y-102599990D02*
X150933114Y-102638085D01*
X150933114Y-102638085D02*
X150856924Y-102752371D01*
X150856924Y-102752371D02*
X150818828Y-102904752D01*
X150818828Y-102904752D02*
X150818828Y-103209514D01*
X150818828Y-103209514D02*
X150856924Y-103285704D01*
X150856924Y-103285704D02*
X150895019Y-103323800D01*
X150895019Y-103323800D02*
X150971209Y-103361895D01*
X150971209Y-103361895D02*
X151123590Y-103361895D01*
X151123590Y-103361895D02*
X151199781Y-103323800D01*
X151199781Y-103323800D02*
X151237876Y-103285704D01*
X151237876Y-103285704D02*
X151275971Y-103209514D01*
X151275971Y-103209514D02*
X151275971Y-103019038D01*
X151275971Y-103019038D02*
X151237876Y-102942847D01*
X151237876Y-102942847D02*
X151199781Y-102904752D01*
X151199781Y-102904752D02*
X151123590Y-102866657D01*
X151123590Y-102866657D02*
X150971209Y-102866657D01*
X150971209Y-102866657D02*
X150895019Y-102904752D01*
X150895019Y-102904752D02*
X150856924Y-102942847D01*
X150856924Y-102942847D02*
X150818828Y-103019038D01*
D10*
X141973371Y-111979019D02*
X141640038Y-111502828D01*
X141401943Y-111979019D02*
X141401943Y-110979019D01*
X141401943Y-110979019D02*
X141782895Y-110979019D01*
X141782895Y-110979019D02*
X141878133Y-111026638D01*
X141878133Y-111026638D02*
X141925752Y-111074257D01*
X141925752Y-111074257D02*
X141973371Y-111169495D01*
X141973371Y-111169495D02*
X141973371Y-111312352D01*
X141973371Y-111312352D02*
X141925752Y-111407590D01*
X141925752Y-111407590D02*
X141878133Y-111455209D01*
X141878133Y-111455209D02*
X141782895Y-111502828D01*
X141782895Y-111502828D02*
X141401943Y-111502828D01*
X142878133Y-111979019D02*
X142401943Y-111979019D01*
X142401943Y-111979019D02*
X142401943Y-110979019D01*
X143163848Y-111074257D02*
X143211467Y-111026638D01*
X143211467Y-111026638D02*
X143306705Y-110979019D01*
X143306705Y-110979019D02*
X143544800Y-110979019D01*
X143544800Y-110979019D02*
X143640038Y-111026638D01*
X143640038Y-111026638D02*
X143687657Y-111074257D01*
X143687657Y-111074257D02*
X143735276Y-111169495D01*
X143735276Y-111169495D02*
X143735276Y-111264733D01*
X143735276Y-111264733D02*
X143687657Y-111407590D01*
X143687657Y-111407590D02*
X143116229Y-111979019D01*
X143116229Y-111979019D02*
X143735276Y-111979019D01*
D12*
X131978457Y-108954295D02*
X131711790Y-108573342D01*
X131521314Y-108954295D02*
X131521314Y-108154295D01*
X131521314Y-108154295D02*
X131826076Y-108154295D01*
X131826076Y-108154295D02*
X131902266Y-108192390D01*
X131902266Y-108192390D02*
X131940361Y-108230485D01*
X131940361Y-108230485D02*
X131978457Y-108306676D01*
X131978457Y-108306676D02*
X131978457Y-108420961D01*
X131978457Y-108420961D02*
X131940361Y-108497152D01*
X131940361Y-108497152D02*
X131902266Y-108535247D01*
X131902266Y-108535247D02*
X131826076Y-108573342D01*
X131826076Y-108573342D02*
X131521314Y-108573342D01*
X132702266Y-108954295D02*
X132321314Y-108954295D01*
X132321314Y-108954295D02*
X132321314Y-108154295D01*
X133387980Y-108954295D02*
X132930837Y-108954295D01*
X133159409Y-108954295D02*
X133159409Y-108154295D01*
X133159409Y-108154295D02*
X133083218Y-108268580D01*
X133083218Y-108268580D02*
X133007028Y-108344771D01*
X133007028Y-108344771D02*
X132930837Y-108382866D01*
X138906267Y-113166295D02*
X138639600Y-112785342D01*
X138449124Y-113166295D02*
X138449124Y-112366295D01*
X138449124Y-112366295D02*
X138753886Y-112366295D01*
X138753886Y-112366295D02*
X138830076Y-112404390D01*
X138830076Y-112404390D02*
X138868171Y-112442485D01*
X138868171Y-112442485D02*
X138906267Y-112518676D01*
X138906267Y-112518676D02*
X138906267Y-112632961D01*
X138906267Y-112632961D02*
X138868171Y-112709152D01*
X138868171Y-112709152D02*
X138830076Y-112747247D01*
X138830076Y-112747247D02*
X138753886Y-112785342D01*
X138753886Y-112785342D02*
X138449124Y-112785342D01*
X139363409Y-112709152D02*
X139287219Y-112671057D01*
X139287219Y-112671057D02*
X139249124Y-112632961D01*
X139249124Y-112632961D02*
X139211028Y-112556771D01*
X139211028Y-112556771D02*
X139211028Y-112518676D01*
X139211028Y-112518676D02*
X139249124Y-112442485D01*
X139249124Y-112442485D02*
X139287219Y-112404390D01*
X139287219Y-112404390D02*
X139363409Y-112366295D01*
X139363409Y-112366295D02*
X139515790Y-112366295D01*
X139515790Y-112366295D02*
X139591981Y-112404390D01*
X139591981Y-112404390D02*
X139630076Y-112442485D01*
X139630076Y-112442485D02*
X139668171Y-112518676D01*
X139668171Y-112518676D02*
X139668171Y-112556771D01*
X139668171Y-112556771D02*
X139630076Y-112632961D01*
X139630076Y-112632961D02*
X139591981Y-112671057D01*
X139591981Y-112671057D02*
X139515790Y-112709152D01*
X139515790Y-112709152D02*
X139363409Y-112709152D01*
X139363409Y-112709152D02*
X139287219Y-112747247D01*
X139287219Y-112747247D02*
X139249124Y-112785342D01*
X139249124Y-112785342D02*
X139211028Y-112861533D01*
X139211028Y-112861533D02*
X139211028Y-113013914D01*
X139211028Y-113013914D02*
X139249124Y-113090104D01*
X139249124Y-113090104D02*
X139287219Y-113128200D01*
X139287219Y-113128200D02*
X139363409Y-113166295D01*
X139363409Y-113166295D02*
X139515790Y-113166295D01*
X139515790Y-113166295D02*
X139591981Y-113128200D01*
X139591981Y-113128200D02*
X139630076Y-113090104D01*
X139630076Y-113090104D02*
X139668171Y-113013914D01*
X139668171Y-113013914D02*
X139668171Y-112861533D01*
X139668171Y-112861533D02*
X139630076Y-112785342D01*
X139630076Y-112785342D02*
X139591981Y-112747247D01*
X139591981Y-112747247D02*
X139515790Y-112709152D01*
X145745276Y-114652295D02*
X145745276Y-115299914D01*
X145745276Y-115299914D02*
X145783371Y-115376104D01*
X145783371Y-115376104D02*
X145821466Y-115414200D01*
X145821466Y-115414200D02*
X145897657Y-115452295D01*
X145897657Y-115452295D02*
X146050038Y-115452295D01*
X146050038Y-115452295D02*
X146126228Y-115414200D01*
X146126228Y-115414200D02*
X146164323Y-115376104D01*
X146164323Y-115376104D02*
X146202419Y-115299914D01*
X146202419Y-115299914D02*
X146202419Y-114652295D01*
X147002418Y-115452295D02*
X146545275Y-115452295D01*
X146773847Y-115452295D02*
X146773847Y-114652295D01*
X146773847Y-114652295D02*
X146697656Y-114766580D01*
X146697656Y-114766580D02*
X146621466Y-114842771D01*
X146621466Y-114842771D02*
X146545275Y-114880866D01*
X152235981Y-98274295D02*
X152502648Y-99074295D01*
X152502648Y-99074295D02*
X152769314Y-98274295D01*
X153493124Y-99074295D02*
X153226457Y-98693342D01*
X153035981Y-99074295D02*
X153035981Y-98274295D01*
X153035981Y-98274295D02*
X153340743Y-98274295D01*
X153340743Y-98274295D02*
X153416933Y-98312390D01*
X153416933Y-98312390D02*
X153455028Y-98350485D01*
X153455028Y-98350485D02*
X153493124Y-98426676D01*
X153493124Y-98426676D02*
X153493124Y-98540961D01*
X153493124Y-98540961D02*
X153455028Y-98617152D01*
X153455028Y-98617152D02*
X153416933Y-98655247D01*
X153416933Y-98655247D02*
X153340743Y-98693342D01*
X153340743Y-98693342D02*
X153035981Y-98693342D01*
X154255028Y-99074295D02*
X153797885Y-99074295D01*
X154026457Y-99074295D02*
X154026457Y-98274295D01*
X154026457Y-98274295D02*
X153950266Y-98388580D01*
X153950266Y-98388580D02*
X153874076Y-98464771D01*
X153874076Y-98464771D02*
X153797885Y-98502866D01*
X153056933Y-93645247D02*
X152790267Y-93645247D01*
X152790267Y-94064295D02*
X152790267Y-93264295D01*
X152790267Y-93264295D02*
X153171219Y-93264295D01*
X153895028Y-94064295D02*
X153437885Y-94064295D01*
X153666457Y-94064295D02*
X153666457Y-93264295D01*
X153666457Y-93264295D02*
X153590266Y-93378580D01*
X153590266Y-93378580D02*
X153514076Y-93454771D01*
X153514076Y-93454771D02*
X153437885Y-93492866D01*
X129803295Y-111588532D02*
X129422342Y-111855199D01*
X129803295Y-112045675D02*
X129003295Y-112045675D01*
X129003295Y-112045675D02*
X129003295Y-111740913D01*
X129003295Y-111740913D02*
X129041390Y-111664723D01*
X129041390Y-111664723D02*
X129079485Y-111626628D01*
X129079485Y-111626628D02*
X129155676Y-111588532D01*
X129155676Y-111588532D02*
X129269961Y-111588532D01*
X129269961Y-111588532D02*
X129346152Y-111626628D01*
X129346152Y-111626628D02*
X129384247Y-111664723D01*
X129384247Y-111664723D02*
X129422342Y-111740913D01*
X129422342Y-111740913D02*
X129422342Y-112045675D01*
X129269961Y-110902818D02*
X129803295Y-110902818D01*
X128965200Y-111093294D02*
X129536628Y-111283771D01*
X129536628Y-111283771D02*
X129536628Y-110788532D01*
D10*
X133902533Y-115057019D02*
X133902533Y-114533209D01*
X133902533Y-114533209D02*
X133854914Y-114437971D01*
X133854914Y-114437971D02*
X133759676Y-114390352D01*
X133759676Y-114390352D02*
X133569200Y-114390352D01*
X133569200Y-114390352D02*
X133473962Y-114437971D01*
X133902533Y-115009400D02*
X133807295Y-115057019D01*
X133807295Y-115057019D02*
X133569200Y-115057019D01*
X133569200Y-115057019D02*
X133473962Y-115009400D01*
X133473962Y-115009400D02*
X133426343Y-114914161D01*
X133426343Y-114914161D02*
X133426343Y-114818923D01*
X133426343Y-114818923D02*
X133473962Y-114723685D01*
X133473962Y-114723685D02*
X133569200Y-114676066D01*
X133569200Y-114676066D02*
X133807295Y-114676066D01*
X133807295Y-114676066D02*
X133902533Y-114628447D01*
X134807295Y-115057019D02*
X134807295Y-114057019D01*
X134807295Y-115009400D02*
X134712057Y-115057019D01*
X134712057Y-115057019D02*
X134521581Y-115057019D01*
X134521581Y-115057019D02*
X134426343Y-115009400D01*
X134426343Y-115009400D02*
X134378724Y-114961780D01*
X134378724Y-114961780D02*
X134331105Y-114866542D01*
X134331105Y-114866542D02*
X134331105Y-114580828D01*
X134331105Y-114580828D02*
X134378724Y-114485590D01*
X134378724Y-114485590D02*
X134426343Y-114437971D01*
X134426343Y-114437971D02*
X134521581Y-114390352D01*
X134521581Y-114390352D02*
X134712057Y-114390352D01*
X134712057Y-114390352D02*
X134807295Y-114437971D01*
X135712057Y-115009400D02*
X135616819Y-115057019D01*
X135616819Y-115057019D02*
X135426343Y-115057019D01*
X135426343Y-115057019D02*
X135331105Y-115009400D01*
X135331105Y-115009400D02*
X135283486Y-114961780D01*
X135283486Y-114961780D02*
X135235867Y-114866542D01*
X135235867Y-114866542D02*
X135235867Y-114580828D01*
X135235867Y-114580828D02*
X135283486Y-114485590D01*
X135283486Y-114485590D02*
X135331105Y-114437971D01*
X135331105Y-114437971D02*
X135426343Y-114390352D01*
X135426343Y-114390352D02*
X135616819Y-114390352D01*
X135616819Y-114390352D02*
X135712057Y-114437971D01*
X126431800Y-115057019D02*
X126431800Y-114057019D01*
X127098466Y-114057019D02*
X127288942Y-114057019D01*
X127288942Y-114057019D02*
X127384180Y-114104638D01*
X127384180Y-114104638D02*
X127479418Y-114199876D01*
X127479418Y-114199876D02*
X127527037Y-114390352D01*
X127527037Y-114390352D02*
X127527037Y-114723685D01*
X127527037Y-114723685D02*
X127479418Y-114914161D01*
X127479418Y-114914161D02*
X127384180Y-115009400D01*
X127384180Y-115009400D02*
X127288942Y-115057019D01*
X127288942Y-115057019D02*
X127098466Y-115057019D01*
X127098466Y-115057019D02*
X127003228Y-115009400D01*
X127003228Y-115009400D02*
X126907990Y-114914161D01*
X126907990Y-114914161D02*
X126860371Y-114723685D01*
X126860371Y-114723685D02*
X126860371Y-114390352D01*
X126860371Y-114390352D02*
X126907990Y-114199876D01*
X126907990Y-114199876D02*
X127003228Y-114104638D01*
X127003228Y-114104638D02*
X127098466Y-114057019D01*
X128384180Y-114390352D02*
X128384180Y-115057019D01*
X128146085Y-114009400D02*
X127907990Y-114723685D01*
X127907990Y-114723685D02*
X128527037Y-114723685D01*
X152209667Y-113507619D02*
X152209667Y-112507619D01*
X152209667Y-112507619D02*
X152590619Y-112507619D01*
X152590619Y-112507619D02*
X152685857Y-112555238D01*
X152685857Y-112555238D02*
X152733476Y-112602857D01*
X152733476Y-112602857D02*
X152781095Y-112698095D01*
X152781095Y-112698095D02*
X152781095Y-112840952D01*
X152781095Y-112840952D02*
X152733476Y-112936190D01*
X152733476Y-112936190D02*
X152685857Y-112983809D01*
X152685857Y-112983809D02*
X152590619Y-113031428D01*
X152590619Y-113031428D02*
X152209667Y-113031428D01*
X153114429Y-112507619D02*
X153352524Y-113507619D01*
X153352524Y-113507619D02*
X153543000Y-112793333D01*
X153543000Y-112793333D02*
X153733476Y-113507619D01*
X153733476Y-113507619D02*
X153971572Y-112507619D01*
X154923952Y-113507619D02*
X154590619Y-113031428D01*
X154352524Y-113507619D02*
X154352524Y-112507619D01*
X154352524Y-112507619D02*
X154733476Y-112507619D01*
X154733476Y-112507619D02*
X154828714Y-112555238D01*
X154828714Y-112555238D02*
X154876333Y-112602857D01*
X154876333Y-112602857D02*
X154923952Y-112698095D01*
X154923952Y-112698095D02*
X154923952Y-112840952D01*
X154923952Y-112840952D02*
X154876333Y-112936190D01*
X154876333Y-112936190D02*
X154828714Y-112983809D01*
X154828714Y-112983809D02*
X154733476Y-113031428D01*
X154733476Y-113031428D02*
X154352524Y-113031428D01*
D12*
X148526533Y-89353895D02*
X148526533Y-89925323D01*
X148526533Y-89925323D02*
X148488438Y-90039609D01*
X148488438Y-90039609D02*
X148412247Y-90115800D01*
X148412247Y-90115800D02*
X148297962Y-90153895D01*
X148297962Y-90153895D02*
X148221771Y-90153895D01*
X149250343Y-89620561D02*
X149250343Y-90153895D01*
X149059867Y-89315800D02*
X148869390Y-89887228D01*
X148869390Y-89887228D02*
X149364629Y-89887228D01*
D10*
X129684685Y-119333809D02*
X129351352Y-119333809D01*
X129351352Y-119857619D02*
X129351352Y-118857619D01*
X129351352Y-118857619D02*
X129827542Y-118857619D01*
X130684685Y-119857619D02*
X130208495Y-119857619D01*
X130208495Y-119857619D02*
X130208495Y-118857619D01*
X131018019Y-118857619D02*
X131018019Y-119667142D01*
X131018019Y-119667142D02*
X131065638Y-119762380D01*
X131065638Y-119762380D02*
X131113257Y-119810000D01*
X131113257Y-119810000D02*
X131208495Y-119857619D01*
X131208495Y-119857619D02*
X131398971Y-119857619D01*
X131398971Y-119857619D02*
X131494209Y-119810000D01*
X131494209Y-119810000D02*
X131541828Y-119762380D01*
X131541828Y-119762380D02*
X131589447Y-119667142D01*
X131589447Y-119667142D02*
X131589447Y-118857619D01*
X132018019Y-119810000D02*
X132160876Y-119857619D01*
X132160876Y-119857619D02*
X132398971Y-119857619D01*
X132398971Y-119857619D02*
X132494209Y-119810000D01*
X132494209Y-119810000D02*
X132541828Y-119762380D01*
X132541828Y-119762380D02*
X132589447Y-119667142D01*
X132589447Y-119667142D02*
X132589447Y-119571904D01*
X132589447Y-119571904D02*
X132541828Y-119476666D01*
X132541828Y-119476666D02*
X132494209Y-119429047D01*
X132494209Y-119429047D02*
X132398971Y-119381428D01*
X132398971Y-119381428D02*
X132208495Y-119333809D01*
X132208495Y-119333809D02*
X132113257Y-119286190D01*
X132113257Y-119286190D02*
X132065638Y-119238571D01*
X132065638Y-119238571D02*
X132018019Y-119143333D01*
X132018019Y-119143333D02*
X132018019Y-119048095D01*
X132018019Y-119048095D02*
X132065638Y-118952857D01*
X132065638Y-118952857D02*
X132113257Y-118905238D01*
X132113257Y-118905238D02*
X132208495Y-118857619D01*
X132208495Y-118857619D02*
X132446590Y-118857619D01*
X132446590Y-118857619D02*
X132589447Y-118905238D01*
X133018019Y-119857619D02*
X133018019Y-118857619D01*
X133018019Y-119333809D02*
X133589447Y-119333809D01*
X133589447Y-119857619D02*
X133589447Y-118857619D01*
D12*
X170148266Y-110321495D02*
X169767314Y-110321495D01*
X169767314Y-110321495D02*
X169767314Y-109521495D01*
X170833980Y-110321495D02*
X170376837Y-110321495D01*
X170605409Y-110321495D02*
X170605409Y-109521495D01*
X170605409Y-109521495D02*
X170529218Y-109635780D01*
X170529218Y-109635780D02*
X170453028Y-109711971D01*
X170453028Y-109711971D02*
X170376837Y-109750066D01*
X161290577Y-97047527D02*
X160991723Y-96691266D01*
X160835173Y-97087370D02*
X160765449Y-96290414D01*
X160765449Y-96290414D02*
X161069051Y-96263852D01*
X161069051Y-96263852D02*
X161148272Y-96295162D01*
X161148272Y-96295162D02*
X161189542Y-96329792D01*
X161189542Y-96329792D02*
X161234133Y-96402372D01*
X161234133Y-96402372D02*
X161244094Y-96516223D01*
X161244094Y-96516223D02*
X161212784Y-96595444D01*
X161212784Y-96595444D02*
X161178154Y-96636714D01*
X161178154Y-96636714D02*
X161105573Y-96681305D01*
X161105573Y-96681305D02*
X160801971Y-96707867D01*
X161941907Y-96187487D02*
X161562405Y-96220689D01*
X161562405Y-96220689D02*
X161557656Y-96603512D01*
X161557656Y-96603512D02*
X161592286Y-96562242D01*
X161592286Y-96562242D02*
X161664867Y-96517651D01*
X161664867Y-96517651D02*
X161854618Y-96501050D01*
X161854618Y-96501050D02*
X161933839Y-96532360D01*
X161933839Y-96532360D02*
X161975109Y-96566990D01*
X161975109Y-96566990D02*
X162019700Y-96639570D01*
X162019700Y-96639570D02*
X162036301Y-96829321D01*
X162036301Y-96829321D02*
X162004991Y-96908542D01*
X162004991Y-96908542D02*
X161970361Y-96949813D01*
X161970361Y-96949813D02*
X161897781Y-96994403D01*
X161897781Y-96994403D02*
X161708030Y-97011005D01*
X161708030Y-97011005D02*
X161628809Y-96979695D01*
X161628809Y-96979695D02*
X161587538Y-96945065D01*
X156025867Y-103996904D02*
X155987771Y-104035000D01*
X155987771Y-104035000D02*
X155873486Y-104073095D01*
X155873486Y-104073095D02*
X155797295Y-104073095D01*
X155797295Y-104073095D02*
X155683009Y-104035000D01*
X155683009Y-104035000D02*
X155606819Y-103958809D01*
X155606819Y-103958809D02*
X155568724Y-103882619D01*
X155568724Y-103882619D02*
X155530628Y-103730238D01*
X155530628Y-103730238D02*
X155530628Y-103615952D01*
X155530628Y-103615952D02*
X155568724Y-103463571D01*
X155568724Y-103463571D02*
X155606819Y-103387380D01*
X155606819Y-103387380D02*
X155683009Y-103311190D01*
X155683009Y-103311190D02*
X155797295Y-103273095D01*
X155797295Y-103273095D02*
X155873486Y-103273095D01*
X155873486Y-103273095D02*
X155987771Y-103311190D01*
X155987771Y-103311190D02*
X156025867Y-103349285D01*
X156749676Y-103273095D02*
X156368724Y-103273095D01*
X156368724Y-103273095D02*
X156330628Y-103654047D01*
X156330628Y-103654047D02*
X156368724Y-103615952D01*
X156368724Y-103615952D02*
X156444914Y-103577857D01*
X156444914Y-103577857D02*
X156635390Y-103577857D01*
X156635390Y-103577857D02*
X156711581Y-103615952D01*
X156711581Y-103615952D02*
X156749676Y-103654047D01*
X156749676Y-103654047D02*
X156787771Y-103730238D01*
X156787771Y-103730238D02*
X156787771Y-103920714D01*
X156787771Y-103920714D02*
X156749676Y-103996904D01*
X156749676Y-103996904D02*
X156711581Y-104035000D01*
X156711581Y-104035000D02*
X156635390Y-104073095D01*
X156635390Y-104073095D02*
X156444914Y-104073095D01*
X156444914Y-104073095D02*
X156368724Y-104035000D01*
X156368724Y-104035000D02*
X156330628Y-103996904D01*
X143246457Y-108954295D02*
X142979790Y-108573342D01*
X142789314Y-108954295D02*
X142789314Y-108154295D01*
X142789314Y-108154295D02*
X143094076Y-108154295D01*
X143094076Y-108154295D02*
X143170266Y-108192390D01*
X143170266Y-108192390D02*
X143208361Y-108230485D01*
X143208361Y-108230485D02*
X143246457Y-108306676D01*
X143246457Y-108306676D02*
X143246457Y-108420961D01*
X143246457Y-108420961D02*
X143208361Y-108497152D01*
X143208361Y-108497152D02*
X143170266Y-108535247D01*
X143170266Y-108535247D02*
X143094076Y-108573342D01*
X143094076Y-108573342D02*
X142789314Y-108573342D01*
X143970266Y-108954295D02*
X143589314Y-108954295D01*
X143589314Y-108954295D02*
X143589314Y-108154295D01*
X144198837Y-108230485D02*
X144236933Y-108192390D01*
X144236933Y-108192390D02*
X144313123Y-108154295D01*
X144313123Y-108154295D02*
X144503599Y-108154295D01*
X144503599Y-108154295D02*
X144579790Y-108192390D01*
X144579790Y-108192390D02*
X144617885Y-108230485D01*
X144617885Y-108230485D02*
X144655980Y-108306676D01*
X144655980Y-108306676D02*
X144655980Y-108382866D01*
X144655980Y-108382866D02*
X144617885Y-108497152D01*
X144617885Y-108497152D02*
X144160742Y-108954295D01*
X144160742Y-108954295D02*
X144655980Y-108954295D01*
D10*
X134454971Y-111979019D02*
X134121638Y-111502828D01*
X133883543Y-111979019D02*
X133883543Y-110979019D01*
X133883543Y-110979019D02*
X134264495Y-110979019D01*
X134264495Y-110979019D02*
X134359733Y-111026638D01*
X134359733Y-111026638D02*
X134407352Y-111074257D01*
X134407352Y-111074257D02*
X134454971Y-111169495D01*
X134454971Y-111169495D02*
X134454971Y-111312352D01*
X134454971Y-111312352D02*
X134407352Y-111407590D01*
X134407352Y-111407590D02*
X134359733Y-111455209D01*
X134359733Y-111455209D02*
X134264495Y-111502828D01*
X134264495Y-111502828D02*
X133883543Y-111502828D01*
X135359733Y-111979019D02*
X134883543Y-111979019D01*
X134883543Y-111979019D02*
X134883543Y-110979019D01*
X136216876Y-111979019D02*
X135645448Y-111979019D01*
X135931162Y-111979019D02*
X135931162Y-110979019D01*
X135931162Y-110979019D02*
X135835924Y-111121876D01*
X135835924Y-111121876D02*
X135740686Y-111217114D01*
X135740686Y-111217114D02*
X135645448Y-111264733D01*
D13*
X166602800Y-100818300D02*
X170362800Y-100818300D01*
X166602800Y-107638300D02*
X170362800Y-107638300D01*
X170362800Y-100818300D02*
X170362800Y-102078300D01*
X170362800Y-107638300D02*
X170362800Y-106378300D01*
X165322800Y-100918300D02*
X165082800Y-100588300D01*
X165562800Y-100588300D01*
X165322800Y-100918300D01*
G36*
X165322800Y-100918300D02*
G01*
X165082800Y-100588300D01*
X165562800Y-100588300D01*
X165322800Y-100918300D01*
G37*
X152223800Y-105595052D02*
X152223800Y-105072548D01*
X153693800Y-105595052D02*
X153693800Y-105072548D01*
D10*
X138643600Y-125099400D02*
X138643600Y-125099400D01*
X138643600Y-125099400D02*
X138743600Y-125099400D01*
X138743600Y-125099400D02*
X138743600Y-125099400D01*
X139243600Y-121999400D02*
X157483600Y-121999400D01*
X139243600Y-128199400D02*
X139243600Y-121999400D01*
D13*
X139270400Y-123270600D02*
X157507600Y-123270600D01*
X139829200Y-127385400D02*
X141607200Y-127385400D01*
X142470800Y-127385400D02*
X144248800Y-127385400D01*
X145061600Y-127385400D02*
X146839600Y-127385400D01*
X147500000Y-127334600D02*
X149278000Y-127334600D01*
X150090800Y-127334600D02*
X151868800Y-127334600D01*
X152630800Y-127334600D02*
X154408800Y-127334600D01*
X155221600Y-127334600D02*
X156999600Y-127334600D01*
D10*
X157483600Y-121999400D02*
X157483600Y-128199400D01*
X157483600Y-128199400D02*
X139243600Y-128199400D01*
X138643600Y-125099400D02*
G75*
G02*
X138743600Y-125099400I50000J0D01*
G01*
X138743600Y-125099400D02*
G75*
G02*
X138643600Y-125099400I-50000J0D01*
G01*
D13*
X162491251Y-93714400D02*
X163291251Y-93714400D01*
X162891251Y-93314400D02*
X162891251Y-94114400D01*
X166900949Y-91949400D02*
X166900949Y-100109400D01*
X166940949Y-91949400D02*
X166940949Y-100109400D01*
X166980949Y-91949400D02*
X166980949Y-100109400D01*
X167020949Y-91950400D02*
X167020949Y-100108400D01*
X167060949Y-91952400D02*
X167060949Y-100106400D01*
X167100949Y-91953400D02*
X167100949Y-100105400D01*
X167140949Y-91955400D02*
X167140949Y-100103400D01*
X167180949Y-91958400D02*
X167180949Y-100100400D01*
X167220949Y-91961400D02*
X167220949Y-100097400D01*
X167260949Y-91964400D02*
X167260949Y-100094400D01*
X167300949Y-91968400D02*
X167300949Y-100090400D01*
X167340949Y-91972400D02*
X167340949Y-100086400D01*
X167380949Y-91977400D02*
X167380949Y-100081400D01*
X167420949Y-91981400D02*
X167420949Y-100077400D01*
X167460949Y-91987400D02*
X167460949Y-100071400D01*
X167500949Y-91992400D02*
X167500949Y-100066400D01*
X167540949Y-91999400D02*
X167540949Y-100059400D01*
X167580949Y-92005400D02*
X167580949Y-100053400D01*
X167621949Y-92012400D02*
X167621949Y-100046400D01*
X167661949Y-92019400D02*
X167661949Y-100039400D01*
X167701949Y-92027400D02*
X167701949Y-100031400D01*
X167741949Y-92035400D02*
X167741949Y-100023400D01*
X167781949Y-92044400D02*
X167781949Y-94989400D01*
X167781949Y-97069400D02*
X167781949Y-100014400D01*
X167821949Y-92053400D02*
X167821949Y-94989400D01*
X167821949Y-97069400D02*
X167821949Y-100005400D01*
X167861949Y-92062400D02*
X167861949Y-94989400D01*
X167861949Y-97069400D02*
X167861949Y-99996400D01*
X167901949Y-92072400D02*
X167901949Y-94989400D01*
X167901949Y-97069400D02*
X167901949Y-99986400D01*
X167941949Y-92082400D02*
X167941949Y-94989400D01*
X167941949Y-97069400D02*
X167941949Y-99976400D01*
X167981949Y-92093400D02*
X167981949Y-94989400D01*
X167981949Y-97069400D02*
X167981949Y-99965400D01*
X168021949Y-92104400D02*
X168021949Y-94989400D01*
X168021949Y-97069400D02*
X168021949Y-99954400D01*
X168061949Y-92115400D02*
X168061949Y-94989400D01*
X168061949Y-97069400D02*
X168061949Y-99943400D01*
X168101949Y-92127400D02*
X168101949Y-94989400D01*
X168101949Y-97069400D02*
X168101949Y-99931400D01*
X168141949Y-92140400D02*
X168141949Y-94989400D01*
X168141949Y-97069400D02*
X168141949Y-99918400D01*
X168181949Y-92152400D02*
X168181949Y-94989400D01*
X168181949Y-97069400D02*
X168181949Y-99906400D01*
X168221949Y-92166400D02*
X168221949Y-94989400D01*
X168221949Y-97069400D02*
X168221949Y-99892400D01*
X168261949Y-92179400D02*
X168261949Y-94989400D01*
X168261949Y-97069400D02*
X168261949Y-99879400D01*
X168301949Y-92194400D02*
X168301949Y-94989400D01*
X168301949Y-97069400D02*
X168301949Y-99864400D01*
X168341949Y-92208400D02*
X168341949Y-94989400D01*
X168341949Y-97069400D02*
X168341949Y-99850400D01*
X168381949Y-92224400D02*
X168381949Y-94989400D01*
X168381949Y-97069400D02*
X168381949Y-99834400D01*
X168421949Y-92239400D02*
X168421949Y-94989400D01*
X168421949Y-97069400D02*
X168421949Y-99819400D01*
X168461949Y-92255400D02*
X168461949Y-94989400D01*
X168461949Y-97069400D02*
X168461949Y-99803400D01*
X168501949Y-92272400D02*
X168501949Y-94989400D01*
X168501949Y-97069400D02*
X168501949Y-99786400D01*
X168541949Y-92289400D02*
X168541949Y-94989400D01*
X168541949Y-97069400D02*
X168541949Y-99769400D01*
X168581949Y-92307400D02*
X168581949Y-94989400D01*
X168581949Y-97069400D02*
X168581949Y-99751400D01*
X168621949Y-92325400D02*
X168621949Y-94989400D01*
X168621949Y-97069400D02*
X168621949Y-99733400D01*
X168661949Y-92343400D02*
X168661949Y-94989400D01*
X168661949Y-97069400D02*
X168661949Y-99715400D01*
X168701949Y-92363400D02*
X168701949Y-94989400D01*
X168701949Y-97069400D02*
X168701949Y-99695400D01*
X168741949Y-92382400D02*
X168741949Y-94989400D01*
X168741949Y-97069400D02*
X168741949Y-99676400D01*
X168781949Y-92402400D02*
X168781949Y-94989400D01*
X168781949Y-97069400D02*
X168781949Y-99656400D01*
X168821949Y-92423400D02*
X168821949Y-94989400D01*
X168821949Y-97069400D02*
X168821949Y-99635400D01*
X168861949Y-92445400D02*
X168861949Y-94989400D01*
X168861949Y-97069400D02*
X168861949Y-99613400D01*
X168901949Y-92467400D02*
X168901949Y-94989400D01*
X168901949Y-97069400D02*
X168901949Y-99591400D01*
X168941949Y-92489400D02*
X168941949Y-94989400D01*
X168941949Y-97069400D02*
X168941949Y-99569400D01*
X168981949Y-92512400D02*
X168981949Y-94989400D01*
X168981949Y-97069400D02*
X168981949Y-99546400D01*
X169021949Y-92536400D02*
X169021949Y-94989400D01*
X169021949Y-97069400D02*
X169021949Y-99522400D01*
X169061949Y-92560400D02*
X169061949Y-94989400D01*
X169061949Y-97069400D02*
X169061949Y-99498400D01*
X169101949Y-92585400D02*
X169101949Y-94989400D01*
X169101949Y-97069400D02*
X169101949Y-99473400D01*
X169141949Y-92611400D02*
X169141949Y-94989400D01*
X169141949Y-97069400D02*
X169141949Y-99447400D01*
X169181949Y-92637400D02*
X169181949Y-94989400D01*
X169181949Y-97069400D02*
X169181949Y-99421400D01*
X169221949Y-92664400D02*
X169221949Y-94989400D01*
X169221949Y-97069400D02*
X169221949Y-99394400D01*
X169261949Y-92691400D02*
X169261949Y-94989400D01*
X169261949Y-97069400D02*
X169261949Y-99367400D01*
X169301949Y-92720400D02*
X169301949Y-94989400D01*
X169301949Y-97069400D02*
X169301949Y-99338400D01*
X169341949Y-92749400D02*
X169341949Y-94989400D01*
X169341949Y-97069400D02*
X169341949Y-99309400D01*
X169381949Y-92779400D02*
X169381949Y-94989400D01*
X169381949Y-97069400D02*
X169381949Y-99279400D01*
X169421949Y-92809400D02*
X169421949Y-94989400D01*
X169421949Y-97069400D02*
X169421949Y-99249400D01*
X169461949Y-92840400D02*
X169461949Y-94989400D01*
X169461949Y-97069400D02*
X169461949Y-99218400D01*
X169501949Y-92873400D02*
X169501949Y-94989400D01*
X169501949Y-97069400D02*
X169501949Y-99185400D01*
X169541949Y-92905400D02*
X169541949Y-94989400D01*
X169541949Y-97069400D02*
X169541949Y-99153400D01*
X169581949Y-92939400D02*
X169581949Y-94989400D01*
X169581949Y-97069400D02*
X169581949Y-99119400D01*
X169621949Y-92974400D02*
X169621949Y-94989400D01*
X169621949Y-97069400D02*
X169621949Y-99084400D01*
X169661949Y-93010400D02*
X169661949Y-94989400D01*
X169661949Y-97069400D02*
X169661949Y-99048400D01*
X169701949Y-93046400D02*
X169701949Y-94989400D01*
X169701949Y-97069400D02*
X169701949Y-99012400D01*
X169741949Y-93084400D02*
X169741949Y-94989400D01*
X169741949Y-97069400D02*
X169741949Y-98974400D01*
X169781949Y-93122400D02*
X169781949Y-94989400D01*
X169781949Y-97069400D02*
X169781949Y-98936400D01*
X169821949Y-93162400D02*
X169821949Y-94989400D01*
X169821949Y-97069400D02*
X169821949Y-98896400D01*
X169861949Y-93203400D02*
X169861949Y-98855400D01*
X169901949Y-93245400D02*
X169901949Y-98813400D01*
X169941949Y-93288400D02*
X169941949Y-98770400D01*
X169981949Y-93332400D02*
X169981949Y-98726400D01*
X170021949Y-93378400D02*
X170021949Y-98680400D01*
X170061949Y-93425400D02*
X170061949Y-98633400D01*
X170101949Y-93473400D02*
X170101949Y-98585400D01*
X170141949Y-93524400D02*
X170141949Y-98534400D01*
X170181949Y-93575400D02*
X170181949Y-98483400D01*
X170221949Y-93629400D02*
X170221949Y-98429400D01*
X170261949Y-93684400D02*
X170261949Y-98374400D01*
X170301949Y-93742400D02*
X170301949Y-98316400D01*
X170341949Y-93801400D02*
X170341949Y-98257400D01*
X170381949Y-93863400D02*
X170381949Y-98195400D01*
X170421949Y-93927400D02*
X170421949Y-98131400D01*
X170461949Y-93995400D02*
X170461949Y-98063400D01*
X170501949Y-94065400D02*
X170501949Y-97993400D01*
X170541949Y-94139400D02*
X170541949Y-97919400D01*
X170581949Y-94216400D02*
X170581949Y-97842400D01*
X170621949Y-94298400D02*
X170621949Y-97760400D01*
X170661949Y-94384400D02*
X170661949Y-97674400D01*
X170701949Y-94477400D02*
X170701949Y-97581400D01*
X170741949Y-94576400D02*
X170741949Y-97482400D01*
X170781949Y-94683400D02*
X170781949Y-97375400D01*
X170821949Y-94800400D02*
X170821949Y-97258400D01*
X170861949Y-94931400D02*
X170861949Y-97127400D01*
X170901949Y-95081400D02*
X170901949Y-96977400D01*
X170941949Y-95261400D02*
X170941949Y-96797400D01*
X170981949Y-95496400D02*
X170981949Y-96562400D01*
X171020949Y-96029400D02*
G75*
G02*
X162780949Y-96029400I-4120000J0D01*
G01*
X162780949Y-96029400D02*
G75*
G02*
X171020949Y-96029400I4120000J0D01*
G01*
X127230200Y-112415252D02*
X127230200Y-111892748D01*
X128700200Y-112415252D02*
X128700200Y-111892748D01*
X158930400Y-104456200D02*
X163140400Y-104456200D01*
X163140400Y-101436200D02*
X158930400Y-101436200D01*
X163140400Y-104456200D02*
X163140400Y-101436200D01*
X149937800Y-105645852D02*
X149937800Y-105123348D01*
X151407800Y-105645852D02*
X151407800Y-105123348D01*
X141592400Y-113735000D02*
X144052400Y-113735000D01*
X144052400Y-112265000D02*
X141592400Y-112265000D01*
X144052400Y-113735000D02*
X144052400Y-112265000D01*
D14*
X127292100Y-92146120D02*
X127292100Y-110345220D01*
X127292100Y-110345220D02*
X137487660Y-110345220D01*
X137487660Y-92146120D02*
X127292100Y-92146120D01*
X137487660Y-110345220D02*
X137487660Y-92146120D01*
D13*
X124019000Y-99746600D02*
X125349000Y-99746600D01*
X124019000Y-101076600D02*
X124019000Y-99746600D01*
X124019000Y-102346600D02*
X124019000Y-110026600D01*
X124019000Y-102346600D02*
X126679000Y-102346600D01*
X124019000Y-110026600D02*
X126679000Y-110026600D01*
X126679000Y-102346600D02*
X126679000Y-110026600D01*
X138632476Y-110856500D02*
X139141924Y-110856500D01*
X138632476Y-111901500D02*
X139141924Y-111901500D01*
X134653600Y-119106600D02*
X134653600Y-115671600D01*
X136293600Y-119106600D02*
X134653600Y-119106600D01*
X152433600Y-115671600D02*
X152433600Y-119106600D01*
X152433600Y-119106600D02*
X150693600Y-119106600D01*
X152163600Y-118806600D02*
X150893600Y-118806600D01*
X152163600Y-117536600D01*
X152163600Y-118806600D01*
G36*
X152163600Y-118806600D02*
G01*
X150893600Y-118806600D01*
X152163600Y-117536600D01*
X152163600Y-118806600D01*
G37*
D11*
X149083600Y-99479400D02*
X149083600Y-96179400D01*
X158083600Y-96179400D02*
X149083600Y-96179400D01*
X158083600Y-99479400D02*
X149083600Y-99479400D01*
X158083600Y-99479400D02*
X158083600Y-96179400D01*
D13*
X165703100Y-88760300D02*
G75*
G02*
X163303100Y-88760300I-1200000J0D01*
G01*
X163303100Y-88760300D02*
G75*
G02*
X165703100Y-88760300I1200000J0D01*
G01*
D11*
X149919200Y-93556200D02*
X149919200Y-95859400D01*
X149919200Y-95859400D02*
X154745200Y-95859400D01*
X151798800Y-91625800D02*
X156624800Y-91625800D01*
X156624800Y-91625800D02*
X156624800Y-94064200D01*
D13*
X131139476Y-111059700D02*
X131648924Y-111059700D01*
X131139476Y-112104700D02*
X131648924Y-112104700D01*
X129014000Y-114549200D02*
X129014000Y-113949200D01*
X129664000Y-113249200D02*
X132464000Y-113249200D01*
X132464000Y-115249200D02*
X129664000Y-115249200D01*
X133114000Y-113949200D02*
X133114000Y-114549200D01*
X129014000Y-113949200D02*
G75*
G02*
X129714000Y-113249200I699999J1D01*
G01*
X129714000Y-115249200D02*
G75*
G02*
X129014000Y-114549200I-1J699999D01*
G01*
X132414000Y-113249200D02*
G75*
G02*
X133114000Y-113949200I0J-700000D01*
G01*
X133114000Y-114549200D02*
G75*
G02*
X132414000Y-115249200I-700000J0D01*
G01*
X165703100Y-121338500D02*
G75*
G02*
X163303100Y-121338500I-1200000J0D01*
G01*
X163303100Y-121338500D02*
G75*
G02*
X165703100Y-121338500I1200000J0D01*
G01*
X156222800Y-113735000D02*
X158682800Y-113735000D01*
X158682800Y-112265000D02*
X156222800Y-112265000D01*
X158682800Y-113735000D02*
X158682800Y-112265000D01*
X135988400Y-90842600D02*
X135988400Y-83142600D01*
X160988400Y-83142600D02*
X135988400Y-83142600D01*
X160988400Y-84842600D02*
X135988400Y-84842600D01*
X160988400Y-88842600D02*
X135988400Y-88842600D01*
X160988400Y-90842600D02*
X135988400Y-90842600D01*
X160988400Y-90842600D02*
X160988400Y-83142600D01*
X139388400Y-83142600D02*
X137388400Y-83142600D01*
X137388400Y-83542600D01*
X139388400Y-83542600D01*
X139388400Y-83142600D01*
X144488400Y-83142600D02*
X142488400Y-83142600D01*
X142488400Y-83542600D01*
X144488400Y-83542600D01*
X144488400Y-83142600D01*
X149488400Y-83142600D02*
X147488400Y-83142600D01*
X147488400Y-83542600D01*
X149488400Y-83542600D01*
X149488400Y-83142600D01*
X154488400Y-83142600D02*
X152488400Y-83142600D01*
X152488400Y-83542600D01*
X154488400Y-83542600D01*
X154488400Y-83142600D01*
X159588400Y-83142600D02*
X157588400Y-83142600D01*
X157588400Y-83542600D01*
X159588400Y-83542600D01*
X159588400Y-83142600D01*
X128917800Y-115524000D02*
X133057800Y-115524000D01*
X128917800Y-115824000D02*
X128917800Y-115524000D01*
X128917800Y-118664000D02*
X128917800Y-118364000D01*
X133057800Y-115524000D02*
X133057800Y-115824000D01*
X133057800Y-118364000D02*
X133057800Y-118664000D01*
X133057800Y-118664000D02*
X128917800Y-118664000D01*
X133178400Y-88760300D02*
G75*
G02*
X130778400Y-88760300I-1200000J0D01*
G01*
X130778400Y-88760300D02*
G75*
G02*
X133178400Y-88760300I1200000J0D01*
G01*
X170128633Y-113675233D02*
G75*
G02*
X159888633Y-113675233I-5120000J0D01*
G01*
X159888633Y-113675233D02*
G75*
G02*
X170128633Y-113675233I5120000J0D01*
G01*
X160114540Y-96013049D02*
X160219999Y-97218445D01*
X162277981Y-93652068D02*
G75*
G02*
X157537981Y-93652068I-2370000J0D01*
G01*
X157537981Y-93652068D02*
G75*
G02*
X162277981Y-93652068I2370000J0D01*
G01*
X155678000Y-107941400D02*
X153496000Y-107941400D01*
X155678000Y-107981400D02*
X153500000Y-107981400D01*
X155678000Y-108021400D02*
X153503000Y-108021400D01*
X155678000Y-108061400D02*
X153507000Y-108061400D01*
X155678000Y-108101400D02*
X153512000Y-108101400D01*
X155678000Y-108141400D02*
X153517000Y-108141400D01*
X155678000Y-108181400D02*
X153523000Y-108181400D01*
X155678000Y-108221400D02*
X153529000Y-108221400D01*
X155678000Y-108261400D02*
X153536000Y-108261400D01*
X155678000Y-108301400D02*
X153543000Y-108301400D01*
X155678000Y-108341400D02*
X153551000Y-108341400D01*
X155678000Y-108381400D02*
X153559000Y-108381400D01*
X155678000Y-108422400D02*
X153568000Y-108422400D01*
X155678000Y-108462400D02*
X153577000Y-108462400D01*
X155678000Y-108502400D02*
X153587000Y-108502400D01*
X155678000Y-108542400D02*
X153597000Y-108542400D01*
X155678000Y-108582400D02*
X153608000Y-108582400D01*
X155678000Y-108622400D02*
X153620000Y-108622400D01*
X155678000Y-108662400D02*
X153632000Y-108662400D01*
X155678000Y-108702400D02*
X153644000Y-108702400D01*
X155678000Y-108742400D02*
X153657000Y-108742400D01*
X155678000Y-108782400D02*
X153671000Y-108782400D01*
X155678000Y-108822400D02*
X153685000Y-108822400D01*
X155678000Y-108862400D02*
X153700000Y-108862400D01*
X155678000Y-108902400D02*
X153716000Y-108902400D01*
X155678000Y-108942400D02*
X153732000Y-108942400D01*
X155678000Y-108982400D02*
X153748000Y-108982400D01*
X155678000Y-109022400D02*
X153766000Y-109022400D01*
X155678000Y-109062400D02*
X153784000Y-109062400D01*
X155678000Y-109102400D02*
X153802000Y-109102400D01*
X155678000Y-109142400D02*
X153822000Y-109142400D01*
X155678000Y-109182400D02*
X153842000Y-109182400D01*
X155678000Y-109222400D02*
X153862000Y-109222400D01*
X155678000Y-109262400D02*
X153884000Y-109262400D01*
X155678000Y-109302400D02*
X153906000Y-109302400D01*
X155678000Y-109342400D02*
X153928000Y-109342400D01*
X155678000Y-109382400D02*
X153952000Y-109382400D01*
X155678000Y-109422400D02*
X153976000Y-109422400D01*
X155678000Y-109462400D02*
X154002000Y-109462400D01*
X155678000Y-109502400D02*
X154028000Y-109502400D01*
X155678000Y-109542400D02*
X154054000Y-109542400D01*
X155678000Y-109582400D02*
X154082000Y-109582400D01*
X155678000Y-109622400D02*
X154111000Y-109622400D01*
X155678000Y-109662400D02*
X154140000Y-109662400D01*
X155678000Y-109702400D02*
X154170000Y-109702400D01*
X155678000Y-109742400D02*
X154202000Y-109742400D01*
X155678000Y-109782400D02*
X154234000Y-109782400D01*
X155678000Y-109822400D02*
X154268000Y-109822400D01*
X155678000Y-109862400D02*
X154302000Y-109862400D01*
X155678000Y-109902400D02*
X154338000Y-109902400D01*
X155678000Y-109942400D02*
X154375000Y-109942400D01*
X155678000Y-109982400D02*
X154413000Y-109982400D01*
X157120000Y-110942400D02*
X156316000Y-110942400D01*
X157351000Y-110902400D02*
X156085000Y-110902400D01*
X157520000Y-110862400D02*
X155916000Y-110862400D01*
X157658000Y-110822400D02*
X155778000Y-110822400D01*
X157777000Y-110782400D02*
X155659000Y-110782400D01*
X157883000Y-110742400D02*
X155553000Y-110742400D01*
X157980000Y-110702400D02*
X155456000Y-110702400D01*
X158068000Y-110662400D02*
X155368000Y-110662400D01*
X158150000Y-110622400D02*
X155286000Y-110622400D01*
X158227000Y-110582400D02*
X155209000Y-110582400D01*
X158299000Y-110542400D02*
X155137000Y-110542400D01*
X158368000Y-110502400D02*
X155068000Y-110502400D01*
X158432000Y-110462400D02*
X155004000Y-110462400D01*
X158494000Y-110422400D02*
X154942000Y-110422400D01*
X158552000Y-110382400D02*
X154884000Y-110382400D01*
X158557000Y-104201159D02*
X158557000Y-104831159D01*
X158608000Y-110342400D02*
X154828000Y-110342400D01*
X158662000Y-110302400D02*
X154774000Y-110302400D01*
X158713000Y-110262400D02*
X154723000Y-110262400D01*
X158762000Y-110222400D02*
X154674000Y-110222400D01*
X158810000Y-110182400D02*
X154626000Y-110182400D01*
X158855000Y-110142400D02*
X154581000Y-110142400D01*
X158872000Y-104516159D02*
X158242000Y-104516159D01*
X158900000Y-110102400D02*
X154536000Y-110102400D01*
X158942000Y-110062400D02*
X154494000Y-110062400D01*
X158983000Y-110022400D02*
X154453000Y-110022400D01*
X159023000Y-109982400D02*
X157758000Y-109982400D01*
X159061000Y-109942400D02*
X157758000Y-109942400D01*
X159098000Y-109902400D02*
X157758000Y-109902400D01*
X159134000Y-109862400D02*
X157758000Y-109862400D01*
X159168000Y-109822400D02*
X157758000Y-109822400D01*
X159202000Y-109782400D02*
X157758000Y-109782400D01*
X159234000Y-109742400D02*
X157758000Y-109742400D01*
X159266000Y-109702400D02*
X157758000Y-109702400D01*
X159296000Y-109662400D02*
X157758000Y-109662400D01*
X159325000Y-109622400D02*
X157758000Y-109622400D01*
X159354000Y-109582400D02*
X157758000Y-109582400D01*
X159382000Y-109542400D02*
X157758000Y-109542400D01*
X159408000Y-109502400D02*
X157758000Y-109502400D01*
X159434000Y-109462400D02*
X157758000Y-109462400D01*
X159460000Y-109422400D02*
X157758000Y-109422400D01*
X159484000Y-109382400D02*
X157758000Y-109382400D01*
X159508000Y-109342400D02*
X157758000Y-109342400D01*
X159530000Y-109302400D02*
X157758000Y-109302400D01*
X159552000Y-109262400D02*
X157758000Y-109262400D01*
X159574000Y-109222400D02*
X157758000Y-109222400D01*
X159594000Y-109182400D02*
X157758000Y-109182400D01*
X159614000Y-109142400D02*
X157758000Y-109142400D01*
X159634000Y-109102400D02*
X157758000Y-109102400D01*
X159652000Y-109062400D02*
X157758000Y-109062400D01*
X159670000Y-109022400D02*
X157758000Y-109022400D01*
X159688000Y-108982400D02*
X157758000Y-108982400D01*
X159704000Y-108942400D02*
X157758000Y-108942400D01*
X159720000Y-108902400D02*
X157758000Y-108902400D01*
X159736000Y-108862400D02*
X157758000Y-108862400D01*
X159751000Y-108822400D02*
X157758000Y-108822400D01*
X159765000Y-108782400D02*
X157758000Y-108782400D01*
X159779000Y-108742400D02*
X157758000Y-108742400D01*
X159792000Y-108702400D02*
X157758000Y-108702400D01*
X159804000Y-108662400D02*
X157758000Y-108662400D01*
X159816000Y-108622400D02*
X157758000Y-108622400D01*
X159828000Y-108582400D02*
X157758000Y-108582400D01*
X159839000Y-108542400D02*
X157758000Y-108542400D01*
X159849000Y-108502400D02*
X157758000Y-108502400D01*
X159859000Y-108462400D02*
X157758000Y-108462400D01*
X159868000Y-108422400D02*
X157758000Y-108422400D01*
X159877000Y-108381400D02*
X157758000Y-108381400D01*
X159885000Y-108341400D02*
X157758000Y-108341400D01*
X159893000Y-108301400D02*
X157758000Y-108301400D01*
X159900000Y-108261400D02*
X157758000Y-108261400D01*
X159907000Y-108221400D02*
X157758000Y-108221400D01*
X159913000Y-108181400D02*
X157758000Y-108181400D01*
X159919000Y-108141400D02*
X157758000Y-108141400D01*
X159924000Y-108101400D02*
X157758000Y-108101400D01*
X159929000Y-108061400D02*
X157758000Y-108061400D01*
X159933000Y-108021400D02*
X157758000Y-108021400D01*
X159936000Y-107981400D02*
X157758000Y-107981400D01*
X159940000Y-107941400D02*
X157758000Y-107941400D01*
X159942000Y-107901400D02*
X153494000Y-107901400D01*
X159945000Y-107861400D02*
X153491000Y-107861400D01*
X159946000Y-107821400D02*
X153490000Y-107821400D01*
X159948000Y-107701400D02*
X153488000Y-107701400D01*
X159948000Y-107741400D02*
X153488000Y-107741400D01*
X159948000Y-107781400D02*
X153488000Y-107781400D01*
X159988000Y-107701400D02*
G75*
G02*
X153448000Y-107701400I-3270000J0D01*
G01*
X153448000Y-107701400D02*
G75*
G02*
X159988000Y-107701400I3270000J0D01*
G01*
D14*
X138391900Y-92146120D02*
X138391900Y-110345220D01*
X138391900Y-110345220D02*
X148587460Y-110345220D01*
X148587460Y-92146120D02*
X138391900Y-92146120D01*
X148587460Y-110345220D02*
X148587460Y-92146120D01*
D13*
X133178400Y-121338500D02*
G75*
G02*
X130778400Y-121338500I-1200000J0D01*
G01*
X130778400Y-121338500D02*
G75*
G02*
X133178400Y-121338500I1200000J0D01*
G01*
X153886000Y-116057400D02*
X158026000Y-116057400D01*
X153886000Y-116357400D02*
X153886000Y-116057400D01*
X153886000Y-119197400D02*
X153886000Y-118897400D01*
X158026000Y-116057400D02*
X158026000Y-116357400D01*
X158026000Y-118897400D02*
X158026000Y-119197400D01*
X158026000Y-119197400D02*
X153886000Y-119197400D01*
X134062600Y-113735000D02*
X136522600Y-113735000D01*
X136522600Y-112265000D02*
X134062600Y-112265000D01*
X136522600Y-113735000D02*
X136522600Y-112265000D01*
M02*
