M48
; DRILL file {KiCad 8.0.8} date 2025-02-21T01:15:52+0300
; FORMAT={3:3/ absolute / metric / suppress leading zeros}
; #@! TF.CreationDate,2025-02-21T01:15:52+03:00
; #@! TF.GenerationSoftware,Kicad,Pcbnew,8.0.8
; #@! TF.FileFunction,Plated,1,2,PTH
FMAT,2
METRIC,TZ
; #@! TA.AperFunction,Plated,PTH,ViaDrill
T1C0.400
; #@! TA.AperFunction,Plated,PTH,ComponentDrill
T2C0.600
; #@! TA.AperFunction,Plated,PTH,ComponentDrill
T3C0.800
; #@! TA.AperFunction,Plated,PTH,ComponentDrill
T4C1.000
; #@! TA.AperFunction,Plated,PTH,ComponentDrill
T5C1.100
; #@! TA.AperFunction,Plated,PTH,ComponentDrill
T6C1.200
; #@! TA.AperFunction,Plated,PTH,ComponentDrill
T7C1.298
; #@! TA.AperFunction,Plated,PTH,ComponentDrill
T8C1.300
; #@! TA.AperFunction,Plated,PTH,ComponentDrill
T9C1.500
; #@! TA.AperFunction,Plated,PTH,ComponentDrill
T10C1.800
%
G90
G05
T1
X126435Y-111436
X126492Y-112674
X130632Y-119304
X133833Y-118745
X134264Y-115291
X135382Y-117551
X135407Y-115265
X138786Y-113309
X141072Y-120015
X143267Y-110388
X143464Y-119405
X143808Y-105330
X144997Y-109753
X145085Y-108077
X145214Y-105349
X145237Y-119405
X146279Y-111963
X146824Y-119405
X147244Y-112903
X148344Y-119405
X148878Y-103624
X149250Y-105842
X152349Y-115443
X152386Y-116626
X153543Y-111074
X154711Y-122758
X154813Y-103022
X155448Y-111277
X155600Y-121742
X156515Y-111277
X159258Y-115799
X169215Y-113157
X169266Y-111887
X169316Y-110820
X170536Y-113208
X170586Y-110820
X170586Y-111938
T2
X151084Y-97229
X156084Y-98429
T3
X150478Y-92083
X156015Y-95283
X156718Y-106451
X156718Y-108951
X165001Y-96029
X168801Y-96029
T4
X125349Y-101077
X125349Y-103617
X125349Y-106157
X125349Y-108697
T5
X140744Y-125099
X143284Y-125099
X145824Y-125099
X148364Y-125099
X150904Y-125099
X153444Y-125099
X155984Y-125099
T6
X159908Y-93652
X160351Y-98713
T7
X128590Y-93607
X128590Y-108844
X136187Y-96147
X136187Y-108844
X139690Y-93607
X139690Y-108844
X147287Y-96147
X147287Y-108844
T8
X163241Y-111907
X166776Y-115443
T9
X138488Y-86843
X143488Y-86843
X148488Y-86843
X153488Y-86843
X158488Y-86843
T10
X131978Y-88760
X131978Y-121339
X164503Y-88760
X164503Y-121339
M30
