G04 #@! TF.GenerationSoftware,KiCad,Pcbnew,8.0.8*
G04 #@! TF.CreationDate,2025-02-21T01:15:49+03:00*
G04 #@! TF.ProjectId,SMHome_2RelayBoardRound_ESP1M_v7,534d486f-6d65-45f3-9252-656c6179426f,12*
G04 #@! TF.SameCoordinates,Original*
G04 #@! TF.FileFunction,Copper,L1,Top*
G04 #@! TF.FilePolarity,Positive*
%FSLAX46Y46*%
G04 Gerber Fmt 4.6, Leading zero omitted, Abs format (unit mm)*
G04 Created by KiCad (PCBNEW 8.0.8) date 2025-02-21 01:15:49*
%MOMM*%
%LPD*%
G01*
G04 APERTURE LIST*
G04 Aperture macros list*
%AMRoundRect*
0 Rectangle with rounded corners*
0 $1 Rounding radius*
0 $2 $3 $4 $5 $6 $7 $8 $9 X,Y pos of 4 corners*
0 Add a 4 corners polygon primitive as box body*
4,1,4,$2,$3,$4,$5,$6,$7,$8,$9,$2,$3,0*
0 Add four circle primitives for the rounded corners*
1,1,$1+$1,$2,$3*
1,1,$1+$1,$4,$5*
1,1,$1+$1,$6,$7*
1,1,$1+$1,$8,$9*
0 Add four rect primitives between the rounded corners*
20,1,$1+$1,$2,$3,$4,$5,0*
20,1,$1+$1,$4,$5,$6,$7,0*
20,1,$1+$1,$6,$7,$8,$9,0*
20,1,$1+$1,$8,$9,$2,$3,0*%
%AMHorizOval*
0 Thick line with rounded ends*
0 $1 width*
0 $2 $3 position (X,Y) of the first rounded end (center of the circle)*
0 $4 $5 position (X,Y) of the second rounded end (center of the circle)*
0 Add line between two ends*
20,1,$1,$2,$3,$4,$5,0*
0 Add two circle primitives to create the rounded ends*
1,1,$1,$2,$3*
1,1,$1,$4,$5*%
%AMFreePoly0*
4,1,19,0.550000,-0.750000,0.000000,-0.750000,0.000000,-0.744911,-0.071157,-0.744911,-0.207708,-0.704816,-0.327430,-0.627875,-0.420627,-0.520320,-0.479746,-0.390866,-0.500000,-0.250000,-0.500000,0.250000,-0.479746,0.390866,-0.420627,0.520320,-0.327430,0.627875,-0.207708,0.704816,-0.071157,0.744911,0.000000,0.744911,0.000000,0.750000,0.550000,0.750000,0.550000,-0.750000,0.550000,-0.750000,
$1*%
%AMFreePoly1*
4,1,19,0.000000,0.744911,0.071157,0.744911,0.207708,0.704816,0.327430,0.627875,0.420627,0.520320,0.479746,0.390866,0.500000,0.250000,0.500000,-0.250000,0.479746,-0.390866,0.420627,-0.520320,0.327430,-0.627875,0.207708,-0.704816,0.071157,-0.744911,0.000000,-0.744911,0.000000,-0.750000,-0.550000,-0.750000,-0.550000,0.750000,0.000000,0.750000,0.000000,0.744911,0.000000,0.744911,
$1*%
G04 Aperture macros list end*
G04 #@! TA.AperFunction,SMDPad,CuDef*
%ADD10RoundRect,0.375000X-0.625000X-0.375000X0.625000X-0.375000X0.625000X0.375000X-0.625000X0.375000X0*%
G04 #@! TD*
G04 #@! TA.AperFunction,SMDPad,CuDef*
%ADD11RoundRect,0.500000X-0.500000X-1.400000X0.500000X-1.400000X0.500000X1.400000X-0.500000X1.400000X0*%
G04 #@! TD*
G04 #@! TA.AperFunction,SMDPad,CuDef*
%ADD12RoundRect,0.250000X0.475000X-0.250000X0.475000X0.250000X-0.475000X0.250000X-0.475000X-0.250000X0*%
G04 #@! TD*
G04 #@! TA.AperFunction,ComponentPad*
%ADD13C,1.800000*%
G04 #@! TD*
G04 #@! TA.AperFunction,ComponentPad*
%ADD14R,1.600000X1.600000*%
G04 #@! TD*
G04 #@! TA.AperFunction,ComponentPad*
%ADD15C,1.600000*%
G04 #@! TD*
G04 #@! TA.AperFunction,SMDPad,CuDef*
%ADD16RoundRect,0.250000X0.412500X0.925000X-0.412500X0.925000X-0.412500X-0.925000X0.412500X-0.925000X0*%
G04 #@! TD*
G04 #@! TA.AperFunction,SMDPad,CuDef*
%ADD17RoundRect,0.237500X0.287500X0.237500X-0.287500X0.237500X-0.287500X-0.237500X0.287500X-0.237500X0*%
G04 #@! TD*
G04 #@! TA.AperFunction,ComponentPad*
%ADD18C,2.500000*%
G04 #@! TD*
G04 #@! TA.AperFunction,ComponentPad*
%ADD19R,1.700000X1.700000*%
G04 #@! TD*
G04 #@! TA.AperFunction,ComponentPad*
%ADD20O,1.700000X1.700000*%
G04 #@! TD*
G04 #@! TA.AperFunction,SMDPad,CuDef*
%ADD21RoundRect,0.237500X-0.250000X-0.237500X0.250000X-0.237500X0.250000X0.237500X-0.250000X0.237500X0*%
G04 #@! TD*
G04 #@! TA.AperFunction,ComponentPad*
%ADD22C,2.200000*%
G04 #@! TD*
G04 #@! TA.AperFunction,SMDPad,CuDef*
%ADD23FreePoly0,0.000000*%
G04 #@! TD*
G04 #@! TA.AperFunction,SMDPad,CuDef*
%ADD24R,1.000000X1.500000*%
G04 #@! TD*
G04 #@! TA.AperFunction,SMDPad,CuDef*
%ADD25FreePoly1,0.000000*%
G04 #@! TD*
G04 #@! TA.AperFunction,SMDPad,CuDef*
%ADD26RoundRect,0.375000X0.375000X0.625000X-0.375000X0.625000X-0.375000X-0.625000X0.375000X-0.625000X0*%
G04 #@! TD*
G04 #@! TA.AperFunction,ComponentPad*
%ADD27C,2.600000*%
G04 #@! TD*
G04 #@! TA.AperFunction,ComponentPad*
%ADD28C,2.400000*%
G04 #@! TD*
G04 #@! TA.AperFunction,ComponentPad*
%ADD29HorizOval,2.400000X0.000000X0.000000X0.000000X0.000000X0*%
G04 #@! TD*
G04 #@! TA.AperFunction,SMDPad,CuDef*
%ADD30RoundRect,0.375000X-0.375000X-0.625000X0.375000X-0.625000X0.375000X0.625000X-0.375000X0.625000X0*%
G04 #@! TD*
G04 #@! TA.AperFunction,ViaPad*
%ADD31C,0.800000*%
G04 #@! TD*
G04 #@! TA.AperFunction,Conductor*
%ADD32C,0.600000*%
G04 #@! TD*
G04 #@! TA.AperFunction,Conductor*
%ADD33C,0.400000*%
G04 #@! TD*
G04 #@! TA.AperFunction,Conductor*
%ADD34C,0.800000*%
G04 #@! TD*
G04 #@! TA.AperFunction,Conductor*
%ADD35C,1.000000*%
G04 #@! TD*
G04 #@! TA.AperFunction,Conductor*
%ADD36C,0.200000*%
G04 #@! TD*
G04 #@! TA.AperFunction,Conductor*
%ADD37C,0.300000*%
G04 #@! TD*
G04 #@! TA.AperFunction,Conductor*
%ADD38C,0.250000*%
G04 #@! TD*
G04 #@! TA.AperFunction,Conductor*
%ADD39C,3.000000*%
G04 #@! TD*
G04 #@! TA.AperFunction,Conductor*
%ADD40C,2.000000*%
G04 #@! TD*
G04 APERTURE END LIST*
D10*
X165302800Y-101928300D03*
D11*
X171602800Y-104228300D03*
D10*
X165302800Y-104228300D03*
X165302800Y-106528300D03*
D12*
X152958800Y-106283800D03*
X152958800Y-104383800D03*
D13*
X140743600Y-125099400D03*
X143283600Y-125099400D03*
X145823600Y-125099400D03*
X148363600Y-125099400D03*
X150903600Y-125099400D03*
X153443600Y-125099400D03*
X155983600Y-125099400D03*
D14*
X165000949Y-96029400D03*
D15*
X168800949Y-96029400D03*
D12*
X127965200Y-113104000D03*
X127965200Y-111204000D03*
D16*
X162217900Y-102946200D03*
X159142900Y-102946200D03*
D12*
X150672800Y-106334600D03*
X150672800Y-104434600D03*
D17*
X143267400Y-113000000D03*
X141517400Y-113000000D03*
D18*
X128590040Y-93606620D03*
X136187180Y-96146620D03*
X128590040Y-108844080D03*
X136187180Y-108844080D03*
D19*
X125349000Y-101076600D03*
D20*
X125349000Y-103616600D03*
X125349000Y-106156600D03*
X125349000Y-108696600D03*
D21*
X137974700Y-111379000D03*
X139799700Y-111379000D03*
D15*
X156083600Y-98429400D03*
X151083600Y-97229400D03*
D22*
X164503100Y-88760300D03*
X150478000Y-92083000D03*
X156015200Y-95283400D03*
D21*
X130481700Y-111582200D03*
X132306700Y-111582200D03*
D23*
X129764000Y-114249200D03*
D24*
X131064000Y-114249200D03*
D25*
X132364000Y-114249200D03*
D22*
X164503100Y-121338500D03*
D17*
X157897800Y-113000000D03*
X156147800Y-113000000D03*
D18*
X158488400Y-86842600D03*
X153488400Y-86842600D03*
X148488400Y-86842600D03*
X143488400Y-86842600D03*
X138488400Y-86842600D03*
D26*
X133087800Y-117094000D03*
X128887800Y-117094000D03*
D22*
X131978400Y-88760300D03*
D27*
X166776400Y-115443000D03*
X163240866Y-111907466D03*
D28*
X159907981Y-93652068D03*
D29*
X160350732Y-98712737D03*
D14*
X156718000Y-106451400D03*
D15*
X156718000Y-108951400D03*
D18*
X139689840Y-93606620D03*
X147286980Y-96146620D03*
X139689840Y-108844080D03*
X147286980Y-108844080D03*
D22*
X131978400Y-121338500D03*
D30*
X153856000Y-117627400D03*
X158056000Y-117627400D03*
D17*
X135737600Y-113000000D03*
X133987600Y-113000000D03*
D31*
X126434800Y-111436200D03*
X159258000Y-115798600D03*
X169316400Y-110820200D03*
X169214800Y-113157000D03*
X169265600Y-111887000D03*
X141071600Y-120015000D03*
X170586400Y-110820200D03*
X154711400Y-122758200D03*
X170586400Y-111937800D03*
X148877800Y-103623600D03*
X170535600Y-113207800D03*
X154813000Y-103022400D03*
X130632200Y-119303800D03*
X135382000Y-117551200D03*
X152385600Y-116625800D03*
X153543000Y-111074200D03*
X148343600Y-119405400D03*
X156514800Y-111277400D03*
X149250400Y-105841800D03*
X152349200Y-115443000D03*
X145237200Y-119405400D03*
X144997000Y-109753400D03*
X143807608Y-105329800D03*
X146823600Y-119405400D03*
X145084763Y-108076963D03*
X145213600Y-105349400D03*
X143267400Y-110388400D03*
X147243800Y-112903000D03*
X155448000Y-111277400D03*
X138785600Y-113309400D03*
X155600400Y-121742200D03*
X143463600Y-119405400D03*
X146278600Y-111963200D03*
X135407400Y-115265200D03*
X133832600Y-118745000D03*
X134264400Y-115290600D03*
X126492000Y-112674400D03*
D32*
X149601300Y-104347100D02*
X148877800Y-103623600D01*
D33*
X156256400Y-125099400D02*
X155983600Y-125099400D01*
D34*
X159258000Y-115951000D02*
X158056000Y-117153000D01*
D35*
X168800949Y-97416451D02*
X168800949Y-96029400D01*
D34*
X154813000Y-103022400D02*
X153451600Y-104383800D01*
D36*
X125741200Y-112129800D02*
X125741200Y-113346000D01*
D34*
X152835700Y-104419400D02*
X152958800Y-104296300D01*
D36*
X130632200Y-119303800D02*
X130632200Y-119219400D01*
D35*
X159041300Y-103047800D02*
X159142900Y-102946200D01*
D34*
X154838400Y-103047800D02*
X159041300Y-103047800D01*
D32*
X150745100Y-104419400D02*
X152835700Y-104419400D01*
D37*
X126434800Y-111436200D02*
X126492000Y-111379000D01*
D34*
X164853600Y-101829400D02*
X164853600Y-100812600D01*
X162864800Y-115798600D02*
X166624000Y-112039400D01*
D37*
X126492000Y-111379000D02*
X127965200Y-111379000D01*
D34*
X158056000Y-117153000D02*
X158056000Y-117627400D01*
D35*
X164853600Y-101829400D02*
X164853600Y-101363800D01*
D34*
X166624000Y-112039400D02*
X170535600Y-112039400D01*
D36*
X126434800Y-111436200D02*
X125741200Y-112129800D01*
D34*
X158056000Y-117627400D02*
X158056000Y-123027000D01*
D36*
X125741200Y-113346000D02*
X128887800Y-116492600D01*
D34*
X154813000Y-103022400D02*
X154838400Y-103047800D01*
X153451600Y-104383800D02*
X152958800Y-104383800D01*
X150672800Y-104347100D02*
X150745100Y-104419400D01*
X158056000Y-123027000D02*
X155983600Y-125099400D01*
X160832800Y-100812600D02*
X159142900Y-102502500D01*
X170535600Y-112039400D02*
X169316400Y-110820200D01*
X159142900Y-102502500D02*
X159142900Y-102946200D01*
X159258000Y-115798600D02*
X162864800Y-115798600D01*
D36*
X128887800Y-117475000D02*
X128887800Y-117094000D01*
D34*
X164853600Y-100812600D02*
X160832800Y-100812600D01*
X159258000Y-115798600D02*
X159258000Y-115951000D01*
D36*
X128887800Y-116492600D02*
X128887800Y-117094000D01*
D35*
X164853600Y-101363800D02*
X168800949Y-97416451D01*
D32*
X150672800Y-104347100D02*
X149601300Y-104347100D01*
D36*
X130632200Y-119219400D02*
X128887800Y-117475000D01*
D32*
X152958800Y-104383800D02*
X152958800Y-104296300D01*
D33*
X152385600Y-116625800D02*
X152385600Y-118176900D01*
D32*
X150672800Y-106422100D02*
X150745100Y-106349800D01*
D33*
X148336000Y-119405400D02*
X148343600Y-119405400D01*
D32*
X158292800Y-104952800D02*
X160211300Y-104952800D01*
X155397200Y-104317800D02*
X157657800Y-104317800D01*
X157657800Y-104317800D02*
X158292800Y-104952800D01*
D33*
X125349000Y-108813600D02*
X125349000Y-108696600D01*
D38*
X153543000Y-111074200D02*
X153543000Y-112318800D01*
D32*
X160211300Y-104952800D02*
X162217900Y-102946200D01*
D33*
X151157100Y-119405400D02*
X148343600Y-119405400D01*
D38*
X153543000Y-112318800D02*
X156616400Y-115392200D01*
D32*
X164766800Y-104216200D02*
X163487900Y-104216200D01*
D33*
X146710400Y-117779800D02*
X148336000Y-119405400D01*
X135382000Y-117551200D02*
X135610600Y-117779800D01*
X150672800Y-108204000D02*
X150672800Y-106422100D01*
D32*
X163487900Y-104216200D02*
X162217900Y-102946200D01*
D33*
X135610600Y-117779800D02*
X146710400Y-117779800D01*
X153543000Y-111074200D02*
X150672800Y-108204000D01*
X152385600Y-118176900D02*
X151157100Y-119405400D01*
D32*
X164853600Y-104129400D02*
X164766800Y-104216200D01*
X153365200Y-106349800D02*
X155397200Y-104317800D01*
D38*
X156616400Y-121926600D02*
X153443600Y-125099400D01*
D32*
X150745100Y-106349800D02*
X153365200Y-106349800D01*
D38*
X156616400Y-115392200D02*
X156616400Y-121926600D01*
D36*
X156514800Y-111277400D02*
X157897800Y-112660400D01*
X157897800Y-112660400D02*
X157897800Y-112852200D01*
D38*
X130481700Y-110735740D02*
X128590040Y-108844080D01*
D35*
X162356800Y-111683800D02*
X164124000Y-111683800D01*
D32*
X140733600Y-106789400D02*
X139689840Y-107833160D01*
X139689840Y-107833160D02*
X139689840Y-108844080D01*
D35*
X164853600Y-110954200D02*
X164853600Y-106429400D01*
X156718000Y-106451400D02*
X157124400Y-106451400D01*
D32*
X128590040Y-108844080D02*
X128590040Y-108569760D01*
X138919600Y-106839400D02*
X139689840Y-107609640D01*
D35*
X164124000Y-111683800D02*
X164853600Y-110954200D01*
D32*
X146733600Y-106789400D02*
X140733600Y-106789400D01*
D33*
X139689840Y-109663860D02*
X137974700Y-111379000D01*
D35*
X157124400Y-106451400D02*
X162356800Y-111683800D01*
D32*
X130320400Y-106839400D02*
X138919600Y-106839400D01*
D33*
X139689840Y-108844080D02*
X139689840Y-109663860D01*
D32*
X139689840Y-107609640D02*
X139689840Y-108844080D01*
X128590040Y-108569760D02*
X130320400Y-106839400D01*
X149250400Y-105841800D02*
X148302800Y-106789400D01*
D38*
X130481700Y-111582200D02*
X130481700Y-110735740D01*
D32*
X148302800Y-106789400D02*
X146733600Y-106789400D01*
D36*
X152349200Y-115443000D02*
X152603200Y-115443000D01*
X152603200Y-115443000D02*
X153856000Y-116695800D01*
X153856000Y-116695800D02*
X153856000Y-117627400D01*
D38*
X143788008Y-105349400D02*
X127081800Y-105349400D01*
X150687968Y-114071400D02*
X147284368Y-110667800D01*
X155956000Y-119354600D02*
X155956000Y-115697000D01*
X153720800Y-121589800D02*
X155956000Y-119354600D01*
X154330400Y-114071400D02*
X150687968Y-114071400D01*
X127081800Y-105349400D02*
X125349000Y-103616600D01*
X143807608Y-105329800D02*
X143788008Y-105349400D01*
X147284368Y-110667800D02*
X145911400Y-110667800D01*
X155956000Y-115697000D02*
X154330400Y-114071400D01*
X145237200Y-119405400D02*
X145237200Y-119519396D01*
X145237200Y-119519396D02*
X147307604Y-121589800D01*
X147307604Y-121589800D02*
X153720800Y-121589800D01*
X145911400Y-110667800D02*
X144997000Y-109753400D01*
X125450800Y-106054800D02*
X125349000Y-106156600D01*
X146823600Y-119569400D02*
X146823600Y-119405400D01*
X153009600Y-120980200D02*
X148234400Y-120980200D01*
X145213600Y-105349400D02*
X144508200Y-106054800D01*
X145135600Y-111175800D02*
X146913600Y-111175800D01*
X146913600Y-111175800D02*
X150418800Y-114681000D01*
X144508200Y-106054800D02*
X125450800Y-106054800D01*
X148234400Y-120980200D02*
X146823600Y-119569400D01*
X144068800Y-109092926D02*
X144068800Y-110109000D01*
X154025600Y-114681000D02*
X155295600Y-115951000D01*
X155295600Y-115951000D02*
X155295600Y-118694200D01*
X144068800Y-110109000D02*
X145135600Y-111175800D01*
X155295600Y-118694200D02*
X153009600Y-120980200D01*
X150418800Y-114681000D02*
X154025600Y-114681000D01*
X145084763Y-108076963D02*
X144068800Y-109092926D01*
X135839200Y-112496600D02*
X135737600Y-112598200D01*
X136187180Y-108844080D02*
X135839200Y-109192060D01*
X135839200Y-109192060D02*
X135839200Y-112496600D01*
X143267400Y-110388400D02*
X143267400Y-112598200D01*
D36*
X155448000Y-111988600D02*
X156147800Y-112688400D01*
X140385800Y-114909600D02*
X138785600Y-113309400D01*
X155448000Y-111277400D02*
X155448000Y-111988600D01*
X145338800Y-114909600D02*
X140385800Y-114909600D01*
X156147800Y-112688400D02*
X156147800Y-112852200D01*
X147243800Y-113004600D02*
X145338800Y-114909600D01*
X147243800Y-112903000D02*
X147243800Y-113004600D01*
X132900000Y-111912400D02*
X132636900Y-111912400D01*
X132636900Y-111912400D02*
X132306700Y-111582200D01*
X133987600Y-113000000D02*
X132900000Y-111912400D01*
D38*
X139799700Y-111379000D02*
X140298200Y-111379000D01*
X140298200Y-111379000D02*
X141517400Y-112598200D01*
D36*
X146405600Y-122326400D02*
X143484600Y-119405400D01*
X155600400Y-121742200D02*
X154432000Y-121742200D01*
X154432000Y-121742200D02*
X153847800Y-122326400D01*
X143484600Y-119405400D02*
X143463600Y-119405400D01*
X153847800Y-122326400D02*
X146405600Y-122326400D01*
D39*
X138262360Y-98221800D02*
X136187180Y-96146620D01*
X148488400Y-94945200D02*
X148488400Y-86842600D01*
D40*
X148488400Y-90093400D02*
X150478000Y-92083000D01*
D39*
X147286980Y-96146620D02*
X145211800Y-98221800D01*
X145211800Y-98221800D02*
X138262360Y-98221800D01*
X147286980Y-96146620D02*
X148488400Y-94945200D01*
X148488400Y-86842600D02*
X148488400Y-90093400D01*
D36*
X146278600Y-112039400D02*
X144068800Y-114249200D01*
X144068800Y-114249200D02*
X140868400Y-114249200D01*
X132516400Y-114096800D02*
X132364000Y-114249200D01*
X139065000Y-112445800D02*
X138176000Y-112445800D01*
X140868400Y-114249200D02*
X139065000Y-112445800D01*
X146278600Y-111963200D02*
X146278600Y-112039400D01*
X138176000Y-112445800D02*
X136525000Y-114096800D01*
X136525000Y-114096800D02*
X132516400Y-114096800D01*
X135407400Y-115265200D02*
X135407400Y-115138200D01*
X134859800Y-114590600D02*
X133822050Y-114590600D01*
X133822050Y-114590600D02*
X132817250Y-115595400D01*
X128618800Y-113104000D02*
X129764000Y-114249200D01*
X135407400Y-115138200D02*
X134859800Y-114590600D01*
X130530600Y-115595400D02*
X129764000Y-114828800D01*
X127965200Y-113104000D02*
X128618800Y-113104000D01*
X129764000Y-114828800D02*
X129764000Y-114249200D01*
X132817250Y-115595400D02*
X130530600Y-115595400D01*
X133087800Y-118000200D02*
X133087800Y-117094000D01*
X133832600Y-118745000D02*
X133087800Y-118000200D01*
X134264400Y-115290600D02*
X134264400Y-117805200D01*
X134264400Y-117805200D02*
X139623800Y-123164600D01*
X139623800Y-123164600D02*
X141348800Y-123164600D01*
X141348800Y-123164600D02*
X143283600Y-125099400D01*
X127025400Y-112141000D02*
X129616200Y-112141000D01*
X131064000Y-113588800D02*
X131064000Y-114249200D01*
X126492000Y-112674400D02*
X127025400Y-112141000D01*
X129616200Y-112141000D02*
X131064000Y-113588800D01*
G04 #@! TA.AperFunction,Conductor*
G36*
X171537800Y-95938735D02*
G01*
X171586915Y-95990002D01*
X171591855Y-96000733D01*
X171638687Y-96116447D01*
X171640447Y-96121052D01*
X171843719Y-96685897D01*
X171958280Y-97004237D01*
X171967761Y-97030581D01*
X171969339Y-97035252D01*
X172260823Y-97956899D01*
X172262217Y-97961627D01*
X172517416Y-98893937D01*
X172518625Y-98898717D01*
X172737167Y-99840346D01*
X172738187Y-99845169D01*
X172919721Y-100794595D01*
X172920552Y-100799455D01*
X173064806Y-101755266D01*
X173065446Y-101760154D01*
X173102343Y-102092207D01*
X173089987Y-102162120D01*
X173041794Y-102214254D01*
X172973066Y-102232057D01*
X172905623Y-102209876D01*
X172879715Y-102186055D01*
X172819013Y-102112090D01*
X172665524Y-101986124D01*
X172490414Y-101892525D01*
X172490399Y-101892519D01*
X172300406Y-101834885D01*
X172300394Y-101834883D01*
X172152326Y-101820300D01*
X171856800Y-101820300D01*
X171856800Y-106636300D01*
X172152309Y-106636300D01*
X172152326Y-106636299D01*
X172300394Y-106621716D01*
X172300406Y-106621714D01*
X172490399Y-106564080D01*
X172490414Y-106564074D01*
X172665524Y-106470475D01*
X172819011Y-106344511D01*
X172944975Y-106191024D01*
X173006657Y-106075626D01*
X173056409Y-106024978D01*
X173125645Y-106009268D01*
X173192384Y-106033484D01*
X173235437Y-106089937D01*
X173243647Y-106140798D01*
X173222434Y-106603094D01*
X173222111Y-106608013D01*
X173140063Y-107571126D01*
X173139549Y-107576029D01*
X173019882Y-108535241D01*
X173019176Y-108540120D01*
X172862082Y-109493893D01*
X172861186Y-109498741D01*
X172666893Y-110445673D01*
X172665807Y-110450482D01*
X172434633Y-111389032D01*
X172433361Y-111393795D01*
X172165636Y-112322625D01*
X172164178Y-112327335D01*
X171860327Y-113244969D01*
X171858686Y-113249618D01*
X171519173Y-114154653D01*
X171517352Y-114159234D01*
X171142679Y-115050333D01*
X171140679Y-115054839D01*
X170731456Y-115930549D01*
X170729282Y-115934974D01*
X170286095Y-116794044D01*
X170283749Y-116798380D01*
X169807320Y-117639410D01*
X169804807Y-117643652D01*
X169295814Y-118465445D01*
X169293137Y-118469584D01*
X168752392Y-119270828D01*
X168749554Y-119274860D01*
X168177892Y-120054319D01*
X168174899Y-120058237D01*
X167573176Y-120814743D01*
X167570033Y-120818540D01*
X166939173Y-121550933D01*
X166935883Y-121554605D01*
X166276852Y-122261760D01*
X166273421Y-122265300D01*
X165587233Y-122946133D01*
X165583666Y-122949536D01*
X164871366Y-123603005D01*
X164867668Y-123606266D01*
X164130368Y-124231356D01*
X164126546Y-124234470D01*
X163365341Y-124830250D01*
X163361400Y-124833212D01*
X162577481Y-125398752D01*
X162573427Y-125401558D01*
X161767980Y-125935999D01*
X161763820Y-125938644D01*
X160938068Y-126441178D01*
X160933807Y-126443658D01*
X160089040Y-126913498D01*
X160084686Y-126915809D01*
X159222200Y-127352235D01*
X159217758Y-127354375D01*
X158338836Y-127756737D01*
X158334314Y-127758701D01*
X157440323Y-128126371D01*
X157435728Y-128128156D01*
X156576532Y-128442815D01*
X156533202Y-128450500D01*
X140291428Y-128450500D01*
X140247932Y-128442754D01*
X139374093Y-128121340D01*
X139369426Y-128119518D01*
X138497174Y-127758701D01*
X138461186Y-127743814D01*
X138456614Y-127741815D01*
X138230538Y-127637586D01*
X137564038Y-127330305D01*
X137559531Y-127328117D01*
X136684053Y-126881464D01*
X136679636Y-126879099D01*
X135822593Y-126397985D01*
X135818273Y-126395446D01*
X135814667Y-126393229D01*
X135185827Y-126006563D01*
X134981011Y-125880624D01*
X134976817Y-125877929D01*
X134160689Y-125330231D01*
X134156602Y-125327368D01*
X133362917Y-124747674D01*
X133358930Y-124744639D01*
X132588912Y-124133845D01*
X132585049Y-124130654D01*
X132362085Y-123938870D01*
X131839898Y-123489707D01*
X131836192Y-123486389D01*
X131423560Y-123101884D01*
X131387360Y-123040811D01*
X131389924Y-122969861D01*
X131430440Y-122911560D01*
X131496044Y-122884419D01*
X131538867Y-122887183D01*
X131725997Y-122932109D01*
X131978400Y-122951974D01*
X132230803Y-122932109D01*
X132476991Y-122873005D01*
X132710902Y-122776116D01*
X132926776Y-122643828D01*
X133119298Y-122479398D01*
X133283728Y-122286876D01*
X133416016Y-122071002D01*
X133512905Y-121837091D01*
X133572009Y-121590903D01*
X133591874Y-121338500D01*
X133572009Y-121086097D01*
X133512905Y-120839909D01*
X133416016Y-120605998D01*
X133283728Y-120390124D01*
X133119298Y-120197602D01*
X132926776Y-120033172D01*
X132710902Y-119900884D01*
X132593113Y-119852094D01*
X132476989Y-119803994D01*
X132308577Y-119763562D01*
X132230803Y-119744891D01*
X131978400Y-119725026D01*
X131725997Y-119744891D01*
X131479810Y-119803994D01*
X131245899Y-119900883D01*
X131030025Y-120033171D01*
X130837502Y-120197602D01*
X130673071Y-120390125D01*
X130540783Y-120605999D01*
X130443894Y-120839910D01*
X130384791Y-121086097D01*
X130364926Y-121338500D01*
X130384791Y-121590903D01*
X130428325Y-121772238D01*
X130424777Y-121843146D01*
X130383457Y-121900879D01*
X130317484Y-121927109D01*
X130247802Y-121913506D01*
X130212855Y-121886717D01*
X129754674Y-121386067D01*
X129751366Y-121382304D01*
X129293242Y-120839910D01*
X129117156Y-120631432D01*
X129114038Y-120627589D01*
X128510178Y-119852090D01*
X128507182Y-119848081D01*
X128475586Y-119803994D01*
X127934621Y-119049178D01*
X127931812Y-119045088D01*
X127391480Y-118224076D01*
X127388811Y-118219840D01*
X127378400Y-118202562D01*
X127124262Y-117780800D01*
X127629800Y-117780800D01*
X127635868Y-117857901D01*
X127683907Y-118037181D01*
X127768174Y-118202562D01*
X127768176Y-118202565D01*
X127884985Y-118346814D01*
X128029234Y-118463623D01*
X128029237Y-118463625D01*
X128194618Y-118547892D01*
X128373898Y-118595931D01*
X128450999Y-118602000D01*
X128633800Y-118602000D01*
X129141800Y-118602000D01*
X129324601Y-118602000D01*
X129401701Y-118595931D01*
X129580981Y-118547892D01*
X129746362Y-118463625D01*
X129746365Y-118463623D01*
X129890614Y-118346814D01*
X130007423Y-118202565D01*
X130007425Y-118202562D01*
X130091692Y-118037181D01*
X130139731Y-117857901D01*
X130145800Y-117780800D01*
X130145800Y-117348000D01*
X129141800Y-117348000D01*
X129141800Y-118602000D01*
X128633800Y-118602000D01*
X128633800Y-117348000D01*
X127629800Y-117348000D01*
X127629800Y-117780800D01*
X127124262Y-117780800D01*
X126881537Y-117377979D01*
X126879059Y-117373676D01*
X126405635Y-116512275D01*
X126403350Y-116507913D01*
X126353104Y-116407199D01*
X127629800Y-116407199D01*
X127629800Y-116840000D01*
X128633800Y-116840000D01*
X128633800Y-115586000D01*
X128450999Y-115586000D01*
X128373898Y-115592068D01*
X128194618Y-115640107D01*
X128029237Y-115724374D01*
X128029234Y-115724376D01*
X127884985Y-115841185D01*
X127768176Y-115985434D01*
X127768174Y-115985437D01*
X127683907Y-116150818D01*
X127635868Y-116330098D01*
X127629800Y-116407199D01*
X126353104Y-116407199D01*
X125964551Y-115628383D01*
X125962444Y-115623942D01*
X125558938Y-114727616D01*
X125556996Y-114723060D01*
X125553584Y-114714598D01*
X125306258Y-114101140D01*
X125189487Y-113811505D01*
X125187706Y-113806822D01*
X124987053Y-113245780D01*
X124856718Y-112881354D01*
X124855130Y-112876619D01*
X124853588Y-112871700D01*
X124561204Y-111938746D01*
X124559802Y-111933937D01*
X124546113Y-111883282D01*
X124303389Y-110985101D01*
X124302181Y-110980245D01*
X124269218Y-110835670D01*
X124083703Y-110022007D01*
X124082688Y-110017111D01*
X123996046Y-109552591D01*
X124003219Y-109481960D01*
X124047440Y-109426417D01*
X124114670Y-109403599D01*
X124183563Y-109420751D01*
X124225393Y-109460575D01*
X124273275Y-109533865D01*
X124273279Y-109533870D01*
X124425762Y-109699508D01*
X124438645Y-109709535D01*
X124603424Y-109837789D01*
X124801426Y-109944942D01*
X124801427Y-109944942D01*
X124801428Y-109944943D01*
X124879457Y-109971730D01*
X125014365Y-110018044D01*
X125236431Y-110055100D01*
X125236435Y-110055100D01*
X125461565Y-110055100D01*
X125461569Y-110055100D01*
X125683635Y-110018044D01*
X125896574Y-109944942D01*
X126094576Y-109837789D01*
X126272240Y-109699506D01*
X126424722Y-109533868D01*
X126547860Y-109345391D01*
X126626660Y-109165743D01*
X126672339Y-109111397D01*
X126740151Y-109090373D01*
X126808565Y-109109349D01*
X126855860Y-109162299D01*
X126864887Y-109188321D01*
X126900738Y-109345393D01*
X126904953Y-109363860D01*
X126956000Y-109493925D01*
X127001242Y-109609200D01*
X127001245Y-109609208D01*
X127133022Y-109837452D01*
X127133024Y-109837455D01*
X127133025Y-109837456D01*
X127293351Y-110038499D01*
X127295587Y-110041302D01*
X127322421Y-110107032D01*
X127309459Y-110176836D01*
X127260816Y-110228550D01*
X127236709Y-110239466D01*
X127167678Y-110262340D01*
X127016860Y-110355365D01*
X127016854Y-110355370D01*
X126891570Y-110480654D01*
X126891565Y-110480660D01*
X126798542Y-110631474D01*
X126742806Y-110799678D01*
X126742805Y-110799681D01*
X126732200Y-110903483D01*
X126732200Y-110950000D01*
X129198200Y-110950000D01*
X129198200Y-110903483D01*
X129187594Y-110799681D01*
X129187592Y-110799669D01*
X129137970Y-110649921D01*
X129135529Y-110578967D01*
X129171837Y-110517956D01*
X129220439Y-110489885D01*
X129232122Y-110486282D01*
X129238805Y-110484221D01*
X129239486Y-110486432D01*
X129300700Y-110480846D01*
X129363667Y-110513644D01*
X129365429Y-110515373D01*
X129605043Y-110754987D01*
X129639069Y-110817299D01*
X129634004Y-110888114D01*
X129623189Y-110910229D01*
X129550991Y-111027280D01*
X129496137Y-111192822D01*
X129485700Y-111294978D01*
X129485700Y-111406500D01*
X129465698Y-111474621D01*
X129412042Y-111521114D01*
X129359700Y-111532500D01*
X129324200Y-111532500D01*
X129256079Y-111512498D01*
X129238174Y-111491834D01*
X129235105Y-111494904D01*
X129198201Y-111458000D01*
X126732200Y-111458000D01*
X126732200Y-111504515D01*
X126733859Y-111520763D01*
X126720880Y-111590563D01*
X126672225Y-111642266D01*
X126671514Y-111642679D01*
X126651779Y-111654073D01*
X126651771Y-111654079D01*
X126614314Y-111691537D01*
X126576854Y-111728996D01*
X126514545Y-111763020D01*
X126487761Y-111765900D01*
X126396513Y-111765900D01*
X126209711Y-111805606D01*
X126035247Y-111883282D01*
X125880744Y-111995535D01*
X125752965Y-112137448D01*
X125752958Y-112137458D01*
X125657476Y-112302838D01*
X125657473Y-112302845D01*
X125598457Y-112484472D01*
X125578496Y-112674400D01*
X125598457Y-112864327D01*
X125623519Y-112941456D01*
X125657473Y-113045956D01*
X125679007Y-113083254D01*
X125752958Y-113211341D01*
X125752965Y-113211351D01*
X125880744Y-113353264D01*
X125880747Y-113353266D01*
X126035248Y-113465518D01*
X126209712Y-113543194D01*
X126396513Y-113582900D01*
X126587485Y-113582900D01*
X126587487Y-113582900D01*
X126644856Y-113570705D01*
X126715643Y-113576105D01*
X126772276Y-113618921D01*
X126790655Y-113654316D01*
X126797696Y-113675566D01*
X126798085Y-113676738D01*
X126849487Y-113760074D01*
X126891170Y-113827652D01*
X126891175Y-113827658D01*
X127016541Y-113953024D01*
X127016547Y-113953029D01*
X127016548Y-113953030D01*
X127167462Y-114046115D01*
X127335774Y-114101887D01*
X127439655Y-114112500D01*
X128490744Y-114112499D01*
X128594626Y-114101887D01*
X128594635Y-114101883D01*
X128598112Y-114101140D01*
X128600322Y-114101305D01*
X128601470Y-114101188D01*
X128601490Y-114101392D01*
X128668911Y-114106432D01*
X128725610Y-114149161D01*
X128750207Y-114215760D01*
X128750500Y-114224346D01*
X128750500Y-114514921D01*
X128750585Y-114515712D01*
X128750585Y-114572284D01*
X128769764Y-114705670D01*
X128769764Y-114705675D01*
X128769765Y-114705675D01*
X128771047Y-114714598D01*
X128812223Y-114854826D01*
X128812229Y-114854841D01*
X128871950Y-114985612D01*
X128871953Y-114985617D01*
X128950968Y-115108568D01*
X128950970Y-115108570D01*
X129042213Y-115213872D01*
X129043630Y-115215629D01*
X129045125Y-115217233D01*
X129155584Y-115312945D01*
X129219471Y-115354003D01*
X129265964Y-115407658D01*
X129276068Y-115477931D01*
X129246575Y-115542512D01*
X129186848Y-115580896D01*
X129151350Y-115586000D01*
X129141800Y-115586000D01*
X129141800Y-116840000D01*
X130145800Y-116840000D01*
X130145800Y-116407199D01*
X130139731Y-116330100D01*
X130135748Y-116315234D01*
X130137436Y-116244258D01*
X130177229Y-116185461D01*
X130242493Y-116157512D01*
X130290067Y-116160915D01*
X130295725Y-116162431D01*
X130295727Y-116162432D01*
X130320817Y-116169154D01*
X130339489Y-116174158D01*
X130339490Y-116174158D01*
X130450489Y-116203900D01*
X130450490Y-116203900D01*
X130610710Y-116203900D01*
X131708991Y-116203900D01*
X131777112Y-116223902D01*
X131823605Y-116277558D01*
X131834602Y-116339787D01*
X131829300Y-116407145D01*
X131829300Y-117780841D01*
X131835369Y-117857969D01*
X131883437Y-118037360D01*
X131967752Y-118202837D01*
X131967757Y-118202846D01*
X132084629Y-118347170D01*
X132228953Y-118464042D01*
X132228958Y-118464045D01*
X132228961Y-118464047D01*
X132394438Y-118548362D01*
X132573829Y-118596430D01*
X132650957Y-118602500D01*
X132777359Y-118602499D01*
X132845480Y-118622501D01*
X132866455Y-118639404D01*
X132882191Y-118655140D01*
X132916217Y-118717452D01*
X132919096Y-118744235D01*
X132919096Y-118744999D01*
X132939057Y-118934927D01*
X132959370Y-118997442D01*
X132998073Y-119116556D01*
X132998076Y-119116561D01*
X133093558Y-119281941D01*
X133093565Y-119281951D01*
X133221344Y-119423864D01*
X133221347Y-119423866D01*
X133375848Y-119536118D01*
X133550312Y-119613794D01*
X133737113Y-119653500D01*
X133928087Y-119653500D01*
X134114888Y-119613794D01*
X134289352Y-119536118D01*
X134443853Y-119423866D01*
X134571640Y-119281944D01*
X134602624Y-119228278D01*
X134654003Y-119179287D01*
X134723717Y-119165850D01*
X134789628Y-119192237D01*
X134800836Y-119202185D01*
X139250165Y-123651515D01*
X139250170Y-123651519D01*
X139250172Y-123651521D01*
X139250173Y-123651522D01*
X139250175Y-123651523D01*
X139318378Y-123690900D01*
X139388927Y-123731632D01*
X139466308Y-123752366D01*
X139543689Y-123773100D01*
X139543690Y-123773100D01*
X139703910Y-123773100D01*
X139787426Y-123773100D01*
X139855547Y-123793102D01*
X139902040Y-123846758D01*
X139912144Y-123917032D01*
X139882650Y-123981612D01*
X139864819Y-123998529D01*
X139831323Y-124024600D01*
X139786378Y-124059583D01*
X139786374Y-124059586D01*
X139628285Y-124231316D01*
X139500615Y-124426731D01*
X139406852Y-124640489D01*
X139406849Y-124640496D01*
X139349550Y-124866766D01*
X139349549Y-124866772D01*
X139349549Y-124866774D01*
X139330273Y-125099400D01*
X139349401Y-125330242D01*
X139349550Y-125332033D01*
X139406849Y-125558303D01*
X139406852Y-125558310D01*
X139500615Y-125772068D01*
X139628285Y-125967483D01*
X139786374Y-126139213D01*
X139786378Y-126139217D01*
X139852250Y-126190487D01*
X139970583Y-126282590D01*
X140175873Y-126393687D01*
X140396649Y-126469480D01*
X140626888Y-126507900D01*
X140626892Y-126507900D01*
X140860308Y-126507900D01*
X140860312Y-126507900D01*
X141090551Y-126469480D01*
X141311327Y-126393687D01*
X141516617Y-126282590D01*
X141700820Y-126139218D01*
X141858914Y-125967483D01*
X141908117Y-125892171D01*
X141962120Y-125846083D01*
X142032468Y-125836508D01*
X142096825Y-125866485D01*
X142119083Y-125892172D01*
X142168285Y-125967483D01*
X142326374Y-126139213D01*
X142326378Y-126139217D01*
X142392250Y-126190487D01*
X142510583Y-126282590D01*
X142715873Y-126393687D01*
X142936649Y-126469480D01*
X143166888Y-126507900D01*
X143166892Y-126507900D01*
X143400308Y-126507900D01*
X143400312Y-126507900D01*
X143630551Y-126469480D01*
X143851327Y-126393687D01*
X144056617Y-126282590D01*
X144240820Y-126139218D01*
X144398914Y-125967483D01*
X144448117Y-125892171D01*
X144502120Y-125846083D01*
X144572468Y-125836508D01*
X144636825Y-125866485D01*
X144659083Y-125892172D01*
X144708285Y-125967483D01*
X144866374Y-126139213D01*
X144866378Y-126139217D01*
X144932250Y-126190487D01*
X145050583Y-126282590D01*
X145255873Y-126393687D01*
X145476649Y-126469480D01*
X145706888Y-126507900D01*
X145706892Y-126507900D01*
X145940308Y-126507900D01*
X145940312Y-126507900D01*
X146170551Y-126469480D01*
X146391327Y-126393687D01*
X146596617Y-126282590D01*
X146780820Y-126139218D01*
X146938914Y-125967483D01*
X146988117Y-125892171D01*
X147042120Y-125846083D01*
X147112468Y-125836508D01*
X147176825Y-125866485D01*
X147199083Y-125892172D01*
X147248285Y-125967483D01*
X147406374Y-126139213D01*
X147406378Y-126139217D01*
X147472250Y-126190487D01*
X147590583Y-126282590D01*
X147795873Y-126393687D01*
X148016649Y-126469480D01*
X148246888Y-126507900D01*
X148246892Y-126507900D01*
X148480308Y-126507900D01*
X148480312Y-126507900D01*
X148710551Y-126469480D01*
X148931327Y-126393687D01*
X149136617Y-126282590D01*
X149320820Y-126139218D01*
X149478914Y-125967483D01*
X149528117Y-125892171D01*
X149582120Y-125846083D01*
X149652468Y-125836508D01*
X149716825Y-125866485D01*
X149739083Y-125892172D01*
X149788285Y-125967483D01*
X149946374Y-126139213D01*
X149946378Y-126139217D01*
X150012250Y-126190487D01*
X150130583Y-126282590D01*
X150335873Y-126393687D01*
X150556649Y-126469480D01*
X150786888Y-126507900D01*
X150786892Y-126507900D01*
X151020308Y-126507900D01*
X151020312Y-126507900D01*
X151250551Y-126469480D01*
X151471327Y-126393687D01*
X151676617Y-126282590D01*
X151860820Y-126139218D01*
X152018914Y-125967483D01*
X152068117Y-125892171D01*
X152122120Y-125846083D01*
X152192468Y-125836508D01*
X152256825Y-125866485D01*
X152279083Y-125892172D01*
X152328285Y-125967483D01*
X152486374Y-126139213D01*
X152486378Y-126139217D01*
X152552250Y-126190487D01*
X152670583Y-126282590D01*
X152875873Y-126393687D01*
X153096649Y-126469480D01*
X153326888Y-126507900D01*
X153326892Y-126507900D01*
X153560308Y-126507900D01*
X153560312Y-126507900D01*
X153790551Y-126469480D01*
X154011327Y-126393687D01*
X154216617Y-126282590D01*
X154400820Y-126139218D01*
X154558914Y-125967483D01*
X154608415Y-125891714D01*
X154662416Y-125845628D01*
X154732764Y-125836052D01*
X154797122Y-125866028D01*
X154819380Y-125891715D01*
X154824395Y-125899391D01*
X154824396Y-125899392D01*
X155458616Y-125265172D01*
X155471082Y-125311692D01*
X155543490Y-125437108D01*
X155645892Y-125539510D01*
X155771308Y-125611918D01*
X155817826Y-125624382D01*
X155182280Y-126259928D01*
X155182281Y-126259929D01*
X155210849Y-126282165D01*
X155210858Y-126282171D01*
X155416074Y-126393227D01*
X155416077Y-126393229D01*
X155636767Y-126468992D01*
X155636776Y-126468994D01*
X155866934Y-126507400D01*
X156100266Y-126507400D01*
X156330423Y-126468994D01*
X156330432Y-126468992D01*
X156551122Y-126393229D01*
X156551125Y-126393227D01*
X156756338Y-126282172D01*
X156784917Y-126259928D01*
X156149372Y-125624382D01*
X156195892Y-125611918D01*
X156321308Y-125539510D01*
X156423710Y-125437108D01*
X156496118Y-125311692D01*
X156508583Y-125265171D01*
X157142803Y-125899391D01*
X157226144Y-125771827D01*
X157319873Y-125558147D01*
X157319875Y-125558143D01*
X157377155Y-125331949D01*
X157396425Y-125099400D01*
X157377155Y-124866850D01*
X157319875Y-124640656D01*
X157319873Y-124640652D01*
X157226147Y-124426978D01*
X157226140Y-124426966D01*
X157142802Y-124299407D01*
X156508582Y-124933626D01*
X156496118Y-124887108D01*
X156423710Y-124761692D01*
X156321308Y-124659290D01*
X156195892Y-124586882D01*
X156149372Y-124574416D01*
X156784918Y-123938870D01*
X156756343Y-123916629D01*
X156756341Y-123916628D01*
X156551125Y-123805572D01*
X156551122Y-123805570D01*
X156330432Y-123729807D01*
X156330423Y-123729805D01*
X156100266Y-123691400D01*
X156051694Y-123691400D01*
X155983573Y-123671398D01*
X155937080Y-123617742D01*
X155926976Y-123547468D01*
X155956470Y-123482888D01*
X155962585Y-123476318D01*
X157108472Y-122330433D01*
X157177801Y-122226675D01*
X157225555Y-122111385D01*
X157249900Y-121988994D01*
X157249900Y-121864206D01*
X157249900Y-121338500D01*
X162889626Y-121338500D01*
X162909491Y-121590902D01*
X162968594Y-121837089D01*
X163005882Y-121927109D01*
X163065484Y-122071002D01*
X163197772Y-122286876D01*
X163362202Y-122479398D01*
X163554724Y-122643828D01*
X163770598Y-122776116D01*
X164004509Y-122873005D01*
X164250697Y-122932109D01*
X164503100Y-122951974D01*
X164755503Y-122932109D01*
X165001691Y-122873005D01*
X165235602Y-122776116D01*
X165451476Y-122643828D01*
X165643998Y-122479398D01*
X165808428Y-122286876D01*
X165940716Y-122071002D01*
X166037605Y-121837091D01*
X166096709Y-121590903D01*
X166116574Y-121338500D01*
X166096709Y-121086097D01*
X166037605Y-120839909D01*
X165940716Y-120605998D01*
X165808428Y-120390124D01*
X165643998Y-120197602D01*
X165451476Y-120033172D01*
X165235602Y-119900884D01*
X165117813Y-119852094D01*
X165001689Y-119803994D01*
X164833277Y-119763562D01*
X164755503Y-119744891D01*
X164503100Y-119725026D01*
X164250697Y-119744891D01*
X164004510Y-119803994D01*
X163770599Y-119900883D01*
X163554725Y-120033171D01*
X163362202Y-120197602D01*
X163197771Y-120390125D01*
X163065483Y-120605999D01*
X162968594Y-120839910D01*
X162909491Y-121086097D01*
X162889626Y-121338500D01*
X157249900Y-121338500D01*
X157249900Y-119215242D01*
X157269902Y-119147121D01*
X157323558Y-119100628D01*
X157393832Y-119090524D01*
X157408512Y-119093536D01*
X157542098Y-119129331D01*
X157619199Y-119135400D01*
X157802000Y-119135400D01*
X158310000Y-119135400D01*
X158492801Y-119135400D01*
X158569901Y-119129331D01*
X158749181Y-119081292D01*
X158914562Y-118997025D01*
X158914565Y-118997023D01*
X159058814Y-118880214D01*
X159175623Y-118735965D01*
X159175625Y-118735962D01*
X159259892Y-118570581D01*
X159307931Y-118391301D01*
X159314000Y-118314200D01*
X159314000Y-117881400D01*
X158310000Y-117881400D01*
X158310000Y-119135400D01*
X157802000Y-119135400D01*
X157802000Y-117373400D01*
X158310000Y-117373400D01*
X159314000Y-117373400D01*
X159314000Y-116940599D01*
X159307931Y-116863498D01*
X159259892Y-116684218D01*
X159175625Y-116518837D01*
X159175623Y-116518834D01*
X159058814Y-116374585D01*
X158914565Y-116257776D01*
X158914562Y-116257774D01*
X158749181Y-116173507D01*
X158569901Y-116125468D01*
X158492801Y-116119400D01*
X158310000Y-116119400D01*
X158310000Y-117373400D01*
X157802000Y-117373400D01*
X157802000Y-116119400D01*
X157619199Y-116119400D01*
X157542102Y-116125468D01*
X157408511Y-116161264D01*
X157337535Y-116159574D01*
X157278739Y-116119780D01*
X157250791Y-116054516D01*
X157249900Y-116039557D01*
X157249900Y-115443000D01*
X164962829Y-115443000D01*
X164983085Y-115713302D01*
X165043401Y-115977560D01*
X165043402Y-115977562D01*
X165142427Y-116229875D01*
X165142430Y-116229883D01*
X165277954Y-116464617D01*
X165277956Y-116464620D01*
X165277957Y-116464621D01*
X165342937Y-116546104D01*
X165446961Y-116676546D01*
X165575945Y-116796224D01*
X165645657Y-116860907D01*
X165645663Y-116860911D01*
X165869605Y-117013593D01*
X165869612Y-117013597D01*
X165869615Y-117013599D01*
X165924693Y-117040123D01*
X166113823Y-117131204D01*
X166113836Y-117131209D01*
X166372831Y-117211098D01*
X166372833Y-117211098D01*
X166372842Y-117211101D01*
X166640872Y-117251500D01*
X166640876Y-117251500D01*
X166911924Y-117251500D01*
X166911928Y-117251500D01*
X167179958Y-117211101D01*
X167179968Y-117211098D01*
X167438963Y-117131209D01*
X167438965Y-117131207D01*
X167438972Y-117131206D01*
X167438977Y-117131203D01*
X167438981Y-117131202D01*
X167683180Y-117013602D01*
X167683180Y-117013601D01*
X167683186Y-117013599D01*
X167907143Y-116860907D01*
X168071929Y-116708009D01*
X168105838Y-116676546D01*
X168105838Y-116676544D01*
X168105842Y-116676542D01*
X168274843Y-116464621D01*
X168394723Y-116256982D01*
X168410369Y-116229883D01*
X168410371Y-116229879D01*
X168509399Y-115977559D01*
X168569715Y-115713299D01*
X168589971Y-115443000D01*
X168569715Y-115172701D01*
X168509399Y-114908441D01*
X168410371Y-114656121D01*
X168410370Y-114656120D01*
X168410369Y-114656116D01*
X168274845Y-114421382D01*
X168105838Y-114209453D01*
X167907148Y-114025098D01*
X167907142Y-114025092D01*
X167801438Y-113953024D01*
X167683186Y-113872401D01*
X167683183Y-113872400D01*
X167683181Y-113872398D01*
X167683180Y-113872397D01*
X167438981Y-113754797D01*
X167438963Y-113754790D01*
X167179968Y-113674901D01*
X167179960Y-113674899D01*
X167179958Y-113674899D01*
X166911928Y-113634500D01*
X166640872Y-113634500D01*
X166372842Y-113674899D01*
X166372840Y-113674899D01*
X166372831Y-113674901D01*
X166113836Y-113754790D01*
X166113823Y-113754795D01*
X165869612Y-113872402D01*
X165869605Y-113872406D01*
X165645663Y-114025088D01*
X165645651Y-114025098D01*
X165446961Y-114209453D01*
X165277954Y-114421382D01*
X165142430Y-114656116D01*
X165142427Y-114656124D01*
X165043402Y-114908437D01*
X165043401Y-114908439D01*
X164983085Y-115172697D01*
X164962829Y-115443000D01*
X157249900Y-115443000D01*
X157249900Y-115329807D01*
X157249899Y-115329803D01*
X157246546Y-115312945D01*
X157225555Y-115207415D01*
X157177800Y-115092125D01*
X157108471Y-114988367D01*
X157020233Y-114900129D01*
X156318698Y-114198594D01*
X156284672Y-114136282D01*
X156289737Y-114065467D01*
X156332284Y-114008631D01*
X156398804Y-113983820D01*
X156407793Y-113983499D01*
X156485012Y-113983499D01*
X156587181Y-113973062D01*
X156752720Y-113918209D01*
X156901146Y-113826658D01*
X156933705Y-113794098D01*
X156996015Y-113760074D01*
X157066831Y-113765138D01*
X157111894Y-113794098D01*
X157144454Y-113826658D01*
X157292880Y-113918209D01*
X157458419Y-113973062D01*
X157560587Y-113983500D01*
X158235012Y-113983499D01*
X158337181Y-113973062D01*
X158502720Y-113918209D01*
X158651146Y-113826658D01*
X158774458Y-113703346D01*
X158866009Y-113554920D01*
X158920862Y-113389381D01*
X158931300Y-113287213D01*
X158931299Y-112712788D01*
X158920862Y-112610619D01*
X158866009Y-112445080D01*
X158774458Y-112296654D01*
X158774457Y-112296653D01*
X158774452Y-112296647D01*
X158651152Y-112173347D01*
X158651146Y-112173342D01*
X158580372Y-112129688D01*
X158502720Y-112081791D01*
X158337181Y-112026938D01*
X158337179Y-112026937D01*
X158337177Y-112026937D01*
X158235021Y-112016500D01*
X158235013Y-112016500D01*
X158166639Y-112016500D01*
X158098518Y-111996498D01*
X158077544Y-111979595D01*
X157465209Y-111367260D01*
X157431183Y-111304948D01*
X157428304Y-111278165D01*
X157428304Y-111277401D01*
X157408342Y-111087472D01*
X157397313Y-111053529D01*
X157349327Y-110905844D01*
X157253840Y-110740456D01*
X157253838Y-110740454D01*
X157253834Y-110740448D01*
X157126055Y-110598535D01*
X157060562Y-110550952D01*
X156971552Y-110486282D01*
X156960523Y-110481371D01*
X156947909Y-110475755D01*
X156893814Y-110429774D01*
X156873166Y-110361846D01*
X156892520Y-110293538D01*
X156945731Y-110246538D01*
X156966549Y-110238942D01*
X157167069Y-110185213D01*
X157167073Y-110185211D01*
X157374497Y-110088488D01*
X157445888Y-110038499D01*
X157445888Y-110038497D01*
X156758791Y-109351400D01*
X156770661Y-109351400D01*
X156872394Y-109324141D01*
X156963606Y-109271480D01*
X157038080Y-109197006D01*
X157090741Y-109105794D01*
X157118000Y-109004061D01*
X157118000Y-108992189D01*
X157805098Y-109679288D01*
X157805099Y-109679288D01*
X157855088Y-109607897D01*
X157951811Y-109400473D01*
X157951813Y-109400468D01*
X158011048Y-109179402D01*
X158020894Y-109066858D01*
X158046757Y-109000740D01*
X158104261Y-108959100D01*
X158175148Y-108955159D01*
X158235510Y-108988744D01*
X161428690Y-112181924D01*
X161462436Y-112242981D01*
X161507867Y-112442026D01*
X161507868Y-112442028D01*
X161606893Y-112694341D01*
X161606896Y-112694349D01*
X161742420Y-112929083D01*
X161911427Y-113141012D01*
X162028478Y-113249618D01*
X162110123Y-113325373D01*
X162110129Y-113325377D01*
X162334071Y-113478059D01*
X162334078Y-113478063D01*
X162334081Y-113478065D01*
X162469320Y-113543193D01*
X162578289Y-113595670D01*
X162578302Y-113595675D01*
X162837297Y-113675564D01*
X162837299Y-113675564D01*
X162837308Y-113675567D01*
X163105338Y-113715966D01*
X163105342Y-113715966D01*
X163376390Y-113715966D01*
X163376394Y-113715966D01*
X163644424Y-113675567D01*
X163668476Y-113668148D01*
X163903429Y-113595675D01*
X163903431Y-113595673D01*
X163903438Y-113595672D01*
X163903443Y-113595669D01*
X163903447Y-113595668D01*
X164147646Y-113478068D01*
X164147646Y-113478067D01*
X164147652Y-113478065D01*
X164371609Y-113325373D01*
X164570308Y-113141008D01*
X164739309Y-112929087D01*
X164869073Y-112704329D01*
X164874835Y-112694349D01*
X164874837Y-112694345D01*
X164973865Y-112442025D01*
X165019570Y-112241773D01*
X165053314Y-112180718D01*
X165636953Y-111597081D01*
X165747321Y-111431904D01*
X165823344Y-111248369D01*
X165862100Y-111053529D01*
X165862100Y-110854871D01*
X165862100Y-107912799D01*
X165882102Y-107844678D01*
X165935758Y-107798185D01*
X165987176Y-107786999D01*
X165987176Y-107786993D01*
X165987179Y-107786992D01*
X165987176Y-107786896D01*
X165987759Y-107786873D01*
X165988100Y-107786799D01*
X165989642Y-107786799D01*
X166066771Y-107780730D01*
X166246162Y-107732662D01*
X166411639Y-107648347D01*
X166411643Y-107648343D01*
X166411646Y-107648342D01*
X166555970Y-107531470D01*
X166672842Y-107387146D01*
X166672843Y-107387143D01*
X166672847Y-107387139D01*
X166757162Y-107221662D01*
X166805230Y-107042271D01*
X166811300Y-106965143D01*
X166811299Y-106091458D01*
X166805230Y-106014329D01*
X166757162Y-105834938D01*
X166677109Y-105677826D01*
X170094800Y-105677826D01*
X170109383Y-105825894D01*
X170109385Y-105825906D01*
X170167019Y-106015899D01*
X170167025Y-106015914D01*
X170260624Y-106191024D01*
X170386588Y-106344511D01*
X170540075Y-106470475D01*
X170715185Y-106564074D01*
X170715200Y-106564080D01*
X170905193Y-106621714D01*
X170905205Y-106621716D01*
X171053273Y-106636299D01*
X171053291Y-106636300D01*
X171348800Y-106636300D01*
X171348800Y-104482300D01*
X170094800Y-104482300D01*
X170094800Y-105677826D01*
X166677109Y-105677826D01*
X166672847Y-105669461D01*
X166672845Y-105669458D01*
X166672842Y-105669453D01*
X166555970Y-105525129D01*
X166495572Y-105476220D01*
X166455220Y-105417806D01*
X166452854Y-105346849D01*
X166489227Y-105285877D01*
X166495572Y-105280380D01*
X166555970Y-105231470D01*
X166672842Y-105087146D01*
X166672843Y-105087143D01*
X166672847Y-105087139D01*
X166757162Y-104921662D01*
X166805230Y-104742271D01*
X166811300Y-104665143D01*
X166811299Y-103791458D01*
X166805230Y-103714329D01*
X166757162Y-103534938D01*
X166672847Y-103369461D01*
X166672845Y-103369458D01*
X166672842Y-103369453D01*
X166555972Y-103225131D01*
X166495174Y-103175898D01*
X166454822Y-103117484D01*
X166452458Y-103046526D01*
X166488830Y-102985555D01*
X166495176Y-102980057D01*
X166555613Y-102931117D01*
X166672423Y-102786865D01*
X166672425Y-102786862D01*
X166676547Y-102778773D01*
X170094800Y-102778773D01*
X170094800Y-103974300D01*
X171348800Y-103974300D01*
X171348800Y-101820300D01*
X171053273Y-101820300D01*
X170905205Y-101834883D01*
X170905193Y-101834885D01*
X170715200Y-101892519D01*
X170715185Y-101892525D01*
X170540075Y-101986124D01*
X170386588Y-102112088D01*
X170260624Y-102265575D01*
X170167025Y-102440685D01*
X170167019Y-102440700D01*
X170109385Y-102630693D01*
X170109383Y-102630705D01*
X170094800Y-102778773D01*
X166676547Y-102778773D01*
X166756692Y-102621481D01*
X166804731Y-102442201D01*
X166810800Y-102365100D01*
X166810800Y-102182300D01*
X163794800Y-102182300D01*
X163794800Y-102365100D01*
X163800868Y-102442201D01*
X163848907Y-102621481D01*
X163933174Y-102786862D01*
X163933176Y-102786865D01*
X164049985Y-102931114D01*
X164110424Y-102980057D01*
X164150776Y-103038472D01*
X164153142Y-103109429D01*
X164116769Y-103170401D01*
X164110425Y-103175898D01*
X164049630Y-103225129D01*
X163954505Y-103342598D01*
X163896090Y-103382950D01*
X163825133Y-103385314D01*
X163767490Y-103352398D01*
X163425804Y-103010712D01*
X163391778Y-102948400D01*
X163388899Y-102921617D01*
X163388899Y-101970655D01*
X163378287Y-101866774D01*
X163367720Y-101834885D01*
X163331152Y-101724530D01*
X163328713Y-101653577D01*
X163365021Y-101592567D01*
X163428550Y-101560872D01*
X163456118Y-101559013D01*
X163674173Y-101568314D01*
X163741376Y-101591200D01*
X163785540Y-101646788D01*
X163789970Y-101669471D01*
X163794799Y-101674300D01*
X166810800Y-101674300D01*
X166810800Y-101491499D01*
X166804731Y-101414398D01*
X166756692Y-101235118D01*
X166672425Y-101069737D01*
X166672423Y-101069734D01*
X166555614Y-100925485D01*
X166411365Y-100808676D01*
X166411358Y-100808671D01*
X166330607Y-100767526D01*
X166278992Y-100718778D01*
X166261927Y-100649863D01*
X166281368Y-100587839D01*
X168332731Y-97349616D01*
X168386080Y-97302777D01*
X168456287Y-97292215D01*
X168471780Y-97295340D01*
X168572952Y-97322448D01*
X168800949Y-97342395D01*
X169028951Y-97322448D01*
X169250017Y-97263213D01*
X169250022Y-97263211D01*
X169457446Y-97166488D01*
X169528837Y-97116499D01*
X169528837Y-97116497D01*
X168887001Y-96474661D01*
X168928361Y-96409370D01*
X168955343Y-96402141D01*
X169046555Y-96349480D01*
X169121029Y-96275006D01*
X169173690Y-96183794D01*
X169200949Y-96082061D01*
X169200949Y-96070191D01*
X169888046Y-96757288D01*
X169888048Y-96757288D01*
X169938037Y-96685897D01*
X170034760Y-96478473D01*
X170034762Y-96478468D01*
X170093997Y-96257402D01*
X170107846Y-96099107D01*
X170133709Y-96032988D01*
X170191213Y-95991349D01*
X170227067Y-95984246D01*
X171468770Y-95922161D01*
X171537800Y-95938735D01*
G37*
G04 #@! TD.AperFunction*
G04 #@! TA.AperFunction,Conductor*
G36*
X142860581Y-118508302D02*
G01*
X142907074Y-118561958D01*
X142917178Y-118632232D01*
X142887684Y-118696812D01*
X142866521Y-118716235D01*
X142862745Y-118718978D01*
X142852343Y-118726536D01*
X142724565Y-118868448D01*
X142724558Y-118868458D01*
X142629076Y-119033838D01*
X142629073Y-119033845D01*
X142570057Y-119215472D01*
X142550096Y-119405400D01*
X142570057Y-119595327D01*
X142588959Y-119653500D01*
X142629073Y-119776956D01*
X142629076Y-119776961D01*
X142724558Y-119942341D01*
X142724565Y-119942351D01*
X142852344Y-120084264D01*
X142913599Y-120128768D01*
X143006848Y-120196518D01*
X143181312Y-120274194D01*
X143368113Y-120313900D01*
X143480361Y-120313900D01*
X143548482Y-120333902D01*
X143569456Y-120350805D01*
X146031966Y-122813316D01*
X146031970Y-122813319D01*
X146031973Y-122813322D01*
X146135347Y-122873005D01*
X146170728Y-122893432D01*
X146325489Y-122934900D01*
X146325490Y-122934900D01*
X146325491Y-122934900D01*
X153927910Y-122934900D01*
X153927911Y-122934900D01*
X154005291Y-122914166D01*
X154082673Y-122893432D01*
X154221427Y-122813322D01*
X154647145Y-122387603D01*
X154709456Y-122353580D01*
X154736239Y-122350700D01*
X154869690Y-122350700D01*
X154937811Y-122370702D01*
X154963326Y-122392390D01*
X154989144Y-122421064D01*
X154989145Y-122421065D01*
X155006996Y-122434035D01*
X155050349Y-122490258D01*
X155056424Y-122560994D01*
X155023291Y-122623785D01*
X155022029Y-122625065D01*
X153940877Y-123706217D01*
X153878565Y-123740243D01*
X153810873Y-123736296D01*
X153790557Y-123729322D01*
X153790548Y-123729319D01*
X153692011Y-123712876D01*
X153560312Y-123690900D01*
X153326888Y-123690900D01*
X153211666Y-123710127D01*
X153096651Y-123729319D01*
X153096644Y-123729321D01*
X152875876Y-123805111D01*
X152875873Y-123805113D01*
X152670585Y-123916209D01*
X152670583Y-123916210D01*
X152486378Y-124059582D01*
X152486374Y-124059586D01*
X152328285Y-124231316D01*
X152279083Y-124306627D01*
X152225079Y-124352716D01*
X152154731Y-124362291D01*
X152090374Y-124332314D01*
X152068117Y-124306627D01*
X152018914Y-124231316D01*
X151860825Y-124059586D01*
X151860821Y-124059582D01*
X151705730Y-123938870D01*
X151676617Y-123916210D01*
X151471327Y-123805113D01*
X151471324Y-123805112D01*
X151471323Y-123805111D01*
X151250555Y-123729321D01*
X151250548Y-123729319D01*
X151152011Y-123712876D01*
X151020312Y-123690900D01*
X150786888Y-123690900D01*
X150671666Y-123710127D01*
X150556651Y-123729319D01*
X150556644Y-123729321D01*
X150335876Y-123805111D01*
X150335873Y-123805113D01*
X150130585Y-123916209D01*
X150130583Y-123916210D01*
X149946378Y-124059582D01*
X149946374Y-124059586D01*
X149788285Y-124231316D01*
X149739083Y-124306627D01*
X149685079Y-124352716D01*
X149614731Y-124362291D01*
X149550374Y-124332314D01*
X149528117Y-124306627D01*
X149478914Y-124231316D01*
X149320825Y-124059586D01*
X149320821Y-124059582D01*
X149165730Y-123938870D01*
X149136617Y-123916210D01*
X148931327Y-123805113D01*
X148931324Y-123805112D01*
X148931323Y-123805111D01*
X148710555Y-123729321D01*
X148710548Y-123729319D01*
X148612011Y-123712876D01*
X148480312Y-123690900D01*
X148246888Y-123690900D01*
X148131666Y-123710127D01*
X148016651Y-123729319D01*
X148016644Y-123729321D01*
X147795876Y-123805111D01*
X147795873Y-123805113D01*
X147590585Y-123916209D01*
X147590583Y-123916210D01*
X147406378Y-124059582D01*
X147406374Y-124059586D01*
X147248285Y-124231316D01*
X147199083Y-124306627D01*
X147145079Y-124352716D01*
X147074731Y-124362291D01*
X147010374Y-124332314D01*
X146988117Y-124306627D01*
X146938914Y-124231316D01*
X146780825Y-124059586D01*
X146780821Y-124059582D01*
X146625730Y-123938870D01*
X146596617Y-123916210D01*
X146391327Y-123805113D01*
X146391324Y-123805112D01*
X146391323Y-123805111D01*
X146170555Y-123729321D01*
X146170548Y-123729319D01*
X146072011Y-123712876D01*
X145940312Y-123690900D01*
X145706888Y-123690900D01*
X145591666Y-123710127D01*
X145476651Y-123729319D01*
X145476644Y-123729321D01*
X145255876Y-123805111D01*
X145255873Y-123805113D01*
X145050585Y-123916209D01*
X145050583Y-123916210D01*
X144866378Y-124059582D01*
X144866374Y-124059586D01*
X144708285Y-124231316D01*
X144659083Y-124306627D01*
X144605079Y-124352716D01*
X144534731Y-124362291D01*
X144470374Y-124332314D01*
X144448117Y-124306627D01*
X144398914Y-124231316D01*
X144240825Y-124059586D01*
X144240821Y-124059582D01*
X144085730Y-123938870D01*
X144056617Y-123916210D01*
X143851327Y-123805113D01*
X143851324Y-123805112D01*
X143851323Y-123805111D01*
X143630555Y-123729321D01*
X143630548Y-123729319D01*
X143532011Y-123712876D01*
X143400312Y-123690900D01*
X143166888Y-123690900D01*
X143051666Y-123710127D01*
X142936651Y-123729319D01*
X142890007Y-123745332D01*
X142819083Y-123748531D01*
X142760002Y-123715253D01*
X141722433Y-122677683D01*
X141722423Y-122677675D01*
X141583677Y-122597570D01*
X141583674Y-122597569D01*
X141583673Y-122597568D01*
X141583671Y-122597567D01*
X141583670Y-122597567D01*
X141506291Y-122576834D01*
X141428911Y-122556100D01*
X141428909Y-122556100D01*
X139928039Y-122556100D01*
X139859918Y-122536098D01*
X139838944Y-122519195D01*
X136023144Y-118703395D01*
X135989118Y-118641083D01*
X135994183Y-118570268D01*
X136036730Y-118513432D01*
X136103250Y-118488621D01*
X136112239Y-118488300D01*
X142792460Y-118488300D01*
X142860581Y-118508302D01*
G37*
G04 #@! TD.AperFunction*
G04 #@! TA.AperFunction,Conductor*
G36*
X155327533Y-105635025D02*
G01*
X155384368Y-105677572D01*
X155409179Y-105744092D01*
X155409500Y-105753081D01*
X155409500Y-107300049D01*
X155416009Y-107360596D01*
X155416011Y-107360604D01*
X155467110Y-107497602D01*
X155467112Y-107497607D01*
X155554738Y-107614661D01*
X155671792Y-107702287D01*
X155671794Y-107702288D01*
X155671796Y-107702289D01*
X155723458Y-107721558D01*
X155808795Y-107753388D01*
X155808803Y-107753390D01*
X155872717Y-107760261D01*
X155872604Y-107761306D01*
X155935435Y-107783459D01*
X155979000Y-107839518D01*
X155981316Y-107855506D01*
X156677211Y-108551400D01*
X156665339Y-108551400D01*
X156563606Y-108578659D01*
X156472394Y-108631320D01*
X156397920Y-108705794D01*
X156345259Y-108797006D01*
X156318000Y-108898739D01*
X156318000Y-108910609D01*
X155630900Y-108223509D01*
X155580913Y-108294900D01*
X155484188Y-108502326D01*
X155484186Y-108502331D01*
X155424951Y-108723397D01*
X155405004Y-108951400D01*
X155424951Y-109179402D01*
X155484186Y-109400468D01*
X155484188Y-109400473D01*
X155580913Y-109607901D01*
X155630899Y-109679288D01*
X156318000Y-108992188D01*
X156318000Y-109004061D01*
X156345259Y-109105794D01*
X156397920Y-109197006D01*
X156472394Y-109271480D01*
X156563606Y-109324141D01*
X156665339Y-109351400D01*
X156677210Y-109351400D01*
X155990110Y-110038498D01*
X155990110Y-110038500D01*
X156061498Y-110088486D01*
X156246410Y-110174712D01*
X156299695Y-110221629D01*
X156319156Y-110289907D01*
X156298614Y-110357866D01*
X156244591Y-110403932D01*
X156232928Y-110408420D01*
X156133562Y-110452661D01*
X156059547Y-110485615D01*
X156058044Y-110486284D01*
X156055455Y-110488165D01*
X156053702Y-110488790D01*
X156052324Y-110489586D01*
X156052178Y-110489333D01*
X155988585Y-110512019D01*
X155919435Y-110495934D01*
X155907345Y-110488165D01*
X155904755Y-110486284D01*
X155904754Y-110486283D01*
X155904752Y-110486282D01*
X155730288Y-110408606D01*
X155543487Y-110368900D01*
X155352513Y-110368900D01*
X155165711Y-110408606D01*
X154991247Y-110486282D01*
X154836744Y-110598535D01*
X154708965Y-110740448D01*
X154708961Y-110740454D01*
X154708960Y-110740456D01*
X154697703Y-110759954D01*
X154646242Y-110849086D01*
X154594859Y-110898079D01*
X154525145Y-110911514D01*
X154459234Y-110885127D01*
X154418053Y-110827295D01*
X154417290Y-110825022D01*
X154416984Y-110824080D01*
X154377527Y-110702644D01*
X154282040Y-110537256D01*
X154282038Y-110537254D01*
X154282034Y-110537248D01*
X154154255Y-110395335D01*
X153999752Y-110283082D01*
X153825288Y-110205406D01*
X153672431Y-110172915D01*
X153609957Y-110139186D01*
X153609533Y-110138763D01*
X151418205Y-107947434D01*
X151384179Y-107885122D01*
X151381300Y-107858339D01*
X151381300Y-107397271D01*
X151401302Y-107329150D01*
X151454958Y-107282657D01*
X151467671Y-107277665D01*
X151467726Y-107277646D01*
X151470538Y-107276715D01*
X151621452Y-107183630D01*
X151621453Y-107183628D01*
X151627698Y-107179777D01*
X151628799Y-107181562D01*
X151684984Y-107158902D01*
X151697283Y-107158300D01*
X152015707Y-107158300D01*
X152081853Y-107177059D01*
X152160864Y-107225793D01*
X152161062Y-107225915D01*
X152329374Y-107281687D01*
X152433255Y-107292300D01*
X153484344Y-107292299D01*
X153588226Y-107281687D01*
X153756538Y-107225915D01*
X153907452Y-107132830D01*
X154032830Y-107007452D01*
X154125915Y-106856538D01*
X154178005Y-106699335D01*
X154208511Y-106649879D01*
X155194405Y-105663986D01*
X155256717Y-105629960D01*
X155327533Y-105635025D01*
G37*
G04 #@! TD.AperFunction*
G04 #@! TA.AperFunction,Conductor*
G36*
X137064463Y-99866399D02*
G01*
X137132433Y-99886895D01*
X137140243Y-99892429D01*
X137144101Y-99895389D01*
X137372112Y-100027032D01*
X137372115Y-100027033D01*
X137372118Y-100027035D01*
X137432972Y-100052241D01*
X137432973Y-100052242D01*
X137432974Y-100052242D01*
X137615363Y-100127790D01*
X137869680Y-100195934D01*
X137869686Y-100195934D01*
X137869687Y-100195935D01*
X137894796Y-100199240D01*
X138130716Y-100230301D01*
X138130723Y-100230301D01*
X138397906Y-100230301D01*
X138397938Y-100230300D01*
X145076222Y-100230300D01*
X145076254Y-100230301D01*
X145080156Y-100230301D01*
X145343437Y-100230301D01*
X145343444Y-100230301D01*
X145604480Y-100195934D01*
X145858797Y-100127790D01*
X146102043Y-100027034D01*
X146234894Y-99950331D01*
X146298799Y-99933456D01*
X147251745Y-99940377D01*
X153090464Y-99929424D01*
X153116458Y-99932086D01*
X158490030Y-101054783D01*
X158552620Y-101088294D01*
X158587157Y-101150324D01*
X158582675Y-101221179D01*
X158540598Y-101278363D01*
X158503894Y-101297724D01*
X158407878Y-101329540D01*
X158257060Y-101422565D01*
X158257054Y-101422570D01*
X158131770Y-101547854D01*
X158131765Y-101547860D01*
X158038742Y-101698674D01*
X157983006Y-101866878D01*
X157983005Y-101866881D01*
X157972400Y-101970683D01*
X157972400Y-102692200D01*
X160313400Y-102692200D01*
X160313400Y-101970683D01*
X160302794Y-101866881D01*
X160302793Y-101866878D01*
X160247057Y-101698674D01*
X160196566Y-101616816D01*
X160177829Y-101548337D01*
X160199088Y-101480598D01*
X160253595Y-101435106D01*
X160309172Y-101424783D01*
X161042483Y-101456062D01*
X161109687Y-101478948D01*
X161153851Y-101534536D01*
X161160951Y-101605177D01*
X161144353Y-101648093D01*
X161113284Y-101698463D01*
X161057513Y-101866772D01*
X161057512Y-101866779D01*
X161046900Y-101970646D01*
X161046900Y-102921617D01*
X161026898Y-102989738D01*
X161009995Y-103010712D01*
X160528495Y-103492212D01*
X160466183Y-103526238D01*
X160395368Y-103521173D01*
X160338532Y-103478626D01*
X160313721Y-103412106D01*
X160313400Y-103403117D01*
X160313400Y-103200200D01*
X157972400Y-103200200D01*
X157972400Y-103402506D01*
X157952398Y-103470627D01*
X157898742Y-103517120D01*
X157828468Y-103527224D01*
X157821819Y-103526085D01*
X157737435Y-103509300D01*
X157737430Y-103509300D01*
X155317570Y-103509300D01*
X155317567Y-103509300D01*
X155161368Y-103540370D01*
X155161363Y-103540372D01*
X155087800Y-103570843D01*
X155014232Y-103601316D01*
X154881815Y-103689794D01*
X154881813Y-103689795D01*
X154406678Y-104164928D01*
X154344366Y-104198953D01*
X154273550Y-104193888D01*
X154216715Y-104151341D01*
X154192510Y-104086444D01*
X154192127Y-104086484D01*
X154191976Y-104085015D01*
X154191904Y-104084820D01*
X154191825Y-104083532D01*
X154181194Y-103979481D01*
X154181193Y-103979478D01*
X154125457Y-103811274D01*
X154032434Y-103660460D01*
X154032429Y-103660454D01*
X153907145Y-103535170D01*
X153907139Y-103535165D01*
X153756325Y-103442142D01*
X153588121Y-103386406D01*
X153588118Y-103386405D01*
X153484316Y-103375800D01*
X153212800Y-103375800D01*
X153212800Y-104257800D01*
X153192798Y-104325921D01*
X153139142Y-104372414D01*
X153086800Y-104383800D01*
X152958800Y-104383800D01*
X152958800Y-104511800D01*
X152938798Y-104579921D01*
X152885142Y-104626414D01*
X152832800Y-104637800D01*
X152037799Y-104637800D01*
X152023904Y-104651695D01*
X151961592Y-104685721D01*
X151934809Y-104688600D01*
X149439800Y-104688600D01*
X149439800Y-104735108D01*
X149445867Y-104794494D01*
X149432891Y-104864295D01*
X149384239Y-104916000D01*
X149320519Y-104933300D01*
X149154913Y-104933300D01*
X148968111Y-104973006D01*
X148793647Y-105050682D01*
X148639144Y-105162935D01*
X148511365Y-105304848D01*
X148511358Y-105304858D01*
X148415873Y-105470241D01*
X148395045Y-105534341D01*
X148364309Y-105584497D01*
X148004813Y-105943995D01*
X147942501Y-105978020D01*
X147915717Y-105980900D01*
X146116286Y-105980900D01*
X146048165Y-105960898D01*
X146001672Y-105907242D01*
X145991568Y-105836968D01*
X146007165Y-105791903D01*
X146048127Y-105720956D01*
X146107142Y-105539328D01*
X146127104Y-105349400D01*
X146107142Y-105159472D01*
X146048127Y-104977844D01*
X145952640Y-104812456D01*
X145952638Y-104812454D01*
X145952634Y-104812448D01*
X145824855Y-104670535D01*
X145670352Y-104558282D01*
X145495888Y-104480606D01*
X145309087Y-104440900D01*
X145118113Y-104440900D01*
X144931311Y-104480606D01*
X144756847Y-104558282D01*
X144597005Y-104674415D01*
X144595831Y-104672800D01*
X144540380Y-104699407D01*
X144469927Y-104690638D01*
X144426450Y-104659363D01*
X144418859Y-104650932D01*
X144418858Y-104650931D01*
X144264360Y-104538682D01*
X144089896Y-104461006D01*
X143903095Y-104421300D01*
X143712121Y-104421300D01*
X143525319Y-104461006D01*
X143350855Y-104538682D01*
X143196352Y-104650935D01*
X143175396Y-104674210D01*
X143114950Y-104711450D01*
X143081760Y-104715900D01*
X127396394Y-104715900D01*
X127328273Y-104695898D01*
X127307299Y-104678995D01*
X126762387Y-104134083D01*
X149439800Y-104134083D01*
X149439800Y-104180600D01*
X150418800Y-104180600D01*
X150418800Y-103426600D01*
X150926800Y-103426600D01*
X150926800Y-104180600D01*
X151593801Y-104180600D01*
X151607696Y-104166705D01*
X151670008Y-104132679D01*
X151696791Y-104129800D01*
X152704800Y-104129800D01*
X152704800Y-103375800D01*
X152433283Y-103375800D01*
X152329481Y-103386405D01*
X152329478Y-103386406D01*
X152161274Y-103442142D01*
X152010460Y-103535165D01*
X152010454Y-103535170D01*
X151879975Y-103665650D01*
X151877747Y-103663422D01*
X151831326Y-103696278D01*
X151760401Y-103699454D01*
X151701361Y-103666186D01*
X151621145Y-103585970D01*
X151621139Y-103585965D01*
X151470325Y-103492942D01*
X151302121Y-103437206D01*
X151302118Y-103437205D01*
X151198316Y-103426600D01*
X150926800Y-103426600D01*
X150418800Y-103426600D01*
X150147283Y-103426600D01*
X150043481Y-103437205D01*
X150043478Y-103437206D01*
X149875274Y-103492942D01*
X149724460Y-103585965D01*
X149724454Y-103585970D01*
X149599170Y-103711254D01*
X149599165Y-103711260D01*
X149506142Y-103862074D01*
X149450406Y-104030278D01*
X149450405Y-104030281D01*
X149439800Y-104134083D01*
X126762387Y-104134083D01*
X126698866Y-104070562D01*
X126664840Y-104008250D01*
X126665816Y-103950537D01*
X126693564Y-103840968D01*
X126712156Y-103616600D01*
X126693564Y-103392232D01*
X126691812Y-103385314D01*
X126638297Y-103173987D01*
X126638296Y-103173986D01*
X126638296Y-103173984D01*
X126547860Y-102967809D01*
X126541140Y-102957524D01*
X126424724Y-102779334D01*
X126424714Y-102779322D01*
X126281159Y-102623382D01*
X126249737Y-102559717D01*
X126257723Y-102489171D01*
X126302582Y-102434142D01*
X126329827Y-102419988D01*
X126444965Y-102377044D01*
X126561904Y-102289504D01*
X126649444Y-102172565D01*
X126649444Y-102172564D01*
X126700494Y-102035693D01*
X126706999Y-101975197D01*
X126707000Y-101975185D01*
X126707000Y-101330600D01*
X125779703Y-101330600D01*
X125814925Y-101269593D01*
X125849000Y-101142426D01*
X125849000Y-101010774D01*
X125814925Y-100883607D01*
X125779703Y-100822600D01*
X126707000Y-100822600D01*
X126707000Y-100178014D01*
X126706999Y-100178002D01*
X126700494Y-100117506D01*
X126649444Y-99980635D01*
X126647975Y-99977944D01*
X126647323Y-99974949D01*
X126646296Y-99972194D01*
X126646692Y-99972046D01*
X126632886Y-99908570D01*
X126657700Y-99842050D01*
X126714537Y-99799506D01*
X126759475Y-99791566D01*
X137064463Y-99866399D01*
G37*
G04 #@! TD.AperFunction*
M02*
